<svg width="11" height="92" viewBox="0 0 11 92" fill="none" xmlns="http://www.w3.org/2000/svg">
<path d="M6.824 16.56L6.824 17.472L8 17.472L8 18.736L6.824 18.736L6.824 21.752L5.952 21.752L2.4 19.112L2.4 17.752L5.768 20.2L5.768 18.696L4.72 18.696L4.72 17.472L5.768 17.472L5.768 16.56L6.824 16.56ZM8.096 12.1724C8.096 12.6364 7.98133 13.0497 7.752 13.4124C7.52267 13.775 7.192 14.0604 6.76 14.2684C6.32267 14.471 5.80267 14.5724 5.2 14.5724C4.59733 14.5724 4.08 14.471 3.648 14.2684C3.21067 14.0604 2.87733 13.775 2.648 13.4124C2.41867 13.0497 2.304 12.6364 2.304 12.1724C2.304 11.7084 2.41867 11.295 2.648 10.9324C2.87733 10.5697 3.21067 10.287 3.648 10.0844C4.08 9.87637 4.59733 9.77237 5.2 9.77237C5.80267 9.77237 6.32267 9.87637 6.76 10.0844C7.192 10.287 7.52267 10.5697 7.752 10.9324C7.98133 11.295 8.096 11.7084 8.096 12.1724ZM7 12.1724C7 11.831 6.85333 11.5644 6.56 11.3724C6.26667 11.175 5.81333 11.0764 5.2 11.0764C4.58667 11.0764 4.13333 11.175 3.84 11.3724C3.54667 11.5644 3.4 11.831 3.4 12.1724C3.4 12.5084 3.54667 12.775 3.84 12.9724C4.13333 13.1644 4.58667 13.2604 5.2 13.2604C5.81333 13.2604 6.26667 13.1644 6.56 12.9724C6.85333 12.775 7 12.5084 7 12.1724ZM6.824 2.41469L6.824 3.32669L8 3.32669L8 4.59069L6.824 4.59069L6.824 7.60669L5.952 7.60669L2.4 4.96669L2.4 3.60669L5.768 6.05469L5.768 4.55069L4.72 4.55069L4.72 3.32669L5.768 3.32669L5.768 2.41469L6.824 2.41469Z" fill="white" fill-opacity="0.13"/>
<rect x="5" y="92" width="57" height="1" transform="rotate(-90 5 92)" fill="white" fill-opacity="0.04"/>
</svg>
