<svg width="11" height="149" viewBox="0 0 11 149" fill="none" xmlns="http://www.w3.org/2000/svg">
<path d="M8.096 58.656C8.096 59.2267 7.97333 59.744 7.728 60.208C7.47733 60.6667 7.13333 61.0293 6.696 61.296C6.25333 61.5573 5.75467 61.688 5.2 61.688C4.64533 61.688 4.14933 61.5573 3.712 61.296C3.26933 61.0293 2.92533 60.6667 2.68 60.208C2.42933 59.744 2.304 59.224 2.304 58.648C2.304 58.1627 2.38933 57.7253 2.56 57.336C2.73067 56.9413 2.976 56.6107 3.296 56.344L4.064 57.176C3.62667 57.5547 3.408 58.024 3.408 58.584C3.408 58.9307 3.48533 59.24 3.64 59.512C3.78933 59.784 4 59.9973 4.272 60.152C4.544 60.3013 4.85333 60.376 5.2 60.376C5.54667 60.376 5.856 60.3013 6.128 60.152C6.4 59.9973 6.61333 59.784 6.768 59.512C6.91733 59.24 6.992 58.9307 6.992 58.584C6.992 58.024 6.77067 57.5547 6.328 57.176L7.096 56.344C7.42133 56.6107 7.66933 56.9413 7.84 57.336C8.01067 57.7307 8.096 58.1707 8.096 58.656ZM8.096 51.274C8.096 51.8553 7.97067 52.3807 7.72 52.85C7.46933 53.314 7.12533 53.6793 6.688 53.946C6.24533 54.2073 5.74933 54.338 5.2 54.338C4.65067 54.338 4.15733 54.2073 3.72 53.946C3.27733 53.6793 2.93067 53.314 2.68 52.85C2.42933 52.3807 2.304 51.8553 2.304 51.274C2.304 50.6927 2.42933 50.17 2.68 49.706C2.93067 49.242 3.27733 48.8767 3.72 48.61C4.15733 48.3433 4.65067 48.21 5.2 48.21C5.74933 48.21 6.24533 48.3433 6.688 48.61C7.12533 48.8767 7.46933 49.242 7.72 49.706C7.97067 50.17 8.096 50.6927 8.096 51.274ZM6.992 51.274C6.992 50.9433 6.91733 50.6447 6.768 50.378C6.61333 50.1113 6.4 49.9033 6.128 49.754C5.856 49.5993 5.54667 49.522 5.2 49.522C4.85333 49.522 4.544 49.5993 4.272 49.754C4 49.9033 3.78933 50.1113 3.64 50.378C3.48533 50.6447 3.408 50.9433 3.408 51.274C3.408 51.6047 3.48533 51.9033 3.64 52.17C3.78933 52.4367 4 52.6473 4.272 52.802C4.544 52.9513 4.85333 53.026 5.2 53.026C5.54667 53.026 5.856 52.9513 6.128 52.802C6.4 52.6473 6.61333 52.4367 6.768 52.17C6.91733 51.9033 6.992 51.6047 6.992 51.274ZM2.4 40.5L8 40.5L8 41.564L4.6 44.356L8 44.356L8 45.636L2.4 45.636L2.4 44.564L5.8 41.78L2.4 41.78L2.4 40.5ZM3.456 36.4151L3.456 38.2071L2.4 38.2071L2.4 33.3271L3.456 33.3271L3.456 35.1191L8 35.1191L8 36.4151L3.456 36.4151ZM6.8 27.623L6.8 30.223L8 30.719L8 32.047L2.4 29.551L2.4 28.271L8 25.767L8 27.127L6.8 27.623ZM5.816 28.031L3.672 28.919L5.816 29.807L5.816 28.031ZM8.096 20.9841C8.096 21.5548 7.97333 22.0721 7.728 22.5361C7.47733 22.9948 7.13333 23.3575 6.696 23.6241C6.25333 23.8855 5.75466 24.0161 5.2 24.0161C4.64533 24.0161 4.14933 23.8855 3.712 23.6241C3.26933 23.3575 2.92533 22.9948 2.68 22.5361C2.42933 22.0721 2.304 21.5521 2.304 20.9761C2.304 20.4908 2.38933 20.0535 2.56 19.6641C2.73066 19.2695 2.976 18.9388 3.296 18.6721L4.064 19.5041C3.62666 19.8828 3.408 20.3521 3.408 20.9121C3.408 21.2588 3.48533 21.5681 3.64 21.8401C3.78933 22.1121 4 22.3255 4.272 22.4801C4.544 22.6295 4.85333 22.7041 5.2 22.7041C5.54666 22.7041 5.856 22.6295 6.128 22.4801C6.4 22.3255 6.61333 22.1121 6.768 21.8401C6.91733 21.5681 6.992 21.2588 6.992 20.9121C6.992 20.3521 6.77066 19.8828 6.328 19.5041L7.096 18.6721C7.42133 18.9388 7.66933 19.2695 7.84 19.6641C8.01066 20.0588 8.096 20.4988 8.096 20.9841ZM3.456 15.0916L3.456 16.8836L2.4 16.8836L2.4 12.0036L3.456 12.0036L3.456 13.7956L8 13.7956L8 15.0916L3.456 15.0916ZM8.096 7.90537C8.096 8.34804 8.03733 8.77737 7.92 9.19337C7.79733 9.60404 7.64 9.93471 7.448 10.1854L6.472 9.74537C6.648 9.50537 6.78933 9.22004 6.896 8.88937C7.00266 8.55871 7.056 8.22804 7.056 7.89737C7.056 7.52937 7.00266 7.25737 6.896 7.08137C6.784 6.90537 6.63733 6.81737 6.456 6.81737C6.32266 6.81737 6.21333 6.87071 6.128 6.97737C6.03733 7.07871 5.96533 7.21204 5.912 7.37737C5.85866 7.53737 5.8 7.75604 5.736 8.03337C5.63466 8.46004 5.53333 8.80937 5.432 9.08137C5.33066 9.35337 5.168 9.58804 4.944 9.78537C4.72 9.97737 4.42133 10.0734 4.048 10.0734C3.72266 10.0734 3.42933 9.98537 3.168 9.80937C2.90133 9.63337 2.69066 9.36937 2.536 9.01737C2.38133 8.66004 2.304 8.22537 2.304 7.71337C2.304 7.35604 2.34666 7.00671 2.432 6.66537C2.51733 6.32404 2.64 6.02537 2.8 5.76937L3.784 6.16937C3.49066 6.68671 3.344 7.20404 3.344 7.72137C3.344 8.08404 3.40266 8.35337 3.52 8.52937C3.63733 8.70004 3.792 8.78537 3.984 8.78537C4.176 8.78537 4.32 8.68671 4.416 8.48937C4.50666 8.28671 4.59733 7.98004 4.688 7.56937C4.78933 7.14271 4.89066 6.79337 4.992 6.52137C5.09333 6.24937 5.25333 6.01737 5.472 5.82537C5.69066 5.62804 5.98666 5.52937 6.36 5.52937C6.68 5.52937 6.97333 5.62004 7.24 5.80137C7.50133 5.97737 7.70933 6.24404 7.864 6.60137C8.01866 6.95871 8.096 7.39337 8.096 7.90537Z" fill="white" fill-opacity="0.1"/>
<rect x="5" y="149" width="74" height="1" transform="rotate(-90 5 149)" fill="white" fill-opacity="0.06"/>
</svg>
