<svg width="25" height="24" viewBox="0 0 25 24" fill="none" xmlns="http://www.w3.org/2000/svg">
<circle opacity="0.32" cx="12.7744" cy="12" r="11.5" stroke="white"/>
<g clip-path="url(#clip0_1_154)">
<path d="M18.5779 17.0349V17.0344H18.5807V13.0593C18.5807 11.1147 18.162 9.6167 15.8886 9.6167C14.7957 9.6167 14.0623 10.2164 13.7628 10.785H13.7312V9.79825H11.5757V17.0344H13.8202V13.4513C13.8202 12.5079 13.999 11.5957 15.1674 11.5957C16.3185 11.5957 16.3357 12.6723 16.3357 13.5119V17.0349H18.5779Z" fill="white"/>
<path d="M7.9209 9.79834H10.1681V17.0345H7.9209V9.79834Z" fill="white"/>
<path d="M9.04422 6.19336C8.32571 6.19336 7.74268 6.77639 7.74268 7.49491C7.74268 8.21342 8.32571 8.80865 9.04422 8.80865C9.76274 8.80865 10.3458 8.21342 10.3458 7.49491C10.3453 6.77639 9.76229 6.19336 9.04422 6.19336V6.19336Z" fill="white"/>
</g>
<defs>
<clipPath id="clip0_1_154">
<rect width="10.8387" height="10.8387" fill="white" transform="translate(7.74268 6.19336)"/>
</clipPath>
</defs>
</svg>
