<svg width="12" height="78" viewBox="0 0 12 78" fill="none" xmlns="http://www.w3.org/2000/svg">
<path d="M1.3 70.2764L9 70.2764L9 71.4534L3.786 75.6994L9 75.6994L9 77.1184L1.3 77.1184L1.3 75.9414L6.514 71.6954L1.3 71.6954L1.3 70.2764ZM6.096 62.1631C6.19133 62.1631 6.327 62.1705 6.503 62.1851L6.503 66.7941C6.93567 66.7135 7.28033 66.5045 7.537 66.1671C7.78633 65.8225 7.911 65.3971 7.911 64.8911C7.911 64.2458 7.69833 63.7141 7.273 63.2961L8.12 62.5591C8.43533 62.8231 8.67367 63.1568 8.835 63.5601C8.99633 63.9635 9.077 64.4181 9.077 64.9241C9.077 65.5695 8.94867 66.1378 8.692 66.6291C8.43533 67.1205 8.07967 67.5018 7.625 67.7731C7.163 68.0371 6.64233 68.1691 6.063 68.1691C5.491 68.1691 4.97767 68.0408 4.523 67.7841C4.061 67.5201 3.70167 67.1571 3.445 66.6951C3.18833 66.2331 3.06 65.7125 3.06 65.1331C3.06 64.5611 3.18833 64.0515 3.445 63.6041C3.69433 63.1495 4.05 62.7975 4.512 62.5481C4.96667 62.2915 5.49467 62.1631 6.096 62.1631ZM4.16 65.1331C4.16 65.5731 4.292 65.9471 4.556 66.2551C4.81267 66.5558 5.15733 66.7391 5.59 66.8051L5.59 63.4721C5.16467 63.5308 4.82 63.7105 4.556 64.0111C4.292 64.3118 4.16 64.6858 4.16 65.1331ZM9 56.6035L6.965 58.1105L9 59.6285L9 61.1465L6.019 58.8585L3.126 61.0475L3.126 59.5185L5.051 58.0775L3.126 56.6365L3.126 55.1515L5.997 57.3515L9 55.0525L9 56.6035ZM8.681 49.8468C8.813 50.0082 8.912 50.2062 8.978 50.4408C9.044 50.6682 9.077 50.9102 9.077 51.1668C9.077 51.8122 8.90833 52.3108 8.571 52.6628C8.23367 53.0148 7.74233 53.1908 7.097 53.1908L4.27 53.1908L4.27 54.1588L3.17 54.1588L3.17 53.1908L1.828 53.1908L1.828 51.8158L3.17 51.8158L3.17 50.2428L4.27 50.2428L4.27 51.8158L7.064 51.8158C7.35 51.8158 7.57 51.7462 7.724 51.6068C7.87067 51.4675 7.944 51.2658 7.944 51.0018C7.944 50.6938 7.86333 50.4372 7.702 50.2318L8.681 49.8468ZM1.3 41.0557C1.3 40.3884 1.41 39.809 1.63 39.3177C1.85 38.819 2.16533 38.4377 2.576 38.1737C2.98666 37.9097 3.47433 37.7777 4.039 37.7777C4.59633 37.7777 5.084 37.9097 5.502 38.1737C5.91266 38.4377 6.228 38.819 6.448 39.3177C6.668 39.809 6.778 40.3884 6.778 41.0557L6.778 42.7937L9 42.7937L9 44.2237L1.3 44.2237L1.3 41.0557ZM5.568 41.1217C5.568 40.4984 5.436 40.0254 5.172 39.7027C4.908 39.38 4.53033 39.2187 4.039 39.2187C3.54766 39.2187 3.17 39.38 2.906 39.7027C2.642 40.0254 2.51 40.4984 2.51 41.1217L2.51 42.7937L5.568 42.7937L5.568 41.1217ZM3.984 34.5664C3.368 34.1704 3.06 33.4737 3.06 32.4764L4.369 32.4764C4.347 32.5937 4.336 32.7 4.336 32.7954C4.336 33.3307 4.49366 33.7487 4.809 34.0494C5.117 34.35 5.56433 34.5004 6.151 34.5004L9 34.5004L9 35.8754L3.126 35.8754L3.126 34.5664L3.984 34.5664ZM9.077 28.0637C9.077 28.6577 8.94866 29.193 8.692 29.6697C8.43533 30.1463 8.07966 30.5203 7.625 30.7917C7.163 31.0557 6.64233 31.1877 6.063 31.1877C5.48366 31.1877 4.96666 31.0557 4.512 30.7917C4.05733 30.5203 3.70166 30.1463 3.445 29.6697C3.18833 29.193 3.06 28.6577 3.06 28.0637C3.06 27.4623 3.18833 26.9233 3.445 26.4467C3.70166 25.97 4.05733 25.5997 4.512 25.3357C4.96666 25.0643 5.48366 24.9287 6.063 24.9287C6.64233 24.9287 7.163 25.0643 7.625 25.3357C8.07966 25.5997 8.43533 25.97 8.692 26.4467C8.94866 26.9233 9.077 27.4623 9.077 28.0637ZM7.9 28.0637C7.9 27.5577 7.73133 27.1397 7.394 26.8097C7.05666 26.4797 6.613 26.3147 6.063 26.3147C5.513 26.3147 5.06933 26.4797 4.732 26.8097C4.39466 27.1397 4.226 27.5577 4.226 28.0637C4.226 28.5697 4.39466 28.9877 4.732 29.3177C5.06933 29.6403 5.513 29.8017 6.063 29.8017C6.613 29.8017 7.05666 29.6403 7.394 29.3177C7.73133 28.9877 7.9 28.5697 7.9 28.0637ZM11.211 23.5588C11.211 24.1382 11.0973 24.5782 10.87 24.8788L9.847 24.4828C10.001 24.2775 10.078 24.0098 10.078 23.6798C10.078 23.4232 9.99733 23.2288 9.836 23.0968C9.682 22.9575 9.451 22.8878 9.143 22.8878L3.126 22.8878L3.126 21.5128L9.11 21.5128C9.76266 21.5128 10.276 21.6925 10.65 22.0518C11.024 22.4112 11.211 22.9135 11.211 23.5588ZM2.158 22.2058C2.158 22.4552 2.081 22.6642 1.927 22.8328C1.76566 23.0015 1.56766 23.0858 1.333 23.0858C1.09833 23.0858 0.903997 23.0015 0.749997 22.8328C0.588664 22.6642 0.507997 22.4552 0.507997 22.2058C0.507997 21.9565 0.584997 21.7475 0.738997 21.5788C0.885664 21.4102 1.07266 21.3258 1.3 21.3258C1.542 21.3258 1.74733 21.4102 1.916 21.5788C2.07733 21.7402 2.158 21.9492 2.158 22.2058ZM6.096 13.5277C6.19133 13.5277 6.327 13.535 6.503 13.5497L6.503 18.1587C6.93566 18.078 7.28033 17.869 7.537 17.5317C7.78633 17.187 7.911 16.7617 7.911 16.2557C7.911 15.6103 7.69833 15.0787 7.273 14.6607L8.12 13.9237C8.43533 14.1877 8.67366 14.5213 8.835 14.9247C8.99633 15.328 9.077 15.7827 9.077 16.2887C9.077 16.934 8.94866 17.5023 8.692 17.9937C8.43533 18.485 8.07966 18.8663 7.625 19.1377C7.163 19.4017 6.64233 19.5337 6.063 19.5337C5.491 19.5337 4.97766 19.4053 4.523 19.1487C4.061 18.8847 3.70166 18.5217 3.445 18.0597C3.18833 17.5977 3.06 17.077 3.06 16.4977C3.06 15.9257 3.18833 15.416 3.445 14.9687C3.69433 14.514 4.05 14.162 4.512 13.9127C4.96666 13.656 5.49466 13.5277 6.096 13.5277ZM4.16 16.4977C4.16 16.9377 4.292 17.3117 4.556 17.6197C4.81266 17.9203 5.15733 18.1037 5.59 18.1697L5.59 14.8367C5.16466 14.8953 4.82 15.075 4.556 15.3757C4.292 15.6763 4.16 16.0503 4.16 16.4977ZM9.077 8.85191C9.077 9.46057 8.94866 10.0069 8.692 10.4909C8.43533 10.9749 8.07966 11.3526 7.625 11.6239C7.163 11.8952 6.64233 12.0309 6.063 12.0309C5.48366 12.0309 4.96666 11.8952 4.512 11.6239C4.05733 11.3526 3.70166 10.9786 3.445 10.5019C3.18833 10.0179 3.06 9.46791 3.06 8.85191C3.06 8.27257 3.17733 7.76657 3.412 7.33391C3.64666 6.89391 3.984 6.56391 4.424 6.34391L5.04 7.39991C4.76866 7.56857 4.567 7.78124 4.435 8.03791C4.29566 8.28724 4.226 8.56224 4.226 8.86291C4.226 9.37624 4.39466 9.80157 4.732 10.1389C5.062 10.4762 5.50566 10.6449 6.063 10.6449C6.62033 10.6449 7.06766 10.4799 7.405 10.1499C7.735 9.81257 7.9 9.38357 7.9 8.86291C7.9 8.56224 7.834 8.28724 7.702 8.03791C7.56266 7.78124 7.35733 7.56857 7.086 7.39991L7.702 6.34391C8.142 6.57124 8.483 6.90491 8.725 7.34491C8.95966 7.77757 9.077 8.27991 9.077 8.85191ZM8.681 0.889105C8.813 1.05044 8.912 1.24844 8.978 1.4831C9.044 1.71044 9.077 1.95244 9.077 2.2091C9.077 2.85444 8.90833 3.3531 8.571 3.7051C8.23366 4.0571 7.74233 4.2331 7.097 4.2331L4.27 4.23311L4.27 5.20111L3.17 5.20111L3.17 4.23311L1.828 4.23311L1.828 2.85811L3.17 2.85811L3.17 1.28511L4.27 1.2851L4.27 2.85811L7.064 2.8581C7.35 2.8581 7.57 2.78844 7.724 2.6491C7.87066 2.50977 7.944 2.3081 7.944 2.0441C7.944 1.7361 7.86333 1.47944 7.702 1.2741L8.681 0.889105Z" fill="white"/>
</svg>
