<svg width="33" height="350" viewBox="0 0 33 350" fill="none" xmlns="http://www.w3.org/2000/svg">
<path d="M4.592 334.496L5.04696 334.703L5.04808 334.701L4.592 334.496ZM16.048 331.104L16.3202 330.685L16.3169 330.682L16.048 331.104ZM18.864 334.496L19.3215 334.294L19.3201 334.291L18.864 334.496ZM19.824 344.16L19.324 344.16L19.324 344.66L19.824 344.66L19.824 344.16ZM26 344.16L26.5 344.16L26.5 343.66L26 343.66L26 344.16ZM26 349.344L26 349.844L26.5 349.844L26.5 349.344L26 349.344ZM3.6 349.344L3.1 349.344L3.1 349.844L3.6 349.844L3.6 349.344ZM14.608 336.384L14.9955 336.068L14.9905 336.062L14.608 336.384ZM8.848 336.384L9.2305 336.706L9.23543 336.7L8.848 336.384ZM7.824 344.16L7.324 344.16L7.324 344.66L7.824 344.66L7.824 344.16ZM15.6 344.16L15.6 344.66L16.1 344.66L16.1 344.16L15.6 344.16ZM4.1 339.648C4.1 337.719 4.42163 336.075 5.04695 334.703L4.13704 334.289C3.4397 335.818 3.1 337.609 3.1 339.648L4.1 339.648ZM5.04808 334.701C5.67463 333.306 6.5538 332.255 7.68023 331.523L7.13576 330.685C5.83019 331.532 4.83203 332.742 4.13591 334.291L5.04808 334.701ZM7.68023 331.523C8.80371 330.794 10.146 330.42 11.728 330.42L11.728 329.42C9.98202 329.42 8.44428 329.835 7.13576 330.685L7.68023 331.523ZM11.728 330.42C13.2871 330.42 14.6314 330.793 15.7791 331.526L16.3169 330.682C14.9899 329.836 13.4542 329.42 11.728 329.42L11.728 330.42ZM15.7758 331.523C16.9022 332.255 17.7814 333.306 18.4079 334.701L19.3201 334.291C18.624 332.742 17.6258 331.532 16.3202 330.685L15.7758 331.523ZM18.4065 334.698C19.0124 336.071 19.324 337.717 19.324 339.648L20.324 339.648C20.324 337.611 19.9956 335.822 19.3215 334.294L18.4065 334.698ZM19.324 339.648L19.324 344.16L20.324 344.16L20.324 339.648L19.324 339.648ZM19.824 344.66L26 344.66L26 343.66L19.824 343.66L19.824 344.66ZM25.5 344.16L25.5 349.344L26.5 349.344L26.5 344.16L25.5 344.16ZM26 348.844L3.6 348.844L3.6 349.844L26 349.844L26 348.844ZM4.1 349.344L4.1 339.648L3.1 339.648L3.1 349.344L4.1 349.344ZM16.1 339.936C16.1 338.318 15.7577 337.002 14.9954 336.068L14.2206 336.7C14.781 337.387 15.1 338.44 15.1 339.936L16.1 339.936ZM14.9905 336.062C14.1964 335.119 13.0854 334.668 11.728 334.668L11.728 335.668C12.8453 335.668 13.6542 336.028 14.2255 336.706L14.9905 336.062ZM11.728 334.668C10.3529 334.668 9.23631 335.117 8.46057 336.068L9.23543 336.7C9.78235 336.03 10.5858 335.668 11.728 335.668L11.728 334.668ZM8.46554 336.062C7.67833 336.997 7.324 338.315 7.324 339.936L8.324 339.936C8.324 338.443 8.65234 337.393 9.23045 336.706L8.46554 336.062ZM7.324 339.936L7.324 344.16L8.324 344.16L8.324 339.936L7.324 339.936ZM7.824 344.66L15.6 344.66L15.6 343.66L7.824 343.66L7.824 344.66ZM16.1 344.16L16.1 339.936L15.1 339.936L15.1 344.16L16.1 344.16ZM18.8 308.554L19.3 308.554L19.3 308.091L18.8383 308.056L18.8 308.554ZM18.8 321.578L18.3 321.578L18.3 322.2L18.9074 322.067L18.8 321.578ZM21.328 319.914L20.9198 319.626L21.328 319.914ZM21.872 314.282L22.3402 314.107L22.3372 314.099L21.872 314.282ZM20.592 312.33L20.253 311.963L19.8772 312.309L20.2321 312.677L20.592 312.33ZM23.472 309.674L23.8009 309.298L23.4629 309.002L23.133 309.307L23.472 309.674ZM25.136 321.93L25.5807 322.159L25.5832 322.154L25.136 321.93ZM21.968 325.386L22.2262 325.814L21.968 325.386ZM12.848 325.418L12.5927 325.848L12.5948 325.849L12.848 325.418ZM9.68 322.122L10.1202 321.885L10.1189 321.883L9.68 322.122ZM9.616 312.842L9.17444 312.608L9.616 312.842ZM12.752 309.642L12.9972 310.078L13.0052 310.073L12.752 309.642ZM13.264 320.234L12.8799 320.554L12.8799 320.554L13.264 320.234ZM15.888 321.642L15.812 322.136L16.388 322.225L16.388 321.642L15.888 321.642ZM15.888 313.162L16.388 313.162L16.388 312.578L15.8105 312.668L15.888 313.162ZM13.296 314.57L13.6749 314.897L13.6801 314.89L13.296 314.57ZM17.456 308.958C17.4528 308.958 17.475 308.959 17.5448 308.963C17.6066 308.967 17.6929 308.973 17.8044 308.981C18.027 308.997 18.3459 309.021 18.7617 309.053L18.8383 308.056C18.0249 307.993 17.5453 307.958 17.456 307.958L17.456 308.958ZM18.3 308.554L18.3 321.578L19.3 321.578L19.3 308.554L18.3 308.554ZM18.9074 322.067C20.0931 321.806 21.0441 321.181 21.7362 320.203L20.9198 319.626C20.3746 320.396 19.6402 320.881 18.6926 321.09L18.9074 322.067ZM21.7362 320.203C22.4264 319.227 22.756 318.032 22.756 316.65L21.756 316.65C21.756 317.871 21.4669 318.852 20.9198 319.626L21.7362 320.203ZM22.756 316.65C22.756 315.708 22.6214 314.857 22.3402 314.107L21.4038 314.458C21.6346 315.073 21.756 315.801 21.756 316.65L22.756 316.65ZM22.3372 314.099C22.0336 313.328 21.569 312.623 20.9519 311.983L20.2321 312.677C20.767 313.232 21.1557 313.828 21.4068 314.466L22.3372 314.099ZM20.931 312.698L23.811 310.042L23.133 309.307L20.253 311.963L20.931 312.698ZM23.1431 310.051C24.8629 311.553 25.756 313.767 25.756 316.778L26.756 316.778C26.756 313.56 25.7931 311.038 23.8009 309.298L23.1431 310.051ZM25.756 316.778C25.756 318.655 25.3955 320.293 24.6888 321.707L25.5832 322.154C26.3698 320.581 26.756 318.785 26.756 316.778L25.756 316.778ZM24.6914 321.702C23.9627 323.118 22.9687 324.199 21.7098 324.958L22.2262 325.814C23.6553 324.952 24.7733 323.729 25.5806 322.159L24.6914 321.702ZM21.7098 324.958C20.4504 325.718 19.0159 326.102 17.392 326.102L17.392 327.102C19.1815 327.102 20.7976 326.676 22.2262 325.814L21.7098 324.958ZM17.392 326.102C15.7882 326.102 14.3622 325.728 13.1012 324.987L12.5948 325.849C14.0218 326.687 15.6251 327.102 17.392 327.102L17.392 326.102ZM13.1033 324.988C11.8153 324.224 10.8235 323.191 10.1202 321.885L9.23976 322.359C10.0298 323.827 11.1501 324.992 12.5927 325.848L13.1033 324.988ZM10.1189 321.883C9.39408 320.554 9.028 319.069 9.028 317.418L8.028 317.418C8.028 319.223 8.42992 320.875 9.24105 322.362L10.1189 321.883ZM9.028 317.418C9.028 315.807 9.37398 314.364 10.0576 313.077L9.17444 312.608C8.40735 314.052 8.028 315.659 8.028 317.418L9.028 317.418ZM10.0576 313.077C10.7374 311.797 11.714 310.8 12.9971 310.078L12.5069 309.206C11.0593 310.021 9.94528 311.157 9.17444 312.608L10.0576 313.077ZM13.0052 310.073C14.2616 309.336 15.7395 308.958 17.456 308.958L17.456 307.958C15.5885 307.958 13.9304 308.37 12.4988 309.211L13.0052 310.073ZM11.804 317.386C11.804 318.618 12.1552 319.685 12.8799 320.554L13.6481 319.914C13.0928 319.248 12.804 318.416 12.804 317.386L11.804 317.386ZM12.8799 320.554C13.6076 321.428 14.598 321.95 15.812 322.136L15.964 321.148C14.9593 320.993 14.2004 320.577 13.6481 319.914L12.8799 320.554ZM16.388 321.642L16.388 313.162L15.388 313.162L15.388 321.642L16.388 321.642ZM15.8105 312.668C14.6157 312.856 13.6377 313.379 12.9119 314.25L13.6801 314.89C14.2343 314.225 14.9843 313.81 15.9655 313.656L15.8105 312.668ZM12.9171 314.244C12.17 315.112 11.804 316.169 11.804 317.386L12.804 317.386C12.804 316.384 13.0993 315.565 13.6749 314.897L12.9171 314.244ZM11.056 299.087L11.056 299.587L12.6098 299.587L11.3476 298.681L11.056 299.087ZM9.168 296.687L8.70645 296.879L8.70792 296.883L9.168 296.687ZM8.528 293.167L8.528 292.667L8.028 292.667L8.028 293.167L8.528 293.167ZM13.136 293.167L13.6345 293.205L13.6759 292.667L13.136 292.667L13.136 293.167ZM14.288 297.647L14.6463 297.298L14.6415 297.293L14.288 297.647ZM26 298.863L26.5 298.863L26.5 298.363L26 298.363L26 298.863ZM26 303.855L26 304.355L26.5 304.355L26.5 303.855L26 303.855ZM8.784 303.855L8.284 303.855L8.284 304.355L8.784 304.355L8.784 303.855ZM8.784 299.087L8.784 298.587L8.284 298.587L8.284 299.087L8.784 299.087ZM11.3476 298.681C10.5948 298.14 10.0213 297.415 9.62807 296.491L8.70792 296.883C9.16804 297.964 9.85324 298.839 10.7644 299.493L11.3476 298.681ZM9.62954 296.494C9.23264 295.542 9.028 294.436 9.028 293.167L8.028 293.167C8.028 294.543 8.25002 295.784 8.70646 296.879L9.62954 296.494ZM8.528 293.667L13.136 293.667L13.136 292.667L8.528 292.667L8.528 293.667ZM12.6375 293.128C12.595 293.68 12.572 294.073 12.572 294.287L13.572 294.287C13.572 294.117 13.5916 293.762 13.6345 293.205L12.6375 293.128ZM12.572 294.287C12.572 295.814 13.0081 297.074 13.9344 298L14.6415 297.293C13.9466 296.598 13.572 295.618 13.572 294.287L12.572 294.287ZM13.9298 297.996C14.8465 298.937 16.1938 299.363 17.872 299.363L17.872 298.363C16.3502 298.363 15.3081 297.978 14.6462 297.298L13.9298 297.996ZM17.872 299.363L26 299.363L26 298.363L17.872 298.363L17.872 299.363ZM25.5 298.863L25.5 303.855L26.5 303.855L26.5 298.863L25.5 298.863ZM26 303.355L8.784 303.355L8.784 304.355L26 304.355L26 303.355ZM9.284 303.855L9.284 299.087L8.284 299.087L8.284 303.855L9.284 303.855ZM8.784 299.587L11.056 299.587L11.056 298.587L8.784 298.587L8.784 299.587ZM9.168 283.322L9.168 283.822L9.668 283.822L9.668 283.322L9.168 283.322ZM9.168 278.906L9.168 278.406L8.668 278.406L8.668 278.906L9.168 278.906ZM13.008 278.906L13.508 278.906L13.508 278.406L13.008 278.406L13.008 278.906ZM13.008 283.193L12.508 283.193L12.508 283.693L13.008 283.693L13.008 283.193ZM26 283.193L26.5 283.193L26.5 282.693L26 282.693L26 283.193ZM26 288.185L26 288.685L26.5 288.685L26.5 288.185L26 288.185ZM13.008 288.186L13.008 287.686L12.508 287.686L12.508 288.186L13.008 288.186ZM13.008 290.841L13.008 291.341L13.508 291.341L13.508 290.841L13.008 290.841ZM9.168 290.841L8.668 290.841L8.668 291.341L9.168 291.341L9.168 290.841ZM9.168 288.186L9.668 288.186L9.668 287.686L9.168 287.686L9.168 288.186ZM3.728 286.457L3.3712 286.808L3.37444 286.811L3.728 286.457ZM2.256 279.417L2.74013 279.542L2.74246 279.533L2.74445 279.524L2.256 279.417ZM2.928 277.721L3.09853 277.251L2.72965 277.118L2.51197 277.444L2.928 277.721ZM6.544 279.034L6.9529 279.321L7.3292 278.786L6.71453 278.563L6.544 279.034ZM9.668 283.322L9.668 278.906L8.668 278.906L8.668 283.322L9.668 283.322ZM9.168 279.406L13.008 279.406L13.008 278.406L9.168 278.406L9.168 279.406ZM12.508 278.906L12.508 283.193L13.508 283.193L13.508 278.906L12.508 278.906ZM13.008 283.693L26 283.693L26 282.693L13.008 282.693L13.008 283.693ZM25.5 283.193L25.5 288.185L26.5 288.185L26.5 283.193L25.5 283.193ZM26 287.685L13.008 287.686L13.008 288.686L26 288.685L26 287.685ZM12.508 288.186L12.508 290.841L13.508 290.841L13.508 288.186L12.508 288.186ZM13.008 290.341L9.168 290.341L9.168 291.341L13.008 291.341L13.008 290.341ZM9.668 290.841L9.668 288.186L8.668 288.186L8.668 290.841L9.668 290.841ZM9.168 287.686L8.4 287.686L8.4 288.686L9.168 288.686L9.168 287.686ZM8.4 287.686C6.54092 287.686 5.12108 287.143 4.08155 286.104L3.37444 286.811C4.63891 288.076 6.33374 288.686 8.4 288.686L8.4 287.686ZM4.08478 286.107C3.04862 285.052 2.5 283.549 2.5 281.529L1.5 281.529C1.5 283.734 2.10337 285.516 3.37121 286.808L4.08478 286.107ZM2.5 281.529C2.49999 280.821 2.58093 280.159 2.74013 279.542L1.77186 279.293C1.58973 279.998 1.49999 280.745 1.5 281.529L2.5 281.529ZM2.74445 279.524C2.88424 278.885 3.0885 278.382 3.34402 277.999L2.51197 277.444C2.17016 277.957 1.92642 278.584 1.76755 279.311L2.74445 279.524ZM2.75746 278.192L6.37346 279.504L6.71453 278.563L3.09853 277.251L2.75746 278.192ZM6.13509 278.746C5.66509 279.414 5.436 280.188 5.436 281.049L6.436 281.049C6.436 280.375 6.61224 279.805 6.9529 279.321L6.13509 278.746ZM5.436 281.049C5.436 281.897 5.67083 282.62 6.22342 283.123C6.7671 283.618 7.53395 283.822 8.432 283.822L8.432 282.822C7.66604 282.822 7.18489 282.646 6.89657 282.384C6.61716 282.129 6.436 281.717 6.436 281.049L5.436 281.049ZM8.432 283.822L9.168 283.822L9.168 282.822L8.432 282.822L8.432 283.822ZM18.8 258.589L19.3 258.589L19.3 258.126L18.8383 258.091L18.8 258.589ZM18.8 271.613L18.3 271.613L18.3 272.235L18.9074 272.102L18.8 271.613ZM21.328 269.949L20.9198 269.661L21.328 269.949ZM21.872 264.317L22.3402 264.142L22.3372 264.134L21.872 264.317ZM20.592 262.365L20.253 261.998L19.8772 262.344L20.2321 262.712L20.592 262.365ZM23.472 259.709L23.8009 259.333L23.4629 259.037L23.133 259.342L23.472 259.709ZM25.136 271.965L25.5807 272.194L25.5832 272.189L25.136 271.965ZM21.968 275.421L22.2262 275.849L21.968 275.421ZM12.848 275.453L12.5927 275.883L12.5948 275.884L12.848 275.453ZM9.67999 272.157L10.1202 271.92L10.1189 271.918L9.67999 272.157ZM9.616 262.877L9.17444 262.643L9.616 262.877ZM12.752 259.677L12.9972 260.113L13.0052 260.108L12.752 259.677ZM13.264 270.269L12.8799 270.589L13.264 270.269ZM15.888 271.677L15.812 272.171L16.388 272.26L16.388 271.677L15.888 271.677ZM15.888 263.197L16.388 263.197L16.388 262.613L15.8105 262.703L15.888 263.197ZM13.296 264.605L13.6749 264.932L13.6801 264.925L13.296 264.605ZM17.456 258.993C17.4528 258.993 17.475 258.994 17.5448 258.998C17.6066 259.002 17.6929 259.008 17.8044 259.016C18.027 259.032 18.3459 259.056 18.7616 259.088L18.8383 258.091C18.0249 258.028 17.5453 257.993 17.456 257.993L17.456 258.993ZM18.3 258.589L18.3 271.613L19.3 271.613L19.3 258.589L18.3 258.589ZM18.9074 272.102C20.0931 271.841 21.0441 271.216 21.7362 270.238L20.9198 269.661C20.3746 270.431 19.6402 270.916 18.6926 271.125L18.9074 272.102ZM21.7362 270.238C22.4264 269.262 22.756 268.067 22.756 266.685L21.756 266.685C21.756 267.906 21.4669 268.887 20.9198 269.661L21.7362 270.238ZM22.756 266.685C22.756 265.743 22.6214 264.892 22.3402 264.142L21.4038 264.493C21.6346 265.108 21.756 265.836 21.756 266.685L22.756 266.685ZM22.3372 264.134C22.0336 263.363 21.569 262.658 20.9519 262.018L20.2321 262.712C20.767 263.267 21.1557 263.863 21.4068 264.501L22.3372 264.134ZM20.931 262.733L23.811 260.077L23.133 259.342L20.253 261.998L20.931 262.733ZM23.1431 260.086C24.8629 261.588 25.756 263.802 25.756 266.813L26.756 266.813C26.756 263.595 25.7931 261.073 23.8009 259.333L23.1431 260.086ZM25.756 266.813C25.756 268.69 25.3955 270.328 24.6888 271.742L25.5832 272.189C26.3698 270.616 26.756 268.82 26.756 266.813L25.756 266.813ZM24.6914 271.737C23.9627 273.153 22.9687 274.234 21.7097 274.993L22.2262 275.849C23.6553 274.987 24.7733 273.764 25.5806 272.194L24.6914 271.737ZM21.7097 274.993C20.4504 275.753 19.0159 276.137 17.392 276.137L17.392 277.137C19.1815 277.137 20.7976 276.711 22.2262 275.849L21.7097 274.993ZM17.392 276.137C15.7882 276.137 14.3622 275.763 13.1012 275.022L12.5948 275.884C14.0218 276.722 15.6251 277.137 17.392 277.137L17.392 276.137ZM13.1033 275.023C11.8153 274.259 10.8235 273.226 10.1202 271.92L9.23976 272.394C10.0298 273.862 11.1501 275.027 12.5927 275.883L13.1033 275.023ZM10.1189 271.918C9.39408 270.589 9.028 269.104 9.028 267.453L8.028 267.453C8.028 269.258 8.42992 270.91 9.24105 272.397L10.1189 271.918ZM9.028 267.453C9.028 265.842 9.37398 264.399 10.0576 263.112L9.17444 262.643C8.40734 264.087 8.028 265.694 8.028 267.453L9.028 267.453ZM10.0576 263.112C10.7374 261.832 11.714 260.835 12.9971 260.113L12.5069 259.241C11.0593 260.056 9.94528 261.192 9.17444 262.643L10.0576 263.112ZM13.0052 260.108C14.2616 259.371 15.7395 258.993 17.456 258.993L17.456 257.993C15.5885 257.993 13.9304 258.405 12.4988 259.246L13.0052 260.108ZM11.804 267.421C11.804 268.653 12.1552 269.72 12.8799 270.589L13.6481 269.949C13.0928 269.283 12.804 268.451 12.804 267.421L11.804 267.421ZM12.8799 270.589C13.6076 271.463 14.598 271.985 15.812 272.171L15.964 271.183C14.9593 271.028 14.2004 270.612 13.6481 269.949L12.8799 270.589ZM16.388 271.677L16.388 263.197L15.388 263.197L15.388 271.677L16.388 271.677ZM15.8105 262.703C14.6157 262.891 13.6377 263.414 12.9119 264.285L13.6801 264.925C14.2343 264.26 14.9843 263.845 15.9655 263.691L15.8105 262.703ZM12.9171 264.279C12.17 265.147 11.804 266.204 11.804 267.421L12.804 267.421C12.804 266.419 13.0993 265.6 13.6749 264.932L12.9171 264.279ZM25.136 250.53L25.578 250.764L25.5819 250.756L25.136 250.53ZM21.968 253.954L22.2263 254.382L22.2312 254.379L21.968 253.954ZM12.816 253.954L12.5528 254.379L12.5577 254.382L12.816 253.954ZM9.67999 250.53L10.1246 250.301L10.1233 250.298L9.67999 250.53ZM9.67999 240.834L10.1142 241.082L10.1187 241.074L9.67999 240.834ZM12.912 237.858L13.3525 237.621L13.1338 237.214L12.7109 237.4L12.912 237.858ZM14.992 241.73L15.2388 242.165L15.6636 241.923L15.4325 241.493L14.992 241.73ZM13.904 248.834L13.5504 249.187L13.904 248.834ZM19.792 241.73L19.353 241.49L19.1152 241.926L19.5497 242.167L19.792 241.73ZM21.904 237.858L22.1104 237.402L21.6874 237.211L21.465 237.618L21.904 237.858ZM25.104 240.834L24.6682 241.079L24.6699 241.082L25.104 240.834ZM25.756 245.57C25.756 247.335 25.3974 248.909 24.6901 250.304L25.5819 250.756C26.3679 249.206 26.756 247.474 26.756 245.57L25.756 245.57ZM24.6941 250.296C23.966 251.671 22.9704 252.745 21.7048 253.529L22.2312 254.379C23.6536 253.498 24.77 252.29 25.5779 250.764L24.6941 250.296ZM21.7097 253.526C20.4504 254.285 19.0159 254.67 17.392 254.67L17.392 255.67C19.1815 255.67 20.7975 255.244 22.2262 254.382L21.7097 253.526ZM17.392 254.67C15.7681 254.67 14.3335 254.285 13.0742 253.526L12.5577 254.382C13.9864 255.244 15.6025 255.67 17.392 255.67L17.392 254.67ZM13.0792 253.529C11.8149 252.746 10.8311 251.674 10.1246 250.301L9.23543 250.759C10.0222 252.287 11.1291 253.498 12.5528 254.379L13.0792 253.529ZM10.1233 250.298C9.39633 248.905 9.028 247.332 9.028 245.57L8.028 245.57C8.028 247.476 8.42766 249.21 9.2367 250.761L10.1233 250.298ZM9.028 245.57C9.028 243.828 9.39618 242.338 10.1141 241.082L9.24587 240.586C8.42781 242.017 8.028 243.684 8.028 245.57L9.028 245.57ZM10.1187 241.074C10.8131 239.804 11.8075 238.889 13.1131 238.316L12.7109 237.4C11.2005 238.064 10.0403 239.133 9.24131 240.594L10.1187 241.074ZM12.4715 238.094L14.5515 241.966L15.4325 241.493L13.3525 237.621L12.4715 238.094ZM14.7452 241.295C13.0248 242.271 12.124 243.72 12.124 245.602L13.124 245.602C13.124 244.113 13.8019 242.98 15.2388 242.165L14.7452 241.295ZM12.124 245.602C12.124 247.024 12.5955 248.232 13.5504 249.187L14.2575 248.48C13.5058 247.728 13.124 246.782 13.124 245.602L12.124 245.602ZM13.5504 249.187C14.5174 250.154 15.8184 250.614 17.392 250.614L17.392 249.614C16.0216 249.614 14.9972 249.22 14.2575 248.48L13.5504 249.187ZM17.392 250.614C18.9656 250.614 20.2666 250.154 21.2335 249.187L20.5264 248.48C19.7867 249.22 18.7624 249.614 17.392 249.614L17.392 250.614ZM21.2335 249.187C22.1885 248.232 22.66 247.024 22.66 245.602L21.66 245.602C21.66 246.782 21.2782 247.728 20.5264 248.48L21.2335 249.187ZM22.66 245.602C22.66 244.668 22.4432 243.826 21.9945 243.093C21.5468 242.361 20.8847 241.764 20.0343 241.292L19.5497 242.167C20.278 242.571 20.7999 243.056 21.1414 243.615C21.4821 244.172 21.66 244.828 21.66 245.602L22.66 245.602ZM20.2309 241.969L22.3429 238.097L21.465 237.618L19.353 241.49L20.2309 241.969ZM21.6976 238.313C22.9615 238.886 23.9499 239.802 24.6682 241.079L25.5398 240.589C24.7221 239.135 23.5772 238.067 22.1104 237.402L21.6976 238.313ZM24.6699 241.082C25.3878 242.338 25.756 243.828 25.756 245.57L26.756 245.57C26.756 243.684 26.3562 242.017 25.5381 240.586L24.6699 241.082ZM25.168 222.35L25.5701 222.052L25.3444 221.747L24.9896 221.882L25.168 222.35ZM26 224.173L26.486 224.056L26.4833 224.046L26 224.173ZM24.688 231.182L25.0519 231.524L25.0551 231.521L24.688 231.182ZM13.008 232.845L13.008 232.345L12.508 232.345L12.508 232.845L13.008 232.845ZM13.008 235.502L13.008 236.002L13.508 236.002L13.508 235.502L13.008 235.502ZM9.16799 235.502L8.66799 235.502L8.66799 236.002L9.16799 236.002L9.16799 235.502ZM9.16799 232.845L9.66799 232.845L9.66799 232.345L9.16799 232.345L9.16799 232.845ZM4.97599 232.845L4.47599 232.845L4.47599 233.345L4.97599 233.345L4.97599 232.845ZM4.97599 227.853L4.97599 227.353L4.47599 227.353L4.47599 227.853L4.97599 227.853ZM9.16799 227.853L9.16799 228.353L9.66799 228.353L9.66799 227.853L9.16799 227.853ZM9.16799 223.566L9.16799 223.066L8.66799 223.066L8.66799 223.566L9.16799 223.566ZM13.008 223.566L13.508 223.566L13.508 223.066L13.008 223.066L13.008 223.566ZM13.008 227.853L12.508 227.853L12.508 228.353L13.008 228.353L13.008 227.853ZM21.712 227.31L22.0454 227.682L22.0557 227.673L22.0655 227.663L21.712 227.31ZM21.648 223.693L21.4696 223.226L20.8422 223.466L21.2517 223.998L21.648 223.693ZM24.7659 222.647C25.0835 223.076 25.3372 223.624 25.5166 224.301L26.4833 224.046C26.2788 223.273 25.9778 222.604 25.5701 222.052L24.7659 222.647ZM25.5141 224.291C25.6746 224.953 25.756 225.66 25.756 226.413L26.756 226.413C26.756 225.588 26.6667 224.802 26.4859 224.056L25.5141 224.291ZM25.756 226.413C25.756 228.378 25.2558 229.831 24.3209 230.842L25.0551 231.521C26.2109 230.271 26.756 228.545 26.756 226.413L25.756 226.413ZM24.3241 230.839C23.4015 231.818 22.0163 232.345 20.08 232.345L20.08 233.345C22.197 233.345 23.8839 232.764 25.0519 231.524L24.3241 230.839ZM20.08 232.345L13.008 232.345L13.008 233.345L20.08 233.345L20.08 232.345ZM12.508 232.845L12.508 235.502L13.508 235.502L13.508 232.845L12.508 232.845ZM13.008 235.002L9.16799 235.002L9.16799 236.002L13.008 236.002L13.008 235.002ZM9.66799 235.502L9.66799 232.845L8.66799 232.845L8.66799 235.502L9.66799 235.502ZM9.16799 232.345L4.97599 232.345L4.97599 233.345L9.16799 233.345L9.16799 232.345ZM5.47599 232.845L5.47599 227.853L4.47599 227.853L4.47599 232.845L5.47599 232.845ZM4.97599 228.353L9.16799 228.353L9.16799 227.353L4.97599 227.353L4.97599 228.353ZM9.66799 227.853L9.66799 223.566L8.66799 223.566L8.66799 227.853L9.66799 227.853ZM9.16799 224.065L13.008 224.065L13.008 223.066L9.16799 223.066L9.16799 224.065ZM12.508 223.566L12.508 227.853L13.508 227.853L13.508 223.566L12.508 223.566ZM13.008 228.353L20.016 228.353L20.016 227.353L13.008 227.353L13.008 228.353ZM20.016 228.353C20.8226 228.353 21.5214 228.151 22.0454 227.682L21.3786 226.937C21.0919 227.193 20.66 227.353 20.016 227.353L20.016 228.353ZM22.0655 227.663C22.566 227.163 22.788 226.489 22.788 225.71L21.788 225.71C21.788 226.296 21.626 226.688 21.3584 226.956L22.0655 227.663ZM22.788 225.71C22.788 224.825 22.5467 224.042 22.0443 223.389L21.2517 223.998C21.6026 224.455 21.788 225.016 21.788 225.71L22.788 225.71ZM21.8263 224.161L25.3463 222.817L24.9896 221.882L21.4696 223.226L21.8263 224.161ZM9.64799 193.397L10.0818 193.646L10.0864 193.637L9.64799 193.397ZM12.752 190.293L12.9948 190.73L12.9978 190.728L12.752 190.293ZM22.064 190.293L22.3098 189.857L22.3068 189.856L22.064 190.293ZM25.168 193.397L25.6047 193.153L25.6034 193.151L25.168 193.397ZM24.176 202.933L23.8399 202.563L22.8812 203.433L24.176 203.433L24.176 202.933ZM32.208 202.933L32.708 202.933L32.708 202.433L32.208 202.433L32.208 202.933ZM32.208 207.925L32.208 208.425L32.708 208.425L32.708 207.925L32.208 207.925ZM8.78399 207.925L8.28399 207.925L8.28399 208.425L8.78399 208.425L8.78399 207.925ZM8.78399 203.157L8.78399 202.657L8.28399 202.657L8.28399 203.157L8.78399 203.157ZM10.768 203.157L10.768 203.657L12.1551 203.657L11.087 202.772L10.768 203.157ZM20.88 195.477L20.5354 195.839L20.5356 195.839L20.88 195.477ZM13.936 195.477L14.276 195.844L14.285 195.835L13.936 195.477ZM13.936 201.781L13.5914 202.143L13.5916 202.143L13.936 201.781ZM20.88 201.781L21.22 202.148L21.229 202.139L20.88 201.781ZM9.02799 197.749C9.02799 196.23 9.38136 194.866 10.0817 193.646L9.21431 193.148C8.42129 194.53 8.02799 196.067 8.02799 197.749L9.02799 197.749ZM10.0864 193.637C10.7655 192.399 11.7316 191.432 12.9948 190.73L12.5092 189.856C11.0844 190.647 9.98118 191.749 9.20959 193.156L10.0864 193.637ZM12.9978 190.728C14.2338 190.03 15.6931 189.673 17.392 189.673L17.392 188.673C15.5496 188.673 13.9155 189.062 12.5062 189.857L12.9978 190.728ZM17.392 189.673C19.0907 189.673 20.5621 190.03 21.8212 190.73L22.3068 189.856C20.8779 189.062 19.2346 188.673 17.392 188.673L17.392 189.673ZM21.8182 190.728C23.0616 191.43 24.0307 192.399 24.7326 193.643L25.6034 193.151C24.812 191.749 23.7117 190.649 22.3098 189.857L21.8182 190.728ZM24.7313 193.64C25.412 194.862 25.756 196.227 25.756 197.749L26.756 197.749C26.756 196.07 26.3746 194.535 25.6047 193.153L24.7313 193.64ZM25.756 197.749C25.756 199.832 25.1039 201.415 23.8399 202.563L24.512 203.303C26.0214 201.933 26.756 200.06 26.756 197.749L25.756 197.749ZM24.176 203.433L32.208 203.433L32.208 202.433L24.176 202.433L24.176 203.433ZM31.708 202.933L31.708 207.925L32.708 207.925L32.708 202.933L31.708 202.933ZM32.208 207.425L8.78399 207.425L8.78399 208.425L32.208 208.425L32.208 207.425ZM9.28399 207.925L9.28399 203.157L8.28399 203.157L8.28399 207.925L9.28399 207.925ZM8.78399 203.657L10.768 203.657L10.768 202.657L8.78399 202.657L8.78399 203.657ZM11.087 202.772C9.7335 201.65 9.02799 200.004 9.02799 197.749L8.02799 197.749C8.02799 200.229 8.81582 202.189 10.449 203.542L11.087 202.772ZM22.66 198.613C22.66 197.209 22.1863 196.028 21.2244 195.114L20.5356 195.839C21.2803 196.547 21.66 197.456 21.66 198.613L22.66 198.613ZM21.2246 195.114C20.2388 194.177 18.9435 193.729 17.392 193.729L17.392 194.729C18.7418 194.729 19.7718 195.113 20.5354 195.839L21.2246 195.114ZM17.392 193.729C15.841 193.729 14.5532 194.177 13.5869 195.119L14.285 195.835C15.0255 195.113 16.0417 194.729 17.392 194.729L17.392 193.729ZM13.5961 195.11C12.6113 196.023 12.124 197.205 12.124 198.613L13.124 198.613C13.124 197.461 13.5114 196.552 14.2759 195.843L13.5961 195.11ZM12.124 198.613C12.124 200.02 12.611 201.21 13.5914 202.143L14.2806 201.418C13.5117 200.687 13.124 199.765 13.124 198.613L12.124 198.613ZM13.5916 202.143C14.5584 203.062 15.8445 203.497 17.392 203.497L17.392 202.497C16.0381 202.497 15.0203 202.121 14.2804 201.418L13.5916 202.143ZM17.392 203.497C18.94 203.497 20.2336 203.062 21.2199 202.147L20.5401 201.414C19.777 202.121 18.7454 202.497 17.392 202.497L17.392 203.497ZM21.229 202.139C22.1865 201.205 22.66 200.016 22.66 198.613L21.66 198.613C21.66 199.769 21.2801 200.692 20.5309 201.423L21.229 202.139ZM11.056 179.783L11.056 180.283L12.6098 180.283L11.3476 179.377L11.056 179.783ZM9.16799 177.383L8.70644 177.575L8.70791 177.579L9.16799 177.383ZM8.52799 173.863L8.52799 173.363L8.02799 173.363L8.02799 173.863L8.52799 173.863ZM13.136 173.863L13.6345 173.901L13.6759 173.363L13.136 173.363L13.136 173.863ZM14.288 178.343L14.6463 177.994L14.6415 177.989L14.288 178.343ZM26 179.559L26.5 179.559L26.5 179.059L26 179.059L26 179.559ZM26 184.551L26 185.051L26.5 185.051L26.5 184.551L26 184.551ZM8.78399 184.551L8.28399 184.551L8.28399 185.051L8.78399 185.051L8.78399 184.551ZM8.78399 179.783L8.78399 179.283L8.28399 179.283L8.28399 179.783L8.78399 179.783ZM11.3476 179.377C10.5947 178.836 10.0213 178.111 9.62807 177.187L8.70791 177.579C9.16804 178.66 9.85323 179.535 10.7644 180.189L11.3476 179.377ZM9.62953 177.191C9.23264 176.238 9.02799 175.132 9.02799 173.863L8.02799 173.863C8.02799 175.239 8.25001 176.48 8.70645 177.575L9.62953 177.191ZM8.52799 174.363L13.136 174.363L13.136 173.363L8.52799 173.363L8.52799 174.363ZM12.6375 173.825C12.595 174.377 12.572 174.769 12.572 174.983L13.572 174.983C13.572 174.813 13.5916 174.459 13.6345 173.901L12.6375 173.825ZM12.572 174.983C12.572 176.51 13.0081 177.77 13.9344 178.697L14.6415 177.989C13.9466 177.294 13.572 176.314 13.572 174.983L12.572 174.983ZM13.9298 178.692C14.8465 179.633 16.1938 180.059 17.872 180.059L17.872 179.059C16.3502 179.059 15.3081 178.674 14.6462 177.994L13.9298 178.692ZM17.872 180.059L26 180.059L26 179.059L17.872 179.059L17.872 180.059ZM25.5 179.559L25.5 184.551L26.5 184.551L26.5 179.559L25.5 179.559ZM26 184.051L8.78399 184.051L8.78399 185.051L26 185.051L26 184.051ZM9.28399 184.551L9.28399 179.783L8.28399 179.783L8.28399 184.551L9.28399 184.551ZM8.78399 180.283L11.056 180.283L11.056 179.283L8.78399 179.283L8.78399 180.283ZM25.136 166.475L25.5765 166.712L25.5806 166.704L25.136 166.475ZM21.968 169.835L22.2262 170.263L21.968 169.835ZM12.816 169.835L12.5577 170.263L12.816 169.835ZM9.67999 166.475L10.1232 166.243L10.1219 166.241L9.67999 166.475ZM9.67999 156.715L10.1205 156.952L10.1232 156.947L9.67999 156.715ZM12.816 153.355L12.5577 152.927L12.816 153.355ZM21.968 153.355L22.2262 152.927L21.968 153.355ZM25.136 156.715L25.5792 156.483L25.5764 156.478L25.136 156.715ZM20.88 158.443L20.5354 158.805L20.5356 158.805L20.88 158.443ZM13.936 158.443L14.276 158.81L14.285 158.801L13.936 158.443ZM13.936 164.747L14.2851 164.389L14.2806 164.385L13.936 164.747ZM20.88 164.747L21.2246 165.109L21.229 165.105L20.88 164.747ZM25.756 161.579C25.756 163.322 25.3978 164.874 24.6914 166.246L25.5806 166.704C26.3676 165.175 26.756 163.463 26.756 161.579L25.756 161.579ZM24.6955 166.238C23.9685 167.591 22.9743 168.644 21.7097 169.407L22.2262 170.263C23.6497 169.405 24.7675 168.217 25.5764 166.712L24.6955 166.238ZM21.7097 169.407C20.4504 170.166 19.0159 170.551 17.392 170.551L17.392 171.551C19.1814 171.551 20.7975 171.125 22.2262 170.263L21.7097 169.407ZM17.392 170.551C15.7681 170.551 14.3335 170.166 13.0742 169.407L12.5577 170.263C13.9864 171.125 15.6025 171.551 17.392 171.551L17.392 170.551ZM13.0742 169.407C11.811 168.645 10.8286 167.594 10.1232 166.243L9.23682 166.707C10.0247 168.215 11.133 169.404 12.5577 170.263L13.0742 169.407ZM10.1219 166.241C9.39592 164.87 9.02799 163.319 9.02799 161.579L8.02799 161.579C8.02799 163.465 8.42807 165.179 9.2381 166.709L10.1219 166.241ZM9.02799 161.579C9.02799 159.838 9.39595 158.3 10.1204 156.952L9.23954 156.478C8.42803 157.989 8.02799 159.693 8.02799 161.579L9.02799 161.579ZM10.1232 156.947C10.8286 155.596 11.811 154.545 13.0742 153.783L12.5577 152.927C11.133 153.786 10.0247 154.975 9.23682 156.483L10.1232 156.947ZM13.0742 153.783C14.3335 153.024 15.7681 152.639 17.392 152.639L17.392 151.639C15.6025 151.639 13.9864 152.065 12.5577 152.927L13.0742 153.783ZM17.392 152.639C19.0159 152.639 20.4504 153.024 21.7097 153.783L22.2262 152.927C20.7975 152.065 19.1814 151.639 17.392 151.639L17.392 152.639ZM21.7097 153.783C22.9743 154.546 23.9685 155.599 24.6955 156.952L25.5764 156.478C24.7675 154.973 23.6497 153.785 22.2262 152.927L21.7097 153.783ZM24.6928 156.947C25.3977 158.296 25.756 159.836 25.756 161.579L26.756 161.579C26.756 159.695 26.3676 157.993 25.5792 156.483L24.6928 156.947ZM22.66 161.579C22.66 160.175 22.1863 158.994 21.2244 158.08L20.5356 158.805C21.2803 159.513 21.66 160.423 21.66 161.579L22.66 161.579ZM21.2246 158.081C20.2388 157.143 18.9435 156.695 17.392 156.695L17.392 157.695C18.7418 157.695 19.7718 158.079 20.5354 158.805L21.2246 158.081ZM17.392 156.695C15.841 156.695 14.5532 157.143 13.5869 158.085L14.285 158.801C15.0255 158.079 16.0417 157.695 17.392 157.695L17.392 156.695ZM13.5961 158.076C12.6113 158.989 12.124 160.171 12.124 161.579L13.124 161.579C13.124 160.427 13.5114 159.518 14.2759 158.81L13.5961 158.076ZM12.124 161.579C12.124 162.987 12.611 164.177 13.5914 165.109L14.2806 164.385C13.5117 163.653 13.124 162.731 13.124 161.579L12.124 161.579ZM13.5869 165.105C14.5532 166.047 15.841 166.495 17.392 166.495L17.392 165.495C16.0417 165.495 15.0255 165.111 14.285 164.389L13.5869 165.105ZM17.392 166.495C18.9435 166.495 20.2388 166.047 21.2246 165.109L20.5354 164.385C19.7718 165.111 18.7418 165.495 17.392 165.495L17.392 166.495ZM21.229 165.105C22.1865 164.171 22.66 162.983 22.66 161.579L21.66 161.579C21.66 162.735 21.2801 163.659 20.5309 164.389L21.229 165.105ZM9.64799 132.994L10.0818 133.243L10.0864 133.235L9.64799 132.994ZM12.752 129.89L12.9948 130.327L12.9978 130.326L12.752 129.89ZM22.064 129.89L22.3098 129.455L22.3068 129.453L22.064 129.89ZM25.168 132.994L25.6047 132.751L25.6034 132.748L25.168 132.994ZM24.176 142.53L23.8399 142.16L22.8812 143.03L24.176 143.03L24.176 142.53ZM32.208 142.53L32.708 142.53L32.708 142.03L32.208 142.03L32.208 142.53ZM32.208 147.522L32.208 148.022L32.708 148.022L32.708 147.522L32.208 147.522ZM8.78399 147.522L8.28399 147.522L8.28399 148.022L8.78399 148.022L8.78399 147.522ZM8.78399 142.754L8.78399 142.254L8.28399 142.254L8.28399 142.754L8.78399 142.754ZM10.768 142.754L10.768 143.254L12.1551 143.254L11.087 142.369L10.768 142.754ZM20.88 135.074L20.5354 135.437L20.5356 135.437L20.88 135.074ZM13.936 135.074L14.276 135.441L14.285 135.432L13.936 135.074ZM13.936 141.378L13.5914 141.741L13.5916 141.741L13.936 141.378ZM20.88 141.378L21.22 141.745L21.229 141.736L20.88 141.378ZM9.02799 137.346C9.02799 135.828 9.38135 134.464 10.0817 133.243L9.21431 132.745C8.42129 134.128 8.02799 135.665 8.02799 137.346L9.02799 137.346ZM10.0864 133.235C10.7655 131.996 11.7316 131.029 12.9948 130.327L12.5092 129.453C11.0844 130.245 9.98117 131.347 9.20958 132.754L10.0864 133.235ZM12.9978 130.326C14.2338 129.628 15.6931 129.27 17.392 129.27L17.392 128.27C15.5496 128.27 13.9155 128.659 12.5062 129.455L12.9978 130.326ZM17.392 129.27C19.0907 129.27 20.5621 129.628 21.8212 130.327L22.3068 129.453C20.8779 128.659 19.2346 128.27 17.392 128.27L17.392 129.27ZM21.8182 130.326C23.0616 131.028 24.0307 131.997 24.7326 133.24L25.6034 132.748C24.812 131.346 23.7117 130.246 22.3098 129.455L21.8182 130.326ZM24.7313 133.238C25.412 134.459 25.756 135.825 25.756 137.346L26.756 137.346C26.756 135.668 26.3746 134.132 25.6047 132.751L24.7313 133.238ZM25.756 137.346C25.756 139.429 25.1039 141.013 23.8399 142.16L24.512 142.9C26.0214 141.53 26.756 139.658 26.756 137.346L25.756 137.346ZM24.176 143.03L32.208 143.03L32.208 142.03L24.176 142.03L24.176 143.03ZM31.708 142.53L31.708 147.522L32.708 147.522L32.708 142.53L31.708 142.53ZM32.208 147.022L8.78399 147.022L8.78399 148.022L32.208 148.022L32.208 147.022ZM9.28399 147.522L9.28399 142.754L8.28399 142.754L8.28399 147.522L9.28399 147.522ZM8.78399 143.254L10.768 143.254L10.768 142.254L8.78399 142.254L8.78399 143.254ZM11.087 142.369C9.7335 141.248 9.02799 139.602 9.02799 137.346L8.02799 137.346C8.02799 139.827 8.81582 141.786 10.449 143.139L11.087 142.369ZM22.66 138.21C22.66 136.807 22.1863 135.626 21.2244 134.712L20.5356 135.437C21.2803 136.144 21.66 137.054 21.66 138.21L22.66 138.21ZM21.2246 134.712C20.2388 133.774 18.9435 133.326 17.392 133.326L17.392 134.326C18.7418 134.326 19.7718 134.71 20.5354 135.437L21.2246 134.712ZM17.392 133.326C15.841 133.326 14.5532 133.774 13.5869 134.716L14.285 135.432C15.0255 134.71 16.0417 134.326 17.392 134.326L17.392 133.326ZM13.5961 134.708C12.6113 135.62 12.124 136.802 12.124 138.21L13.124 138.21C13.124 137.058 13.5114 136.15 14.2759 135.441L13.5961 134.708ZM12.124 138.21C12.124 139.618 12.611 140.808 13.5914 141.741L14.2806 141.016C13.5117 140.285 13.124 139.363 13.124 138.21L12.124 138.21ZM13.5916 141.741C14.5584 142.659 15.8445 143.094 17.392 143.094L17.392 142.094C16.0381 142.094 15.0203 141.719 14.2804 141.016L13.5916 141.741ZM17.392 143.094C18.94 143.094 20.2336 142.659 21.2199 141.745L20.5401 141.012C19.777 141.719 18.7454 142.094 17.392 142.094L17.392 143.094ZM21.229 141.736C22.1865 140.803 22.66 139.614 22.66 138.21L21.66 138.21C21.66 139.367 21.2801 140.29 20.5309 141.02L21.229 141.736ZM25.136 120.852L25.5765 121.089L25.5806 121.081L25.136 120.852ZM21.968 124.212L22.2262 124.641L21.968 124.212ZM12.816 124.212L12.5577 124.641L12.816 124.212ZM9.67999 120.852L10.1232 120.621L10.1219 120.619L9.67999 120.852ZM9.67999 111.092L10.1205 111.329L10.1232 111.324L9.67999 111.092ZM12.816 107.732L12.5577 107.304L12.816 107.732ZM21.968 107.732L22.2262 107.304L21.968 107.732ZM25.136 111.092L25.5792 110.861L25.5764 110.856L25.136 111.092ZM20.88 112.82L20.5354 113.183L20.5356 113.183L20.88 112.82ZM13.936 112.82L14.276 113.187L14.285 113.178L13.936 112.82ZM13.936 119.124L14.2851 118.766L14.2806 118.762L13.936 119.124ZM20.88 119.124L21.2246 119.487L21.229 119.482L20.88 119.124ZM25.756 115.956C25.756 117.699 25.3978 119.251 24.6914 120.624L25.5806 121.081C26.3676 119.552 26.756 117.84 26.756 115.956L25.756 115.956ZM24.6955 120.616C23.9685 121.969 22.9743 123.022 21.7097 123.784L22.2262 124.641C23.6497 123.782 24.7675 122.595 25.5764 121.089L24.6955 120.616ZM21.7097 123.784C20.4504 124.544 19.0159 124.928 17.392 124.928L17.392 125.928C19.1814 125.928 20.7975 125.502 22.2262 124.641L21.7097 123.784ZM17.392 124.928C15.7681 124.928 14.3335 124.544 13.0742 123.784L12.5577 124.641C13.9864 125.502 15.6025 125.928 17.392 125.928L17.392 124.928ZM13.0742 123.784C11.811 123.022 10.8286 121.971 10.1232 120.621L9.23681 121.084C10.0247 122.592 11.133 123.781 12.5577 124.641L13.0742 123.784ZM10.1219 120.619C9.39591 119.247 9.02799 117.697 9.02799 115.956L8.02799 115.956C8.02799 117.843 8.42806 119.556 9.23809 121.086L10.1219 120.619ZM9.02799 115.956C9.02799 114.216 9.39595 112.678 10.1204 111.329L9.23954 110.856C8.42803 112.366 8.02799 114.07 8.02799 115.956L9.02799 115.956ZM10.1232 111.324C10.8286 109.974 11.811 108.923 13.0742 108.161L12.5577 107.304C11.133 108.164 10.0247 109.353 9.23681 110.861L10.1232 111.324ZM13.0742 108.161C14.3335 107.401 15.7681 107.016 17.392 107.016L17.392 106.016C15.6025 106.016 13.9864 106.443 12.5577 107.304L13.0742 108.161ZM17.392 107.016C19.0159 107.016 20.4504 107.401 21.7097 108.161L22.2262 107.304C20.7975 106.443 19.1814 106.016 17.392 106.016L17.392 107.016ZM21.7097 108.161C22.9743 108.923 23.9685 109.976 24.6955 111.329L25.5764 110.856C24.7675 109.35 23.6497 108.163 22.2262 107.304L21.7097 108.161ZM24.6928 111.324C25.3977 112.673 25.756 114.214 25.756 115.956L26.756 115.956C26.756 114.073 26.3676 112.37 25.5792 110.861L24.6928 111.324ZM22.66 115.956C22.66 114.553 22.1863 113.372 21.2244 112.458L20.5356 113.183C21.2803 113.89 21.66 114.8 21.66 115.956L22.66 115.956ZM21.2246 112.458C20.2388 111.521 18.9435 111.072 17.392 111.072L17.392 112.072C18.7418 112.072 19.7718 112.456 20.5354 113.183L21.2246 112.458ZM17.392 111.072C15.841 111.072 14.5532 111.52 13.5869 112.462L14.285 113.178C15.0255 112.457 16.0417 112.072 17.392 112.072L17.392 111.072ZM13.5961 112.454C12.6113 113.367 12.124 114.549 12.124 115.956L13.124 115.956C13.124 114.804 13.5114 113.896 14.2759 113.187L13.5961 112.454ZM12.124 115.956C12.124 117.364 12.611 118.554 13.5914 119.487L14.2806 118.762C13.5117 118.031 13.124 117.109 13.124 115.956L12.124 115.956ZM13.5869 119.482C14.5532 120.425 15.841 120.872 17.392 120.872L17.392 119.872C16.0417 119.872 15.0255 119.488 14.285 118.766L13.5869 119.482ZM17.392 120.872C18.9435 120.872 20.2388 120.424 21.2246 119.487L20.5354 118.762C19.7718 119.489 18.7418 119.872 17.392 119.872L17.392 120.872ZM21.229 119.482C22.1865 118.549 22.66 117.36 22.66 115.956L21.66 115.956C21.66 117.113 21.2801 118.036 20.5309 118.766L21.229 119.482ZM11.056 97.1317L11.056 97.6317L12.6097 97.6317L11.3476 96.7256L11.056 97.1317ZM9.16799 94.7317L8.70644 94.9241L8.70791 94.9275L9.16799 94.7317ZM8.52799 91.2118L8.52799 90.7118L8.02799 90.7118L8.02799 91.2118L8.52799 91.2118ZM13.136 91.2118L13.6345 91.2501L13.6759 90.7118L13.136 90.7118L13.136 91.2118ZM14.288 95.6917L14.6463 95.3429L14.6415 95.3382L14.288 95.6917ZM26 96.9077L26.5 96.9077L26.5 96.4077L26 96.4077L26 96.9077ZM26 101.9L26 102.4L26.5 102.4L26.5 101.9L26 101.9ZM8.78399 101.9L8.28399 101.9L8.28399 102.4L8.78399 102.4L8.78399 101.9ZM8.78399 97.1317L8.78399 96.6317L8.28399 96.6317L8.28399 97.1317L8.78399 97.1317ZM11.3476 96.7256C10.5947 96.1851 10.0213 95.46 9.62807 94.536L8.70791 94.9275C9.16803 96.0088 9.85323 96.8837 10.7644 97.5379L11.3476 96.7256ZM9.62953 94.5394C9.23264 93.5869 9.02799 92.4809 9.02799 91.2118L8.02799 91.2118C8.02799 92.588 8.25001 93.8286 8.70645 94.9241L9.62953 94.5394ZM8.52799 91.7118L13.136 91.7118L13.136 90.7118L8.52799 90.7118L8.52799 91.7118ZM12.6375 91.1734C12.595 91.7254 12.572 92.1175 12.572 92.3318L13.572 92.3318C13.572 92.162 13.5916 91.8075 13.6345 91.2501L12.6375 91.1734ZM12.572 92.3318C12.572 93.8591 13.0081 95.119 13.9344 96.0453L14.6415 95.3382C13.9466 94.6432 13.572 93.6631 13.572 92.3318L12.572 92.3318ZM13.9298 96.0406C14.8465 96.9821 16.1938 97.4077 17.872 97.4077L17.872 96.4077C16.3502 96.4077 15.3081 96.0227 14.6462 95.343L13.9298 96.0406ZM17.872 97.4077L26 97.4077L26 96.4077L17.872 96.4077L17.872 97.4077ZM25.5 96.9077L25.5 101.9L26.5 101.9L26.5 96.9077L25.5 96.9077ZM26 101.4L8.78399 101.4L8.78399 102.4L26 102.4L26 101.4ZM9.28399 101.9L9.28399 97.1317L8.28399 97.1317L8.28399 101.9L9.28399 101.9ZM8.78399 97.6317L11.056 97.6317L11.056 96.6317L8.78399 96.6317L8.78399 97.6317ZM25.168 75.2657L25.5701 74.9685L25.3444 74.6632L24.9896 74.7986L25.168 75.2657ZM26 77.0897L26.486 76.9719L26.4833 76.9618L26 77.0897ZM24.688 84.0977L25.0519 84.4406L25.0551 84.4372L24.688 84.0977ZM13.008 85.7617L13.008 85.2617L12.508 85.2617L12.508 85.7617L13.008 85.7617ZM13.008 88.4177L13.008 88.9177L13.508 88.9177L13.508 88.4177L13.008 88.4177ZM9.16799 88.4177L8.66799 88.4177L8.66799 88.9177L9.16799 88.9177L9.16799 88.4177ZM9.16799 85.7617L9.66799 85.7617L9.66799 85.2617L9.16799 85.2617L9.16799 85.7617ZM4.97599 85.7617L4.47599 85.7617L4.47599 86.2617L4.97599 86.2617L4.97599 85.7617ZM4.97599 80.7697L4.97599 80.2697L4.47599 80.2697L4.47599 80.7697L4.97599 80.7697ZM9.16799 80.7697L9.16799 81.2697L9.66799 81.2697L9.66799 80.7697L9.16799 80.7697ZM9.16799 76.4817L9.16799 75.9817L8.66799 75.9817L8.66799 76.4817L9.16799 76.4817ZM13.008 76.4817L13.508 76.4817L13.508 75.9817L13.008 75.9817L13.008 76.4817ZM13.008 80.7697L12.508 80.7697L12.508 81.2697L13.008 81.2697L13.008 80.7697ZM21.712 80.2257L22.0454 80.5984L22.0557 80.5891L22.0655 80.5793L21.712 80.2257ZM21.648 76.6097L21.4696 76.1426L20.8422 76.3822L21.2517 76.9146L21.648 76.6097ZM24.7659 75.5629C25.0835 75.9926 25.3372 76.5398 25.5166 77.2177L26.4833 76.9618C26.2788 76.189 25.9778 75.5202 25.5701 74.9685L24.7659 75.5629ZM25.5141 77.2075C25.6746 77.8697 25.756 78.5766 25.756 79.3297L26.756 79.3297C26.756 78.5042 26.6667 77.7178 26.4859 76.9719L25.5141 77.2075ZM25.756 79.3297C25.756 81.2943 25.2558 82.7471 24.3209 83.7583L25.0551 84.4372C26.2109 83.1871 26.756 81.4611 26.756 79.3297L25.756 79.3297ZM24.3241 83.7548C23.4015 84.734 22.0163 85.2617 20.08 85.2617L20.08 86.2617C22.197 86.2617 23.8839 85.6802 25.0519 84.4406L24.3241 83.7548ZM20.08 85.2617L13.008 85.2617L13.008 86.2617L20.08 86.2617L20.08 85.2617ZM12.508 85.7617L12.508 88.4177L13.508 88.4177L13.508 85.7617L12.508 85.7617ZM13.008 87.9177L9.16799 87.9177L9.16799 88.9177L13.008 88.9177L13.008 87.9177ZM9.66799 88.4177L9.66799 85.7617L8.66799 85.7617L8.66799 88.4177L9.66799 88.4177ZM9.16799 85.2617L4.97599 85.2617L4.97599 86.2617L9.16799 86.2617L9.16799 85.2617ZM5.47599 85.7617L5.47599 80.7697L4.47599 80.7697L4.47599 85.7617L5.47599 85.7617ZM4.97599 81.2697L9.16799 81.2697L9.16799 80.2697L4.97599 80.2697L4.97599 81.2697ZM9.66799 80.7697L9.66799 76.4817L8.66799 76.4817L8.66799 80.7697L9.66799 80.7697ZM9.16799 76.9817L13.008 76.9817L13.008 75.9817L9.16799 75.9817L9.16799 76.9817ZM12.508 76.4817L12.508 80.7697L13.508 80.7697L13.508 76.4817L12.508 76.4817ZM13.008 81.2697L20.016 81.2697L20.016 80.2697L13.008 80.2697L13.008 81.2697ZM20.016 81.2697C20.8226 81.2697 21.5214 81.0671 22.0454 80.5984L21.3786 79.8531C21.0919 80.1096 20.66 80.2697 20.016 80.2697L20.016 81.2697ZM22.0655 80.5793C22.566 80.0789 22.788 79.4051 22.788 78.6257L21.788 78.6257C21.788 79.2117 21.626 79.6046 21.3584 79.8722L22.0655 80.5793ZM22.788 78.6257C22.788 77.741 22.5467 76.958 22.0443 76.3049L21.2517 76.9146C21.6026 77.3708 21.788 77.9319 21.788 78.6257L22.788 78.6257ZM21.8263 77.0768L25.3463 75.7328L24.9896 74.7986L21.4696 76.1426L21.8263 77.0768ZM8.78399 71.1835L8.28399 71.1835L8.28399 71.6835L8.78399 71.6835L8.78399 71.1835ZM8.78399 66.1915L8.78399 65.6915L8.28399 65.6915L8.28399 66.1915L8.78399 66.1915ZM26 66.1915L26.5 66.1915L26.5 65.6915L26 65.6915L26 66.1915ZM26 71.1835L26 71.6835L26.5 71.6835L26.5 71.1835L26 71.1835ZM5.58399 70.9275L5.95087 71.2672L5.58399 70.9275ZM1.61599 70.9275L1.98287 70.5878H1.98287L1.61599 70.9275ZM1.58399 66.4475L1.95769 66.7797L1.95769 66.7797L1.58399 66.4475ZM5.58399 66.4475L5.95094 66.1077L5.94415 66.1007L5.58399 66.4475ZM9.28399 71.1835L9.28399 66.1915L8.28399 66.1915L8.28399 71.1835L9.28399 71.1835ZM8.78399 66.6915L26 66.6915L26 65.6915L8.78399 65.6915L8.78399 66.6915ZM25.5 66.1915L25.5 71.1835L26.5 71.1835L26.5 66.1915L25.5 66.1915ZM26 70.6835L8.78399 70.6835L8.78399 71.6835L26 71.6835L26 70.6835ZM5.88399 68.6875C5.88399 69.5015 5.65062 70.1196 5.21711 70.5878L5.95087 71.2672C6.58402 70.5834 6.88399 69.7081 6.88399 68.6875L5.88399 68.6875ZM5.21711 70.5878C4.779 71.0609 4.25091 71.2915 3.59999 71.2915L3.59999 72.2915C4.52772 72.2915 5.32231 71.946 5.95087 71.2672L5.21711 70.5878ZM3.59999 71.2915C2.94906 71.2915 2.42098 71.0609 1.98287 70.5878L1.24911 71.2672C1.87766 71.946 2.67225 72.2915 3.59999 72.2915L3.59999 71.2915ZM1.98287 70.5878C1.54935 70.1196 1.31599 69.5015 1.31599 68.6875L0.315986 68.6875C0.315986 69.7081 0.615957 70.5834 1.24911 71.2672L1.98287 70.5878ZM1.31599 68.6875C1.31599 67.868 1.54201 67.2473 1.95769 66.7797L1.21028 66.1153C0.60196 66.7997 0.315986 67.6723 0.315986 68.6875L1.31599 68.6875ZM1.95769 66.7797C2.37519 66.31 2.87937 66.0835 3.50399 66.0835L3.50399 65.0835C2.5926 65.0835 1.81679 65.433 1.21028 66.1153L1.95769 66.7797ZM3.50399 66.0835C4.20628 66.0835 4.76761 66.3206 5.22383 66.7943L5.94415 66.1007C5.29103 65.4224 4.4657 65.0835 3.50399 65.0835L3.50399 66.0835ZM5.21711 66.7872C5.65062 67.2554 5.88399 67.8735 5.88399 68.6875L6.88399 68.6875C6.88399 67.6668 6.58402 66.7916 5.95087 66.1078L5.21711 66.7872ZM25.136 56.9825L25.5765 57.2192L25.5806 57.2113L25.136 56.9825ZM21.968 60.3425L22.2262 60.7706L21.968 60.3425ZM12.816 60.3425L12.5577 60.7706L12.816 60.3425ZM9.67999 56.9825L10.1232 56.751L10.1219 56.7485L9.67999 56.9825ZM9.67999 47.2225L10.1205 47.4592L10.1232 47.454L9.67999 47.2225ZM12.816 43.8625L12.5577 43.4344L12.816 43.8625ZM21.968 43.8625L22.2262 43.4344L21.968 43.8625ZM25.136 47.2225L25.5792 46.991L25.5764 46.9858L25.136 47.2225ZM20.88 48.9505L20.5354 49.3128L20.5356 49.313L20.88 48.9505ZM13.936 48.9505L14.276 49.3173L14.285 49.3085L13.936 48.9505ZM13.936 55.2545L14.2851 54.8965L14.2806 54.8922L13.936 55.2545ZM20.88 55.2545L21.2246 55.6168L21.229 55.6125L20.88 55.2545ZM25.756 52.0865C25.756 53.8292 25.3978 55.3814 24.6914 56.7537L25.5806 57.2113C26.3676 55.6823 26.756 53.9704 26.756 52.0865L25.756 52.0865ZM24.6955 56.7458C23.9685 58.0989 22.9743 59.1516 21.7097 59.9143L22.2262 60.7706C23.6497 59.912 24.7675 58.7247 25.5764 57.2191L24.6955 56.7458ZM21.7097 59.9143C20.4504 60.6739 19.0159 61.0585 17.392 61.0585L17.392 62.0585C19.1814 62.0585 20.7975 61.6324 22.2262 60.7706L21.7097 59.9143ZM17.392 61.0585C15.7681 61.0585 14.3335 60.6739 13.0742 59.9143L12.5577 60.7706C13.9864 61.6324 15.6025 62.0585 17.392 62.0585L17.392 61.0585ZM13.0742 59.9143C11.811 59.1524 10.8286 58.1014 10.1232 56.751L9.23681 57.214C10.0247 58.7223 11.133 59.9113 12.5577 60.7706L13.0742 59.9143ZM10.1219 56.7485C9.39591 55.3773 9.02799 53.827 9.02799 52.0865L8.02799 52.0865C8.02799 53.9727 8.42806 55.6864 9.23809 57.2164L10.1219 56.7485ZM9.02799 52.0865C9.02799 50.3459 9.39594 48.8075 10.1204 47.4591L9.23954 46.9858C8.42803 48.4962 8.02799 50.2004 8.02799 52.0865L9.02799 52.0865ZM10.1232 47.454C10.8286 46.1036 11.811 45.0526 13.0742 44.2906L12.5577 43.4344C11.133 44.2937 10.0247 45.4827 9.23681 46.991L10.1232 47.454ZM13.0742 44.2906C14.3335 43.531 15.7681 43.1465 17.392 43.1465L17.392 42.1465C15.6025 42.1465 13.9864 42.5726 12.5577 43.4344L13.0742 44.2906ZM17.392 43.1465C19.0159 43.1465 20.4504 43.531 21.7097 44.2906L22.2262 43.4344C20.7975 42.5726 19.1814 42.1465 17.392 42.1465L17.392 43.1465ZM21.7097 44.2906C22.9743 45.0533 23.9685 46.106 24.6955 47.4591L25.5764 46.9858C24.7675 45.4803 23.6497 44.2929 22.2262 43.4344L21.7097 44.2906ZM24.6928 47.454C25.3977 48.8034 25.756 50.3436 25.756 52.0865L26.756 52.0865C26.756 50.2027 26.3676 48.5003 25.5792 46.991L24.6928 47.454ZM22.66 52.0865C22.66 50.6828 22.1863 49.5019 21.2244 48.588L20.5356 49.313C21.2803 50.0204 21.66 50.9302 21.66 52.0865L22.66 52.0865ZM21.2246 48.5882C20.2388 47.6505 18.9435 47.2025 17.392 47.2025L17.392 48.2025C18.7418 48.2025 19.7718 48.5865 20.5354 49.3128L21.2246 48.5882ZM17.392 47.2025C15.841 47.2025 14.5532 47.6504 13.5869 48.5925L14.285 49.3085C15.0255 48.5865 16.0417 48.2025 17.392 48.2025L17.392 47.2025ZM13.5961 48.5838C12.6113 49.4966 12.124 50.6787 12.124 52.0865L13.124 52.0865C13.124 50.9343 13.5114 50.0258 14.2759 49.3172L13.5961 48.5838ZM12.124 52.0865C12.124 53.4942 12.611 54.6842 13.5914 55.6168L14.2806 54.8922C13.5117 54.1608 13.124 53.2388 13.124 52.0865L12.124 52.0865ZM13.5869 55.6125C14.5532 56.5546 15.841 57.0025 17.392 57.0025L17.392 56.0025C16.0417 56.0025 15.0255 55.6184 14.285 54.8965L13.5869 55.6125ZM17.392 57.0025C18.9435 57.0025 20.2388 56.5544 21.2246 55.6168L20.5354 54.8922C19.7718 55.6185 18.7418 56.0025 17.392 56.0025L17.392 57.0025ZM21.229 55.6125C22.1865 54.6789 22.66 53.4902 22.66 52.0865L21.66 52.0865C21.66 53.2428 21.2801 54.166 20.5309 54.8965L21.229 55.6125ZM10.448 22.4137L10.8045 22.7644L10.8073 22.7614L10.448 22.4137ZM26 20.4297L26.5 20.4297L26.5 19.9297L26 19.9297L26 20.4297ZM26 25.4218L26 25.9218L26.5 25.9218L26.5 25.4218L26 25.4218ZM13.872 26.3177L14.2013 26.6941L14.2071 26.6888L13.872 26.3177ZM14.032 31.9177L14.3806 31.5592L14.3756 31.5545L14.032 31.9177ZM26 33.0377L26.5 33.0377L26.5 32.5377L26 32.5377L26 33.0377ZM26 38.0298L26 38.5298L26.5 38.5298L26.5 38.0298L26 38.0298ZM8.78398 38.0298L8.28398 38.0298L8.28398 38.5298L8.78398 38.5298L8.78398 38.0298ZM8.78398 33.2617L8.78398 32.7617L8.28398 32.7617L8.28398 33.2617L8.78398 33.2617ZM10.8 33.2617L10.8 33.7617L12.0905 33.7617L11.1369 32.8923L10.8 33.2617ZM9.13599 30.7977L9.60169 30.6155L9.59812 30.6069L9.13599 30.7977ZM9.02799 27.5657C9.02799 25.5398 9.63189 23.9565 10.8044 22.7644L10.0915 22.0631C8.70408 23.4737 8.02799 25.325 8.02799 27.5657L9.02799 27.5657ZM10.8073 22.7614C11.9626 21.5676 13.7109 20.9297 16.144 20.9297L16.144 19.9297C13.5424 19.9297 11.4934 20.6145 10.0887 22.066L10.8073 22.7614ZM16.144 20.9297L26 20.9297L26 19.9297L16.144 19.9297L16.144 20.9297ZM25.5 20.4297L25.5 25.4218L26.5 25.4218L26.5 20.4297L25.5 20.4297ZM26 24.9218L16.912 24.9218L16.912 25.9218L26 25.9218L26 24.9218ZM16.912 24.9218C15.4864 24.9218 14.3283 25.2318 13.5368 25.9467L14.2071 26.6888C14.7383 26.209 15.6069 25.9218 16.912 25.9218L16.912 24.9218ZM13.5427 25.9414C12.7257 26.6564 12.348 27.6733 12.348 28.9097L13.348 28.9097C13.348 27.8849 13.653 27.1738 14.2012 26.694L13.5427 25.9414ZM12.348 28.9097C12.348 30.2821 12.7832 31.4247 13.6884 32.281L14.3756 31.5545C13.7021 30.9174 13.348 30.0547 13.348 28.9097L12.348 28.9097ZM13.6834 32.2762C14.5787 33.1466 15.8784 33.5377 17.488 33.5377L17.488 32.5377C16.0256 32.5377 15.0213 32.1822 14.3805 31.5592L13.6834 32.2762ZM17.488 33.5377L26 33.5377L26 32.5377L17.488 32.5377L17.488 33.5377ZM25.5 33.0377L25.5 38.0298L26.5 38.0298L26.5 33.0377L25.5 33.0377ZM26 37.5298L8.78398 37.5298L8.78398 38.5298L26 38.5298L26 37.5298ZM9.28398 38.0298L9.28398 33.2617L8.28398 33.2617L8.28398 38.0298L9.28398 38.0298ZM8.78398 33.7617L10.8 33.7617L10.8 32.7617L8.78398 32.7617L8.78398 33.7617ZM11.1369 32.8923C10.4724 32.2864 9.95974 31.5308 9.60161 30.6155L8.67036 30.9799C9.08023 32.0274 9.67694 32.9144 10.4631 33.6312L11.1369 32.8923ZM9.59812 30.6069C9.22029 29.6921 9.02799 28.6805 9.02799 27.5657L8.02799 27.5657C8.02799 28.7977 8.24101 29.9407 8.67386 30.9886L9.59812 30.6069ZM25.744 13.0247L26.2273 13.1531L26.2291 13.146L25.744 13.0247ZM24.4 16.2887L24.1894 16.7422L24.5806 16.9239L24.8177 16.5635L24.4 16.2887ZM20.816 14.6248L20.3946 14.3556L20.0868 14.8374L20.6054 15.0782L20.816 14.6248ZM22.032 11.8407L22.5117 11.9818L22.5141 11.9731L22.032 11.8407ZM19.856 6.33673L20.3249 6.51041L19.856 6.33673ZM19.312 8.99274L19.8065 9.06766L19.8081 9.05475L19.312 8.99274ZM18.576 12.4807L18.0974 12.3361L18.576 12.4807ZM17.104 14.8807L17.4464 15.2452L17.4521 15.2397L17.104 14.8807ZM11.216 14.9447L10.916 15.3448L10.9176 15.346L11.216 14.9447ZM9.23198 12.1927L8.76551 12.3728L8.76661 12.3756L9.23198 12.1927ZM8.94398 4.28873L9.43114 4.40182L9.43326 4.39175L8.94398 4.28873ZM10.032 1.28073L10.2441 0.827972L9.83379 0.635742L9.60222 1.02521L10.032 1.28073ZM13.584 2.94473L14.0196 3.19015L14.2842 2.72061L13.7961 2.49197L13.584 2.94473ZM12.752 10.3047L12.3157 10.549L12.752 10.3047ZM15.024 10.2408L14.5551 10.0671L15.024 10.2408ZM15.632 7.48874L15.1387 7.40652L15.1377 7.41333L15.632 7.48874ZM16.4 4.03274L16.8777 4.1806L16.8807 4.1701L16.4 4.03274ZM17.84 1.69675L18.1823 2.06116L17.84 1.69675ZM23.632 1.66473L23.9368 1.26843L23.632 1.66473ZM25.584 4.48074L26.0532 4.30789L26.0515 4.3034L25.584 4.48074ZM25.756 8.83273C25.756 10.2218 25.5902 11.5784 25.2589 12.9035L26.2291 13.146C26.5805 11.7404 26.756 10.3023 26.756 8.83273L25.756 8.83273ZM25.2607 12.8964C24.9062 14.2312 24.4759 15.2637 23.9823 16.0139L24.8177 16.5635C25.3908 15.6925 25.8565 14.5489 26.2272 13.1531L25.2607 12.8964ZM24.6105 15.8352L21.0265 14.1712L20.6054 15.0782L24.1894 16.7422L24.6105 15.8352ZM21.2373 14.8939C21.7587 14.0779 22.1815 13.1045 22.5117 11.9818L21.5523 11.6996C21.2425 12.753 20.8546 13.6356 20.3946 14.3556L21.2373 14.8939ZM22.5141 11.9731C22.8237 10.8454 22.98 9.73419 22.98 8.64075L21.98 8.64075C21.98 9.63797 21.8376 10.6601 21.5498 11.7084L22.5141 11.9731ZM22.98 8.64075C22.98 7.55957 22.8488 6.67477 22.5361 6.04294C22.3763 5.72003 22.1611 5.44717 21.8773 5.25601C21.5901 5.06259 21.2619 4.97275 20.912 4.97275L20.912 5.97275C21.0848 5.97275 21.2139 6.01486 21.3187 6.08545C21.4269 6.15832 21.5384 6.28146 21.6399 6.48654C21.8498 6.9107 21.98 7.60989 21.98 8.64075L22.98 8.64075ZM20.912 4.97275C20.561 4.97275 20.236 5.0787 19.9634 5.30176C19.6985 5.51846 19.5142 5.81988 19.3871 6.16308L20.3249 6.51041C20.4111 6.27762 20.5094 6.14703 20.5966 6.07571C20.676 6.01077 20.7723 5.97275 20.912 5.97275L20.912 4.97275ZM19.3871 6.16308C19.1531 6.79489 18.9663 7.72693 18.8158 8.93072L19.8081 9.05475C19.9563 7.8692 20.1322 7.03058 20.3249 6.51041L19.3871 6.16308ZM18.8176 8.91785C18.6063 10.3124 18.3654 11.4497 18.0974 12.3361L19.0546 12.6254C19.3413 11.6772 19.591 10.4891 19.8063 9.06766L18.8176 8.91785ZM18.0974 12.3361C17.8452 13.1701 17.4004 13.8968 16.7559 14.5218L17.4521 15.2397C18.2156 14.4993 18.7521 13.6261 19.0546 12.6254L18.0974 12.3361ZM16.7616 14.5163C16.1787 15.064 15.3152 15.3727 14.096 15.3727L14.096 16.3727C15.4795 16.3727 16.6213 16.0202 17.4463 15.2452L16.7616 14.5163ZM14.096 15.3727C13.1098 15.3727 12.2556 15.0947 11.5143 14.5435L10.9176 15.346C11.8403 16.0321 12.9062 16.3727 14.096 16.3727L14.096 15.3727ZM11.516 14.5447C10.7507 13.9708 10.1397 13.1359 9.69736 12.0099L8.76661 12.3756C9.26292 13.6389 9.97461 14.6387 10.916 15.3447L11.516 14.5447ZM9.69845 12.0127C9.25622 10.8669 9.02798 9.50122 9.02798 7.90475L8.02798 7.90475C8.02798 9.5936 8.26909 11.0865 8.76552 12.3728L9.69845 12.0127ZM9.02798 7.90475C9.02798 6.72711 9.16223 5.55972 9.43103 4.40179L8.45693 4.17569C8.17107 5.4071 8.02798 6.65036 8.02798 7.90475L9.02798 7.90475ZM9.43326 4.39175C9.68167 3.21182 10.0285 2.26501 10.4618 1.53628L9.60222 1.02521C9.09685 1.87515 8.7183 2.93365 8.45471 4.18573L9.43326 4.39175ZM9.81987 1.73352L13.3719 3.39752L13.7961 2.49197L10.2441 0.827972L9.81987 1.73352ZM13.1484 2.69931C12.2515 4.29126 11.804 6.02951 11.804 7.90475L12.804 7.90475C12.804 6.19595 13.2098 4.62756 14.0196 3.19015L13.1484 2.69931ZM11.804 7.90475C11.804 9.00168 11.9547 9.90436 12.3157 10.549L13.1882 10.0604C12.9519 9.63846 12.804 8.94113 12.804 7.90475L11.804 7.90475ZM12.3157 10.549C12.6719 11.1851 13.1983 11.6047 13.904 11.6047L13.904 10.6047C13.6711 10.6047 13.4294 10.491 13.1882 10.0604L12.3157 10.549ZM13.904 11.6047C14.2659 11.6047 14.6039 11.5049 14.8894 11.2846C15.1697 11.0684 15.3633 10.7642 15.4929 10.4144L14.5551 10.0671C14.4713 10.2933 14.3717 10.4211 14.2786 10.4929C14.1907 10.5606 14.0754 10.6047 13.904 10.6047L13.904 11.6047ZM15.4929 10.4144C15.7248 9.78812 15.9334 8.82864 16.1263 7.56415L15.1377 7.41333C14.9466 8.66617 14.7498 9.54135 14.5551 10.0671L15.4929 10.4144ZM16.1252 7.57095C16.3578 6.17496 16.6094 5.04706 16.8776 4.18057L15.9223 3.88489C15.6359 4.81042 15.3755 5.98651 15.1388 7.40655L16.1252 7.57095ZM16.8807 4.1701C17.111 3.36417 17.5416 2.66305 18.1823 2.06116L17.4976 1.3323C16.7304 2.0531 16.201 2.90933 15.9192 3.89538L16.8807 4.1701ZM18.1823 2.06116C18.7682 1.5108 19.6127 1.20474 20.784 1.20474L20.784 0.204741C19.4379 0.204741 18.3198 0.560027 17.4976 1.3323L18.1823 2.06116ZM20.784 1.20474C21.7423 1.20474 22.5841 1.48944 23.3271 2.06106L23.9368 1.26843C23.0159 0.560027 21.959 0.204741 20.784 0.204741L20.784 1.20474ZM23.3271 2.06106C24.0688 2.63153 24.6715 3.48498 25.1165 4.65808L26.0515 4.3034C25.5578 3.00183 24.8592 1.97793 23.9368 1.26843L23.3271 2.06106ZM25.1148 4.65359C25.5373 5.80041 25.756 7.18957 25.756 8.83273L26.756 8.83273C26.756 7.10522 26.5266 5.59308 26.0532 4.30789L25.1148 4.65359Z" fill="white"/>
</svg>
