<svg width="19" height="197" viewBox="0 0 19 197" fill="none" xmlns="http://www.w3.org/2000/svg">
<path d="M15 196.506L2.4 196.506L2.4 191.052C2.4 189.924 2.586 188.952 2.958 188.136C3.318 187.32 3.84 186.69 4.524 186.246C5.208 185.802 6.024 185.58 6.972 185.58C7.908 185.58 8.718 185.802 9.402 186.246C10.086 186.69 10.614 187.32 10.986 188.136C11.346 188.952 11.526 189.924 11.526 191.052L11.526 194.886L10.212 193.59L15 193.59L15 196.506ZM10.536 193.59L9.15 194.886L9.15 191.214C9.15 190.314 8.958 189.642 8.574 189.198C8.19 188.754 7.656 188.532 6.972 188.532C6.276 188.532 5.736 188.754 5.352 189.198C4.968 189.642 4.776 190.314 4.776 191.214L4.776 194.886L3.39 193.59L10.536 193.59ZM15.144 178.188C15.144 179.292 14.928 180.264 14.496 181.104C14.064 181.932 13.476 182.574 12.732 183.03C11.976 183.486 11.118 183.714 10.158 183.714C9.186 183.714 8.328 183.492 7.584 183.048C6.828 182.592 6.24 181.974 5.82 181.194C5.388 180.414 5.172 179.532 5.172 178.548C5.172 177.6 5.376 176.748 5.784 175.992C6.18 175.224 6.756 174.618 7.512 174.174C8.256 173.73 9.15 173.508 10.194 173.508C10.302 173.508 10.428 173.514 10.572 173.526C10.704 173.538 10.83 173.55 10.95 173.562L10.95 181.428L9.312 181.428L9.312 175.038L9.798 176.118C9.294 176.118 8.856 176.22 8.484 176.424C8.112 176.628 7.824 176.91 7.62 177.27C7.404 177.63 7.296 178.05 7.296 178.53C7.296 179.01 7.404 179.436 7.62 179.808C7.824 180.168 8.118 180.45 8.502 180.654C8.874 180.858 9.318 180.96 9.834 180.96L10.266 180.96C10.794 180.96 11.262 180.846 11.67 180.618C12.066 180.378 12.372 180.048 12.588 179.628C12.792 179.196 12.894 178.692 12.894 178.116C12.894 177.6 12.816 177.15 12.66 176.766C12.504 176.37 12.27 176.01 11.958 175.686L13.578 174.192C14.082 174.636 14.472 175.194 14.748 175.866C15.012 176.538 15.144 177.312 15.144 178.188ZM15 170.918L5.316 170.918L5.316 168.236L8.052 168.236L7.26 168.614C6.576 168.326 6.06 167.864 5.712 167.228C5.352 166.592 5.172 165.818 5.172 164.906L7.764 164.906C7.752 165.026 7.746 165.134 7.746 165.23C7.734 165.326 7.728 165.428 7.728 165.536C7.728 166.304 7.95 166.928 8.394 167.408C8.826 167.876 9.504 168.11 10.428 168.11L15 168.11L15 170.918ZM15 162.104L5.1 162.104C4.008 162.104 3.138 161.78 2.49 161.132C1.83 160.484 1.5 159.56 1.5 158.36C1.5 157.952 1.542 157.562 1.626 157.19C1.71 156.806 1.842 156.482 2.022 156.218L4.056 156.956C3.948 157.112 3.864 157.286 3.804 157.478C3.744 157.67 3.714 157.874 3.714 158.09C3.714 158.498 3.834 158.816 4.074 159.044C4.302 159.26 4.65 159.368 5.118 159.368L6.018 159.368L7.224 159.296L15 159.296L15 162.104ZM7.692 163.598L5.532 163.598L5.532 156.884L7.692 156.884L7.692 163.598ZM15.144 150.082C15.144 151.186 14.928 152.158 14.496 152.998C14.064 153.826 13.476 154.468 12.732 154.924C11.976 155.38 11.118 155.608 10.158 155.608C9.186 155.608 8.328 155.386 7.584 154.942C6.828 154.486 6.24 153.868 5.82 153.088C5.388 152.308 5.172 151.426 5.172 150.442C5.172 149.494 5.376 148.642 5.784 147.886C6.18 147.118 6.756 146.512 7.512 146.068C8.256 145.624 9.15 145.402 10.194 145.402C10.302 145.402 10.428 145.408 10.572 145.42C10.704 145.432 10.83 145.444 10.95 145.456L10.95 153.322L9.312 153.322L9.312 146.932L9.798 148.012C9.294 148.012 8.856 148.114 8.484 148.318C8.112 148.522 7.824 148.804 7.62 149.164C7.404 149.524 7.296 149.944 7.296 150.424C7.296 150.904 7.404 151.33 7.62 151.702C7.824 152.062 8.118 152.344 8.502 152.548C8.874 152.752 9.318 152.854 9.834 152.854L10.266 152.854C10.794 152.854 11.262 152.74 11.67 152.512C12.066 152.272 12.372 151.942 12.588 151.522C12.792 151.09 12.894 150.586 12.894 150.01C12.894 149.494 12.816 149.044 12.66 148.66C12.504 148.264 12.27 147.904 11.958 147.58L13.578 146.086C14.082 146.53 14.472 147.088 14.748 147.76C15.012 148.432 15.144 149.206 15.144 150.082ZM15.144 138.133C15.144 139.177 14.934 140.107 14.514 140.923C14.082 141.739 13.488 142.381 12.732 142.849C11.976 143.305 11.118 143.533 10.158 143.533C9.186 143.533 8.328 143.305 7.584 142.849C6.828 142.381 6.24 141.739 5.82 140.923C5.388 140.107 5.172 139.177 5.172 138.133C5.172 137.113 5.388 136.225 5.82 135.469C6.24 134.713 6.846 134.155 7.638 133.795L8.808 135.973C8.352 136.225 8.016 136.543 7.8 136.927C7.584 137.299 7.476 137.707 7.476 138.151C7.476 138.631 7.584 139.063 7.8 139.447C8.016 139.831 8.322 140.137 8.718 140.365C9.114 140.581 9.594 140.689 10.158 140.689C10.722 140.689 11.202 140.581 11.598 140.365C11.994 140.137 12.3 139.831 12.516 139.447C12.732 139.063 12.84 138.631 12.84 138.151C12.84 137.707 12.738 137.299 12.534 136.927C12.318 136.543 11.976 136.225 11.508 135.973L12.696 133.795C13.476 134.155 14.082 134.713 14.514 135.469C14.934 136.225 15.144 137.113 15.144 138.133ZM15.144 127.358C15.144 128.498 14.856 129.386 14.28 130.022C13.692 130.658 12.822 130.976 11.67 130.976L3.174 130.976L3.174 128.168L11.634 128.168C12.042 128.168 12.36 128.06 12.588 127.844C12.804 127.628 12.912 127.334 12.912 126.962C12.912 126.518 12.792 126.14 12.552 125.828L14.532 125.072C14.736 125.36 14.892 125.708 15 126.116C15.096 126.512 15.144 126.926 15.144 127.358ZM7.692 132.47L5.532 132.47L5.532 125.756L7.692 125.756L7.692 132.47ZM15.144 111.234C15.144 112.05 14.964 112.764 14.604 113.376C14.244 113.988 13.698 114.468 12.966 114.816C12.222 115.152 11.286 115.32 10.158 115.32C9.018 115.32 8.082 115.158 7.35 114.834C6.618 114.51 6.072 114.042 5.712 113.43C5.352 112.818 5.172 112.086 5.172 111.234C5.172 110.322 5.382 109.506 5.802 108.786C6.21 108.054 6.786 107.478 7.53 107.058C8.274 106.626 9.15 106.41 10.158 106.41C11.178 106.41 12.06 106.626 12.804 107.058C13.548 107.478 14.124 108.054 14.532 108.786C14.94 109.506 15.144 110.322 15.144 111.234ZM18.492 116.958L5.316 116.958L5.316 114.276L7.296 114.276L10.176 114.33L13.038 114.15L18.492 114.15L18.492 116.958ZM12.84 111.72C12.84 111.252 12.732 110.838 12.516 110.478C12.3 110.106 11.994 109.812 11.598 109.596C11.19 109.368 10.71 109.254 10.158 109.254C9.594 109.254 9.114 109.368 8.718 109.596C8.322 109.812 8.016 110.106 7.8 110.478C7.584 110.838 7.476 111.252 7.476 111.72C7.476 112.188 7.584 112.608 7.8 112.98C8.016 113.352 8.322 113.646 8.718 113.862C9.114 114.078 9.594 114.186 10.158 114.186C10.71 114.186 11.19 114.078 11.598 113.862C11.994 113.646 12.3 113.352 12.516 112.98C12.732 112.608 12.84 112.188 12.84 111.72ZM15 103.81L5.316 103.81L5.31599 101.128L8.052 101.128L7.26 101.506C6.576 101.218 6.06 100.756 5.712 100.12C5.352 99.4839 5.172 98.7099 5.172 97.7979L7.764 97.7979C7.752 97.9179 7.746 98.0259 7.746 98.1219C7.734 98.2179 7.728 98.3199 7.728 98.4279C7.728 99.1959 7.95 99.8199 8.394 100.3C8.826 100.768 9.504 101.002 10.428 101.002L15 101.002L15 103.81ZM15.144 90.8706C15.144 91.9026 14.928 92.8206 14.496 93.6246C14.064 94.4166 13.476 95.0466 12.732 95.5146C11.976 95.9706 11.118 96.1986 10.158 96.1986C9.186 96.1986 8.328 95.9706 7.58399 95.5146C6.828 95.0466 6.23999 94.4166 5.81999 93.6246C5.388 92.8206 5.172 91.9026 5.172 90.8706C5.172 89.8506 5.38799 88.9386 5.81999 88.1346C6.23999 87.3306 6.82199 86.7006 7.56599 86.2446C8.30999 85.7886 9.17399 85.5606 10.158 85.5606C11.118 85.5606 11.976 85.7886 12.732 86.2446C13.476 86.7006 14.064 87.3306 14.496 88.1346C14.928 88.9386 15.144 89.8506 15.144 90.8706ZM12.84 90.8706C12.84 90.4026 12.732 89.9826 12.516 89.6106C12.3 89.2386 11.994 88.9446 11.598 88.7286C11.19 88.5126 10.71 88.4046 10.158 88.4046C9.59399 88.4046 9.11399 88.5126 8.718 88.7286C8.32199 88.9446 8.01599 89.2386 7.8 89.6106C7.584 89.9826 7.476 90.4026 7.476 90.8706C7.476 91.3386 7.584 91.7586 7.8 92.1306C8.016 92.5026 8.322 92.8026 8.718 93.0306C9.114 93.2466 9.594 93.3546 10.158 93.3546C10.71 93.3546 11.19 93.2466 11.598 93.0306C11.994 92.8026 12.3 92.5026 12.516 92.1306C12.732 91.7586 12.84 91.3386 12.84 90.8706ZM15.144 77.2397C15.144 78.0557 14.964 78.7697 14.604 79.3817C14.244 79.9937 13.698 80.4737 12.966 80.8217C12.222 81.1577 11.286 81.3257 10.158 81.3257C9.01799 81.3257 8.08199 81.1637 7.34999 80.8397C6.61799 80.5157 6.07199 80.0477 5.71199 79.4357C5.35199 78.8237 5.17199 78.0917 5.17199 77.2397C5.17199 76.3277 5.38199 75.5117 5.80199 74.7917C6.20999 74.0597 6.78599 73.4837 7.52999 73.0637C8.27399 72.6317 9.14999 72.4157 10.158 72.4157C11.178 72.4157 12.06 72.6317 12.804 73.0637C13.548 73.4837 14.124 74.0597 14.532 74.7917C14.94 75.5117 15.144 76.3277 15.144 77.2397ZM18.492 82.9637L5.31599 82.9637L5.31599 80.2817L7.29599 80.2817L10.176 80.3357L13.038 80.1557L18.492 80.1557L18.492 82.9637ZM12.84 77.7257C12.84 77.2577 12.732 76.8437 12.516 76.4837C12.3 76.1117 11.994 75.8177 11.598 75.6017C11.19 75.3737 10.71 75.2597 10.158 75.2597C9.59399 75.2597 9.11399 75.3737 8.71799 75.6017C8.32199 75.8177 8.01599 76.1117 7.79999 76.4837C7.58399 76.8437 7.47599 77.2577 7.47599 77.7257C7.47599 78.1937 7.58399 78.6137 7.79999 78.9857C8.01599 79.3577 8.32199 79.6517 8.71799 79.8677C9.11399 80.0837 9.59399 80.1917 10.158 80.1917C10.71 80.1917 11.19 80.0837 11.598 79.8677C11.994 79.6517 12.3 79.3577 12.516 78.9857C12.732 78.6137 12.84 78.1937 12.84 77.7257ZM15.144 65.208C15.144 66.24 14.928 67.158 14.496 67.962C14.064 68.754 13.476 69.384 12.732 69.852C11.976 70.308 11.118 70.536 10.158 70.536C9.18599 70.536 8.32799 70.308 7.58399 69.852C6.82799 69.384 6.23999 68.754 5.81999 67.962C5.38799 67.158 5.17199 66.24 5.17199 65.208C5.17199 64.188 5.38799 63.276 5.81999 62.472C6.23999 61.668 6.82199 61.038 7.56599 60.582C8.30999 60.126 9.17399 59.898 10.158 59.898C11.118 59.898 11.976 60.126 12.732 60.582C13.476 61.038 14.064 61.668 14.496 62.472C14.928 63.276 15.144 64.188 15.144 65.208ZM12.84 65.208C12.84 64.74 12.732 64.32 12.516 63.948C12.3 63.576 11.994 63.282 11.598 63.066C11.19 62.85 10.71 62.742 10.158 62.742C9.59399 62.742 9.11399 62.85 8.71799 63.066C8.32199 63.282 8.01599 63.576 7.79999 63.948C7.58399 64.32 7.47599 64.74 7.47599 65.208C7.47599 65.676 7.58399 66.096 7.79999 66.468C8.01599 66.84 8.32199 67.14 8.71799 67.368C9.11399 67.584 9.59399 67.692 10.158 67.692C10.71 67.692 11.19 67.584 11.598 67.368C11.994 67.14 12.3 66.84 12.516 66.468C12.732 66.096 12.84 65.676 12.84 65.208ZM15 57.301L5.31599 57.301L5.31599 54.619L8.05199 54.619L7.25999 54.997C6.57599 54.709 6.05999 54.247 5.71199 53.611C5.35199 52.975 5.17199 52.201 5.17199 51.289L7.76399 51.289C7.75199 51.409 7.74599 51.517 7.74599 51.613C7.73399 51.709 7.72799 51.811 7.72799 51.919C7.72799 52.687 7.94999 53.311 8.39399 53.791C8.82599 54.259 9.50399 54.493 10.428 54.493L15 54.493L15 57.301ZM15.144 44.6054C15.144 45.7454 14.856 46.6334 14.28 47.2694C13.692 47.9054 12.822 48.2234 11.67 48.2234L3.17399 48.2234L3.17399 45.4154L11.634 45.4154C12.042 45.4154 12.36 45.3074 12.588 45.0914C12.804 44.8754 12.912 44.5814 12.912 44.2094C12.912 43.7654 12.792 43.3874 12.552 43.0754L14.532 42.3194C14.736 42.6074 14.892 42.9554 15 43.3634C15.096 43.7594 15.144 44.1734 15.144 44.6054ZM7.69199 49.7174L5.53199 49.7174L5.53199 43.0034L7.69199 43.0034L7.69199 49.7174ZM15 40.0231L5.31599 40.0231L5.31599 37.2151L15 37.2151L15 40.0231ZM3.96599 38.6191C3.96599 39.1351 3.81599 39.5551 3.51599 39.8791C3.21599 40.2031 2.84399 40.3651 2.39999 40.3651C1.95599 40.3651 1.58399 40.2031 1.28399 39.8791C0.983992 39.5551 0.833992 39.1351 0.833992 38.6191C0.833992 38.1031 0.977992 37.6831 1.26599 37.3591C1.54199 37.0351 1.90199 36.8731 2.34599 36.8731C2.81399 36.8731 3.20399 37.0351 3.51599 37.3591C3.81599 37.6711 3.96599 38.0911 3.96599 38.6191ZM15.144 29.2811C15.144 30.3131 14.928 31.2311 14.496 32.0351C14.064 32.8271 13.476 33.4571 12.732 33.9251C11.976 34.3811 11.118 34.6091 10.158 34.6091C9.18599 34.6091 8.32799 34.3811 7.58399 33.9251C6.82799 33.4571 6.23999 32.8271 5.81999 32.0351C5.38799 31.2311 5.17199 30.3131 5.17199 29.2811C5.17199 28.2611 5.38799 27.3491 5.81999 26.5451C6.23999 25.7411 6.82199 25.1111 7.56599 24.6551C8.30999 24.1991 9.17399 23.9711 10.158 23.9711C11.118 23.9711 11.976 24.1991 12.732 24.6551C13.476 25.1111 14.064 25.7411 14.496 26.5451C14.928 27.3491 15.144 28.2611 15.144 29.2811ZM12.84 29.2811C12.84 28.8131 12.732 28.3931 12.516 28.0211C12.3 27.6491 11.994 27.3551 11.598 27.1391C11.19 26.9231 10.71 26.8151 10.158 26.8151C9.59399 26.8151 9.11399 26.9231 8.71799 27.1391C8.32199 27.3551 8.01599 27.6491 7.79999 28.0211C7.58399 28.3931 7.47599 28.8131 7.47599 29.2811C7.47599 29.7491 7.58399 30.1691 7.79999 30.5411C8.01599 30.9131 8.32199 31.2131 8.71799 31.4411C9.11399 31.6571 9.59399 31.7651 10.158 31.7651C10.71 31.7651 11.19 31.6571 11.598 31.4411C11.994 31.2131 12.3 30.9131 12.516 30.5411C12.732 30.1691 12.84 29.7491 12.84 29.2811ZM5.17199 15.4882C5.17199 14.7201 5.32799 14.0362 5.63999 13.4362C5.93999 12.8242 6.40799 12.3441 7.04399 11.9961C7.66799 11.6481 8.47199 11.4741 9.45599 11.4741L15 11.4741L15 14.2821L9.88799 14.2821C9.10799 14.2821 8.53199 14.4562 8.15999 14.8042C7.78799 15.1402 7.60199 15.6202 7.60199 16.2441C7.60199 16.6881 7.69799 17.0901 7.88999 17.4501C8.06999 17.7982 8.35199 18.0742 8.73599 18.2781C9.11999 18.4701 9.61199 18.5661 10.212 18.5661L15 18.5661L15 21.3741L5.31599 21.3742L5.31599 18.6922L7.99799 18.6922L7.18799 19.1962C6.53999 18.8482 6.04199 18.3502 5.69399 17.7022C5.34599 17.0542 5.17199 16.3162 5.17199 15.4882ZM15.144 4.95084C15.144 5.77884 15.048 6.57684 14.856 7.34484C14.652 8.10084 14.4 8.70084 14.1 9.14484L12.084 8.20884C12.36 7.76484 12.588 7.24284 12.768 6.64284C12.936 6.03084 13.02 5.43084 13.02 4.84284C13.02 4.19484 12.942 3.73884 12.786 3.47484C12.63 3.19884 12.414 3.06084 12.138 3.06084C11.91 3.06084 11.742 3.16884 11.634 3.38484C11.514 3.58884 11.424 3.86484 11.364 4.21284C11.304 4.56084 11.244 4.94484 11.184 5.36484C11.124 5.77284 11.046 6.18684 10.95 6.60684C10.842 7.02684 10.686 7.41084 10.482 7.75884C10.278 8.10684 10.002 8.38884 9.65399 8.60484C9.30599 8.80884 8.85599 8.91084 8.30399 8.91084C7.69199 8.91084 7.15199 8.73684 6.68399 8.38884C6.21599 8.02884 5.84999 7.51284 5.58599 6.84084C5.30999 6.16884 5.17199 5.36484 5.17199 4.42884C5.17199 3.76884 5.24399 3.09684 5.38799 2.41284C5.53199 1.72884 5.74199 1.15884 6.01799 0.702836L8.01599 1.63884C7.73999 2.10684 7.55399 2.58084 7.45799 3.06084C7.34999 3.52884 7.29599 3.98484 7.29599 4.42884C7.29599 5.05284 7.37999 5.50884 7.54799 5.79684C7.71599 6.08484 7.93199 6.22884 8.19599 6.22884C8.43599 6.22884 8.61599 6.12684 8.73599 5.92284C8.85599 5.70684 8.95199 5.42484 9.02399 5.07684C9.09599 4.72884 9.16199 4.35084 9.22199 3.94284C9.26999 3.52284 9.34799 3.10284 9.45599 2.68284C9.56399 2.26284 9.71999 1.88484 9.92399 1.54884C10.116 1.20084 10.386 0.918836 10.734 0.702836C11.07 0.486836 11.514 0.378836 12.066 0.378836C12.666 0.378836 13.2 0.558836 13.668 0.918836C14.124 1.27884 14.484 1.80084 14.748 2.48484C15.012 3.15684 15.144 3.97884 15.144 4.95084Z" fill="white"/>
</svg>
