<svg width="11" height="161" viewBox="0 0 11 161" fill="none" xmlns="http://www.w3.org/2000/svg">
<path d="M8 82.24L4.64 82.248L7.408 83.896L7.408 84.48L4.712 86.12L8 86.12L8 87.336L2.4 87.336L2.4 86.264L5.88 84.168L2.4 82.104L2.4 81.04L8 81.024L8 82.24ZM6.8 74.4074L6.8 77.0074L8 77.5034L8 78.8314L2.4 76.3354L2.4 75.0554L8 72.5514L8 73.9114L6.8 74.4074ZM5.816 74.8154L3.672 75.7034L5.816 76.5914L5.816 74.8154ZM5.8 68.3304L6.584 69.0824L8 69.0824L8 70.3704L2.4 70.3704L2.4 69.0824L5.016 69.0824L2.4 66.6024L2.4 65.1624L4.896 67.4824L8 65.0264L8 66.5384L5.8 68.3304ZM6.96 58.5125L8 58.5125L8 62.8485L2.4 62.8485L2.4 58.6165L3.44 58.6165L3.44 61.5605L4.656 61.5605L4.656 58.9605L5.664 58.9605L5.664 61.5605L6.96 61.5605L6.96 58.5125ZM8 48.4477L6.44 49.5277L6.44 49.5917L6.44 50.7197L8 50.7197L8 52.0157L2.4 52.0157L2.4 49.5917C2.4 49.0957 2.48266 48.6664 2.648 48.3037C2.81333 47.9357 3.048 47.653 3.352 47.4557C3.656 47.2584 4.016 47.1597 4.432 47.1597C4.848 47.1597 5.208 47.261 5.512 47.4637C5.81066 47.661 6.04 47.9437 6.2 48.3117L8 47.0557L8 48.4477ZM4.432 48.4717C4.11733 48.4717 3.87733 48.573 3.712 48.7757C3.54133 48.9784 3.456 49.2744 3.456 49.6637L3.456 50.7197L5.408 50.7197L5.408 49.6637C5.408 49.2744 5.32266 48.9784 5.152 48.7757C4.98133 48.573 4.74133 48.4717 4.432 48.4717ZM6.96 40.1969L8 40.1969L8 44.5329L2.4 44.5329L2.4 40.3009L3.44 40.3009L3.44 43.2449L4.656 43.2449L4.656 40.6449L5.664 40.6449L5.664 43.2449L6.96 43.2449L6.96 40.1969ZM8.6 31.5253C8.824 31.7066 8.99466 31.928 9.112 32.1893C9.22933 32.4453 9.288 32.728 9.288 33.0373C9.288 33.4533 9.19733 33.8293 9.016 34.1653C8.84 34.5013 8.52533 34.8853 8.072 35.3173C8.008 35.824 7.84533 36.2773 7.584 36.6773C7.32266 37.072 6.98666 37.3813 6.576 37.6053C6.16 37.824 5.70133 37.9333 5.2 37.9333C4.65066 37.9333 4.15733 37.8026 3.72 37.5413C3.27733 37.2746 2.93066 36.9093 2.68 36.4453C2.42933 35.976 2.304 35.4506 2.304 34.8693C2.304 34.288 2.42933 33.7653 2.68 33.3013C2.93066 32.8373 3.27733 32.472 3.72 32.2053C4.15733 31.9386 4.65066 31.8053 5.2 31.8053C5.85066 31.8053 6.42133 31.9893 6.912 32.3573C7.40266 32.72 7.744 33.2026 7.936 33.8053C8.07466 33.672 8.17333 33.544 8.232 33.4213C8.296 33.2933 8.328 33.1573 8.328 33.0133C8.328 32.6666 8.18933 32.3626 7.912 32.1013L8.6 31.5253ZM5.2 36.6213C5.54666 36.6213 5.856 36.5466 6.128 36.3973C6.4 36.2426 6.61333 36.032 6.768 35.7653C6.91733 35.4986 6.992 35.2 6.992 34.8693C6.992 34.5386 6.91733 34.24 6.768 33.9733C6.61333 33.7066 6.4 33.4986 6.128 33.3493C5.856 33.1946 5.54666 33.1173 5.2 33.1173C4.85333 33.1173 4.544 33.1946 4.272 33.3493C4 33.4986 3.78933 33.7066 3.64 33.9733C3.48533 34.24 3.408 34.5386 3.408 34.8693C3.408 35.2 3.48533 35.4986 3.64 35.7653C3.78933 36.032 4 36.2426 4.272 36.3973C4.544 36.5466 4.85333 36.6213 5.2 36.6213ZM8.096 26.7433C8.096 27.5433 7.87466 28.1673 7.432 28.6153C6.98933 29.058 6.35733 29.2793 5.536 29.2793L2.4 29.2793L2.4 27.9833L5.488 27.9833C6.49066 27.9833 6.992 27.5673 6.992 26.7353C6.992 26.33 6.872 26.0206 6.632 25.8073C6.38666 25.594 6.00533 25.4873 5.488 25.4873L2.4 25.4873L2.4 24.2073L5.536 24.2073C6.35733 24.2073 6.98933 24.4313 7.432 24.8793C7.87466 25.322 8.096 25.9433 8.096 26.7433ZM6.96 16.9906L8 16.9906L8 21.3266L2.4 21.3266L2.4 17.0946L3.44 17.0946L3.44 20.0386L4.656 20.0386L4.656 17.4386L5.664 17.4386L5.664 20.0386L6.96 20.0386L6.96 16.9906ZM8.096 12.5194C8.096 12.9621 8.03733 13.3914 7.92 13.8074C7.79733 14.2181 7.64 14.5488 7.448 14.7994L6.472 14.3594C6.648 14.1194 6.78933 13.8341 6.896 13.5034C7.00266 13.1728 7.056 12.8421 7.056 12.5114C7.056 12.1434 7.00266 11.8714 6.896 11.6954C6.784 11.5194 6.63733 11.4314 6.456 11.4314C6.32266 11.4314 6.21333 11.4848 6.128 11.5914C6.03733 11.6928 5.96533 11.8261 5.912 11.9914C5.85866 12.1514 5.8 12.3701 5.736 12.6474C5.63466 13.0741 5.53333 13.4234 5.432 13.6954C5.33066 13.9674 5.168 14.2021 4.944 14.3994C4.72 14.5914 4.42133 14.6874 4.048 14.6874C3.72266 14.6874 3.42933 14.5994 3.168 14.4234C2.90133 14.2474 2.69066 13.9834 2.536 13.6314C2.38133 13.2741 2.304 12.8394 2.304 12.3274C2.304 11.9701 2.34666 11.6208 2.432 11.2794C2.51733 10.9381 2.64 10.6394 2.8 10.3834L3.784 10.7834C3.49066 11.3008 3.344 11.8181 3.344 12.3354C3.344 12.6981 3.40266 12.9674 3.52 13.1434C3.63733 13.3141 3.792 13.3994 3.984 13.3994C4.176 13.3994 4.32 13.3008 4.416 13.1034C4.50666 12.9008 4.59733 12.5941 4.688 12.1834C4.78933 11.7568 4.89066 11.4074 4.992 11.1354C5.09333 10.8634 5.25333 10.6314 5.472 10.4394C5.69066 10.2421 5.98666 10.1434 6.36 10.1434C6.68 10.1434 6.97333 10.2341 7.24 10.4154C7.50133 10.5914 7.70933 10.8581 7.864 11.2154C8.01866 11.5728 8.096 12.0074 8.096 12.5194ZM3.456 6.576L3.456 8.368L2.4 8.368L2.4 3.488L3.456 3.488L3.456 5.28L8 5.28L8 6.576L3.456 6.576Z" fill="white" fill-opacity="0.13"/>
<rect x="5" y="161" width="57" height="1" transform="rotate(-90 5 161)" fill="white" fill-opacity="0.04"/>
</svg>
