<svg width="11" height="101" viewBox="0 0 11 101" fill="none" xmlns="http://www.w3.org/2000/svg">
<path opacity="0.32" d="M5.088 26.224C5.18933 25.904 5.36 25.6533 5.6 25.472C5.83467 25.2907 6.12533 25.2 6.472 25.2C6.96267 25.2 7.34133 25.392 7.608 25.776C7.86933 26.1547 8 26.7093 8 27.44L8 30.336L2.4 30.336L2.4 27.6C2.4 26.9173 2.53067 26.3947 2.792 26.032C3.05333 25.664 3.408 25.48 3.856 25.48C4.128 25.48 4.37067 25.5467 4.584 25.68C4.79733 25.808 4.96533 25.9893 5.088 26.224ZM3.376 29.048L4.696 29.048L4.696 27.76C4.696 27.44 4.64 27.1973 4.528 27.032C4.416 26.8667 4.25067 26.784 4.032 26.784C3.81333 26.784 3.65067 26.8667 3.544 27.032C3.432 27.1973 3.376 27.44 3.376 27.76L3.376 29.048ZM7.024 27.536C7.024 27.1947 6.968 26.9387 6.856 26.768C6.744 26.592 6.57067 26.504 6.336 26.504C5.872 26.504 5.64 26.848 5.64 27.536L5.64 29.048L7.024 29.048L7.024 27.536ZM2.4 22.6188L2.4 21.3228L6.944 21.3228L6.944 18.5148L8 18.5148L8 22.6188L2.4 22.6188ZM8.096 13.5724C8.096 14.1538 7.97067 14.6791 7.72 15.1484C7.46933 15.6124 7.12533 15.9778 6.688 16.2444C6.24533 16.5058 5.74933 16.6364 5.2 16.6364C4.65067 16.6364 4.15733 16.5058 3.72 16.2444C3.27733 15.9778 2.93067 15.6124 2.68 15.1484C2.42933 14.6791 2.304 14.1538 2.304 13.5724C2.304 12.9911 2.42933 12.4684 2.68 12.0044C2.93067 11.5404 3.27733 11.1751 3.72 10.9084C4.15733 10.6418 4.65067 10.5084 5.2 10.5084C5.74933 10.5084 6.24533 10.6418 6.688 10.9084C7.12533 11.1751 7.46933 11.5404 7.72 12.0044C7.97067 12.4684 8.096 12.9911 8.096 13.5724ZM6.992 13.5724C6.992 13.2418 6.91733 12.9431 6.768 12.6764C6.61333 12.4098 6.4 12.2018 6.128 12.0524C5.856 11.8978 5.54667 11.8204 5.2 11.8204C4.85333 11.8204 4.544 11.8978 4.272 12.0524C4 12.2018 3.78933 12.4098 3.64 12.6764C3.48533 12.9431 3.408 13.2418 3.408 13.5724C3.408 13.9031 3.48533 14.2018 3.64 14.4684C3.78933 14.7351 4 14.9458 4.272 15.1004C4.544 15.2498 4.85333 15.3244 5.2 15.3244C5.54667 15.3244 5.856 15.2498 6.128 15.1004C6.4 14.9458 6.61333 14.7351 6.768 14.4684C6.91733 14.2018 6.992 13.9031 6.992 13.5724ZM5.112 4.15044L5.112 2.96644L7.384 2.96644C7.61333 3.27044 7.78933 3.62244 7.912 4.02244C8.03467 4.42244 8.096 4.8251 8.096 5.23044C8.096 5.81177 7.97333 6.33444 7.728 6.79844C7.47733 7.26244 7.13333 7.62777 6.696 7.89444C6.25333 8.15577 5.75467 8.28644 5.2 8.28644C4.64533 8.28644 4.14933 8.15577 3.712 7.89444C3.26933 7.62777 2.92533 7.25977 2.68 6.79044C2.42933 6.3211 2.304 5.7931 2.304 5.20644C2.304 4.71577 2.38667 4.27044 2.552 3.87044C2.71733 3.47044 2.95733 3.13444 3.272 2.86244L4.04 3.69444C3.61867 4.09444 3.408 4.5771 3.408 5.14244C3.408 5.49977 3.48267 5.8171 3.632 6.09444C3.78133 6.37177 3.992 6.58777 4.264 6.74244C4.536 6.8971 4.848 6.97444 5.2 6.97444C5.54667 6.97444 5.856 6.8971 6.128 6.74244C6.4 6.58777 6.61333 6.37444 6.768 6.10244C6.91733 5.8251 6.992 5.51044 6.992 5.15844C6.992 4.7851 6.912 4.4491 6.752 4.15044L5.112 4.15044Z" fill="#828282"/>
<rect opacity="0.16" x="5" y="101" width="57" height="1" transform="rotate(-90 5 101)" fill="#828282"/>
</svg>
