<svg width="21" height="354" viewBox="0 0 21 354" fill="none" xmlns="http://www.w3.org/2000/svg">
<path d="M4.4 347.052C4.4 345.936 4.586 344.97 4.958 344.154C5.33 343.326 5.858 342.69 6.542 342.246C7.226 341.802 8.036 341.58 8.972 341.58C9.896 341.58 10.706 341.802 11.402 342.246C12.086 342.69 12.614 343.326 12.986 344.154C13.346 344.97 13.526 345.936 13.526 347.052L13.526 349.59L17 349.59L17 352.506L4.4 352.506L4.4 347.052ZM11.15 347.214C11.15 346.338 10.964 345.672 10.592 345.216C10.208 344.76 9.668 344.532 8.972 344.532C8.264 344.532 7.724 344.76 7.352 345.216C6.968 345.672 6.776 346.338 6.776 347.214L6.776 349.59L11.15 349.59L11.15 347.214ZM12.194 329.508C12.23 329.508 12.482 329.526 12.95 329.562L12.95 336.888C13.55 336.756 14.024 336.444 14.372 335.952C14.72 335.46 14.894 334.848 14.894 334.116C14.894 333.612 14.822 333.168 14.678 332.784C14.522 332.388 14.282 332.022 13.958 331.686L15.578 330.192C16.622 331.104 17.144 332.436 17.144 334.188C17.144 335.28 16.934 336.246 16.514 337.086C16.082 337.926 15.488 338.574 14.732 339.03C13.976 339.486 13.118 339.714 12.158 339.714C11.21 339.714 10.358 339.492 9.602 339.048C8.834 338.592 8.24 337.974 7.82 337.194C7.388 336.402 7.172 335.52 7.172 334.548C7.172 333.6 7.376 332.742 7.784 331.974C8.192 331.206 8.78 330.606 9.548 330.174C10.304 329.73 11.186 329.508 12.194 329.508ZM9.296 334.53C9.296 335.166 9.476 335.7 9.836 336.132C10.196 336.564 10.688 336.828 11.312 336.924L11.312 332.154C10.7 332.25 10.214 332.514 9.854 332.946C9.482 333.378 9.296 333.906 9.296 334.53ZM8.594 324.236C8.126 323.9 7.772 323.45 7.532 322.886C7.292 322.31 7.172 321.65 7.172 320.906L9.764 320.906C9.74 321.218 9.728 321.428 9.728 321.536C9.728 322.34 9.956 322.97 10.412 323.426C10.856 323.882 11.528 324.11 12.428 324.11L17 324.11L17 326.918L7.316 326.918L7.316 324.236L8.594 324.236ZM7.532 315.368L7.532 312.884L9.692 312.884L9.692 315.296L17 315.296L17 318.104L9.692 318.104L9.692 319.598L7.532 319.598L7.532 318.104L7.1 318.104C5.996 318.104 5.12 317.78 4.472 317.132C3.824 316.472 3.5 315.548 3.5 314.36C3.5 313.94 3.548 313.544 3.644 313.172C3.728 312.788 3.854 312.47 4.022 312.218L6.056 312.956C5.828 313.28 5.714 313.658 5.714 314.09C5.714 314.942 6.182 315.368 7.118 315.368L7.532 315.368ZM12.194 301.402C12.23 301.402 12.482 301.42 12.95 301.456L12.95 308.782C13.55 308.65 14.024 308.338 14.372 307.846C14.72 307.354 14.894 306.742 14.894 306.01C14.894 305.506 14.822 305.062 14.678 304.678C14.522 304.282 14.282 303.916 13.958 303.58L15.578 302.086C16.622 302.998 17.144 304.33 17.144 306.082C17.144 307.174 16.934 308.14 16.514 308.98C16.082 309.82 15.488 310.468 14.732 310.924C13.976 311.38 13.118 311.608 12.158 311.608C11.21 311.608 10.358 311.386 9.602 310.942C8.834 310.486 8.24 309.868 7.82 309.088C7.388 308.296 7.172 307.414 7.172 306.442C7.172 305.494 7.376 304.636 7.784 303.868C8.192 303.1 8.78 302.5 9.548 302.068C10.304 301.624 11.186 301.402 12.194 301.402ZM9.296 306.424C9.296 307.06 9.476 307.594 9.836 308.026C10.196 308.458 10.688 308.722 11.312 308.818L11.312 304.048C10.7 304.144 10.214 304.408 9.854 304.84C9.482 305.272 9.296 305.8 9.296 306.424ZM17.144 294.133C17.144 295.165 16.934 296.095 16.514 296.923C16.082 297.739 15.488 298.381 14.732 298.849C13.976 299.305 13.118 299.533 12.158 299.533C11.198 299.533 10.34 299.305 9.584 298.849C8.828 298.381 8.24 297.739 7.82 296.923C7.388 296.095 7.172 295.165 7.172 294.133C7.172 293.113 7.388 292.225 7.82 291.469C8.24 290.701 8.846 290.143 9.638 289.795L10.808 291.973C9.92 292.477 9.476 293.203 9.476 294.151C9.476 294.883 9.716 295.489 10.196 295.969C10.676 296.449 11.33 296.689 12.158 296.689C12.986 296.689 13.64 296.449 14.12 295.969C14.6 295.489 14.84 294.883 14.84 294.151C14.84 293.191 14.396 292.465 13.508 291.973L14.696 289.795C15.464 290.143 16.064 290.701 16.496 291.469C16.928 292.225 17.144 293.113 17.144 294.133ZM16.532 281.072C16.736 281.348 16.892 281.69 17 282.098C17.096 282.494 17.144 282.914 17.144 283.358C17.144 284.51 16.85 285.404 16.262 286.04C15.674 286.664 14.81 286.976 13.67 286.976L9.692 286.976L9.692 288.47L7.532 288.47L7.532 286.976L5.174 286.976L5.174 284.168L7.532 284.168L7.532 281.756L9.692 281.756L9.692 284.168L13.634 284.168C14.042 284.168 14.36 284.066 14.588 283.862C14.804 283.646 14.912 283.346 14.912 282.962C14.912 282.518 14.792 282.14 14.552 281.828L16.532 281.072ZM7.172 267.234C7.172 266.334 7.382 265.518 7.802 264.786C8.21 264.042 8.792 263.46 9.548 263.04C10.292 262.62 11.162 262.41 12.158 262.41C13.154 262.41 14.03 262.62 14.786 263.04C15.53 263.46 16.112 264.042 16.532 264.786C16.94 265.518 17.144 266.334 17.144 267.234C17.144 268.47 16.754 269.442 15.974 270.15L20.492 270.15L20.492 272.958L7.316 272.958L7.316 270.276L8.432 270.276C7.592 269.58 7.172 268.566 7.172 267.234ZM14.84 267.72C14.84 267 14.6 266.412 14.12 265.956C13.628 265.488 12.974 265.254 12.158 265.254C11.342 265.254 10.694 265.488 10.214 265.956C9.722 266.412 9.476 267 9.476 267.72C9.476 268.44 9.722 269.034 10.214 269.502C10.694 269.958 11.342 270.186 12.158 270.186C12.974 270.186 13.628 269.958 14.12 269.502C14.6 269.034 14.84 268.44 14.84 267.72ZM8.594 257.128C8.126 256.792 7.772 256.342 7.532 255.778C7.292 255.202 7.172 254.542 7.172 253.798L9.764 253.798C9.74 254.11 9.728 254.32 9.728 254.428C9.728 255.232 9.956 255.862 10.412 256.318C10.856 256.774 11.528 257.002 12.428 257.002L17 257.002L17 259.81L7.316 259.81L7.31599 257.128L8.594 257.128ZM17.144 246.888C17.144 247.908 16.934 248.826 16.514 249.642C16.082 250.446 15.488 251.076 14.732 251.532C13.976 251.988 13.118 252.216 12.158 252.216C11.198 252.216 10.34 251.988 9.58399 251.532C8.828 251.076 8.23999 250.446 7.81999 249.642C7.388 248.826 7.172 247.908 7.172 246.888C7.172 245.868 7.38799 244.956 7.81999 244.152C8.23999 243.348 8.82799 242.718 9.58399 242.262C10.34 241.806 11.198 241.578 12.158 241.578C13.118 241.578 13.976 241.806 14.732 242.262C15.488 242.718 16.082 243.348 16.514 244.152C16.934 244.956 17.144 245.868 17.144 246.888ZM14.84 246.888C14.84 246.168 14.6 245.58 14.12 245.124C13.628 244.656 12.974 244.422 12.158 244.422C11.342 244.422 10.694 244.656 10.214 245.124C9.722 245.58 9.476 246.168 9.476 246.888C9.476 247.608 9.722 248.202 10.214 248.67C10.694 249.138 11.342 249.372 12.158 249.372C12.974 249.372 13.628 249.138 14.12 248.67C14.6 248.202 14.84 247.608 14.84 246.888ZM7.17199 233.257C7.17199 232.357 7.38199 231.541 7.80199 230.809C8.20999 230.065 8.79199 229.483 9.54799 229.063C10.292 228.643 11.162 228.433 12.158 228.433C13.154 228.433 14.03 228.643 14.786 229.063C15.53 229.483 16.112 230.065 16.532 230.809C16.94 231.541 17.144 232.357 17.144 233.257C17.144 234.493 16.754 235.465 15.974 236.173L20.492 236.173L20.492 238.981L7.31599 238.981L7.31599 236.299L8.43199 236.299C7.59199 235.603 7.17199 234.589 7.17199 233.257ZM14.84 233.743C14.84 233.023 14.6 232.435 14.12 231.979C13.628 231.511 12.974 231.277 12.158 231.277C11.342 231.277 10.694 231.511 10.214 231.979C9.72199 232.435 9.47599 233.023 9.47599 233.743C9.47599 234.463 9.72199 235.057 10.214 235.525C10.694 235.981 11.342 236.209 12.158 236.209C12.974 236.209 13.628 235.981 14.12 235.525C14.6 235.057 14.84 234.463 14.84 233.743ZM17.144 221.226C17.144 222.246 16.934 223.164 16.514 223.98C16.082 224.784 15.488 225.414 14.732 225.87C13.976 226.326 13.118 226.554 12.158 226.554C11.198 226.554 10.34 226.326 9.58399 225.87C8.82799 225.414 8.23999 224.784 7.81999 223.98C7.38799 223.164 7.17199 222.246 7.17199 221.226C7.17199 220.206 7.38799 219.294 7.81999 218.49C8.23999 217.686 8.82799 217.056 9.58399 216.6C10.34 216.144 11.198 215.916 12.158 215.916C13.118 215.916 13.976 216.144 14.732 216.6C15.488 217.056 16.082 217.686 16.514 218.49C16.934 219.294 17.144 220.206 17.144 221.226ZM14.84 221.226C14.84 220.506 14.6 219.918 14.12 219.462C13.628 218.994 12.974 218.76 12.158 218.76C11.342 218.76 10.694 218.994 10.214 219.462C9.72199 219.918 9.47599 220.506 9.47599 221.226C9.47599 221.946 9.72199 222.54 10.214 223.008C10.694 223.476 11.342 223.71 12.158 223.71C12.974 223.71 13.628 223.476 14.12 223.008C14.6 222.54 14.84 221.946 14.84 221.226ZM8.59399 210.637C8.12599 210.301 7.77199 209.851 7.53199 209.287C7.29199 208.711 7.17199 208.051 7.17199 207.307L9.76399 207.307C9.73999 207.619 9.72799 207.829 9.72799 207.937C9.72799 208.741 9.95599 209.371 10.412 209.827C10.856 210.283 11.528 210.511 12.428 210.511L17 210.511L17 213.319L7.31599 213.319L7.31599 210.637L8.59399 210.637ZM16.532 198.337C16.736 198.613 16.892 198.955 17 199.363C17.096 199.759 17.144 200.179 17.144 200.623C17.144 201.775 16.85 202.669 16.262 203.305C15.674 203.929 14.81 204.241 13.67 204.241L9.69199 204.241L9.69199 205.735L7.53199 205.735L7.53199 204.241L5.17399 204.241L5.17399 201.433L7.53199 201.433L7.53199 199.021L9.69199 199.021L9.69199 201.433L13.634 201.433C14.042 201.433 14.36 201.331 14.588 201.127C14.804 200.911 14.912 200.611 14.912 200.227C14.912 199.783 14.792 199.405 14.552 199.093L16.532 198.337ZM7.31599 196.041L7.31599 193.233L17 193.233L17 196.041L7.31599 196.041ZM5.96599 194.637C5.96599 195.153 5.81599 195.573 5.51599 195.897C5.21599 196.221 4.84399 196.383 4.39999 196.383C3.95599 196.383 3.58399 196.221 3.28399 195.897C2.98399 195.573 2.83399 195.153 2.83399 194.637C2.83399 194.121 2.97799 193.701 3.26599 193.377C3.55399 193.053 3.91399 192.891 4.34599 192.891C4.81399 192.891 5.20399 193.053 5.51599 193.377C5.81599 193.701 5.96599 194.121 5.96599 194.637ZM17.144 185.299C17.144 186.319 16.934 187.237 16.514 188.053C16.082 188.857 15.488 189.487 14.732 189.943C13.976 190.399 13.118 190.627 12.158 190.627C11.198 190.627 10.34 190.399 9.58399 189.943C8.82799 189.487 8.23999 188.857 7.81999 188.053C7.38799 187.237 7.17199 186.319 7.17199 185.299C7.17199 184.279 7.38799 183.367 7.81999 182.563C8.23999 181.759 8.82799 181.129 9.58399 180.673C10.34 180.217 11.198 179.989 12.158 179.989C13.118 179.989 13.976 180.217 14.732 180.673C15.488 181.129 16.082 181.759 16.514 182.563C16.934 183.367 17.144 184.279 17.144 185.299ZM14.84 185.299C14.84 184.579 14.6 183.991 14.12 183.535C13.628 183.067 12.974 182.833 12.158 182.833C11.342 182.833 10.694 183.067 10.214 183.535C9.72199 183.991 9.47599 184.579 9.47599 185.299C9.47599 186.019 9.72199 186.613 10.214 187.081C10.694 187.549 11.342 187.783 12.158 187.783C12.974 187.783 13.628 187.549 14.12 187.081C14.6 186.613 14.84 186.019 14.84 185.299ZM7.17199 171.506C7.17199 170.306 7.53199 169.34 8.25199 168.608C8.97199 167.864 10.04 167.492 11.456 167.492L17 167.492L17 170.3L11.888 170.3C11.12 170.3 10.55 170.468 10.178 170.804C9.79399 171.14 9.60199 171.626 9.60199 172.262C9.60199 172.97 9.82399 173.534 10.268 173.954C10.7 174.374 11.348 174.584 12.212 174.584L17 174.584L17 177.392L7.31599 177.392L7.31599 174.71L8.44999 174.71C8.04199 174.338 7.72999 173.876 7.51399 173.324C7.28599 172.772 7.17199 172.166 7.17199 171.506ZM17.144 160.968C17.144 161.772 17.048 162.558 16.856 163.326C16.652 164.094 16.4 164.706 16.1 165.162L14.084 164.226C14.36 163.794 14.588 163.272 14.768 162.66C14.936 162.048 15.02 161.448 15.02 160.86C15.02 159.672 14.726 159.078 14.138 159.078C13.862 159.078 13.664 159.24 13.544 159.564C13.424 159.888 13.322 160.386 13.238 161.058C13.118 161.85 12.98 162.504 12.824 163.02C12.668 163.536 12.392 163.986 11.996 164.37C11.6 164.742 11.036 164.928 10.304 164.928C9.69199 164.928 9.15199 164.754 8.68399 164.406C8.20399 164.046 7.83199 163.53 7.56799 162.858C7.30399 162.174 7.17199 161.37 7.17199 160.446C7.17199 159.762 7.24999 159.084 7.40599 158.412C7.54999 157.728 7.75399 157.164 8.01799 156.72L10.016 157.656C9.53599 158.508 9.29599 159.438 9.29599 160.446C9.29599 161.046 9.37999 161.496 9.54799 161.796C9.71599 162.096 9.93199 162.246 10.196 162.246C10.496 162.246 10.706 162.084 10.826 161.76C10.946 161.436 11.06 160.92 11.168 160.212C11.3 159.42 11.444 158.772 11.6 158.268C11.744 157.764 12.014 157.326 12.41 156.954C12.806 156.582 13.358 156.396 14.066 156.396C14.666 156.396 15.2 156.576 15.668 156.936C16.136 157.296 16.502 157.824 16.766 158.52C17.018 159.204 17.144 160.02 17.144 160.968Z" fill="white"/>
</svg>
