<svg width="62" height="208" viewBox="0 0 62 208" fill="none" xmlns="http://www.w3.org/2000/svg">
<path d="M2.592 192.496L3.04696 192.703L3.04808 192.701L2.592 192.496ZM14.048 189.104L14.3202 188.685L14.3169 188.682L14.048 189.104ZM16.864 192.496L17.3215 192.294L17.3201 192.291L16.864 192.496ZM17.824 202.16L17.324 202.16L17.324 202.66L17.824 202.66L17.824 202.16ZM24 202.16L24.5 202.16L24.5 201.66L24 201.66L24 202.16ZM24 207.344L24 207.844L24.5 207.844L24.5 207.344L24 207.344ZM1.6 207.344L1.1 207.344L1.1 207.844L1.6 207.844L1.6 207.344ZM12.608 194.384L12.9955 194.068L12.9905 194.062L12.608 194.384ZM6.848 194.384L7.2305 194.706L7.23543 194.7L6.848 194.384ZM5.824 202.16L5.324 202.16L5.324 202.66L5.824 202.66L5.824 202.16ZM13.6 202.16L13.6 202.66L14.1 202.66L14.1 202.16L13.6 202.16ZM2.1 197.648C2.1 195.719 2.42163 194.075 3.04695 192.703L2.13704 192.289C1.4397 193.818 1.1 195.609 1.1 197.648L2.1 197.648ZM3.04808 192.701C3.67463 191.306 4.5538 190.255 5.68023 189.523L5.13576 188.685C3.83019 189.532 2.83203 190.742 2.13591 192.291L3.04808 192.701ZM5.68023 189.523C6.80371 188.794 8.14597 188.42 9.728 188.42L9.728 187.42C7.98202 187.42 6.44428 187.835 5.13576 188.685L5.68023 189.523ZM9.728 188.42C11.2871 188.42 12.6314 188.793 13.7791 189.526L14.3169 188.682C12.9899 187.836 11.4542 187.42 9.728 187.42L9.728 188.42ZM13.7758 189.523C14.9022 190.255 15.7814 191.306 16.4079 192.701L17.3201 192.291C16.624 190.742 15.6258 189.532 14.3202 188.685L13.7758 189.523ZM16.4065 192.698C17.0124 194.071 17.324 195.717 17.324 197.648L18.324 197.648C18.324 195.611 17.9956 193.822 17.3215 192.294L16.4065 192.698ZM17.324 197.648L17.324 202.16L18.324 202.16L18.324 197.648L17.324 197.648ZM17.824 202.66L24 202.66L24 201.66L17.824 201.66L17.824 202.66ZM23.5 202.16L23.5 207.344L24.5 207.344L24.5 202.16L23.5 202.16ZM24 206.844L1.6 206.844L1.6 207.844L24 207.844L24 206.844ZM2.1 207.344L2.1 197.648L1.1 197.648L1.1 207.344L2.1 207.344ZM14.1 197.936C14.1 196.318 13.7577 195.002 12.9954 194.068L12.2206 194.7C12.781 195.387 13.1 196.44 13.1 197.936L14.1 197.936ZM12.9905 194.062C12.1964 193.119 11.0854 192.668 9.728 192.668L9.728 193.668C10.8453 193.668 11.6542 194.028 12.2255 194.706L12.9905 194.062ZM9.728 192.668C8.35287 192.668 7.23631 193.117 6.46057 194.068L7.23543 194.7C7.78235 194.03 8.5858 193.668 9.728 193.668L9.728 192.668ZM6.46554 194.062C5.67833 194.997 5.324 196.315 5.324 197.936L6.324 197.936C6.324 196.443 6.65234 195.393 7.23045 194.706L6.46554 194.062ZM5.324 197.936L5.324 202.16L6.324 202.16L6.324 197.936L5.324 197.936ZM5.824 202.66L13.6 202.66L13.6 201.66L5.824 201.66L5.824 202.66ZM14.1 202.16L14.1 197.936L13.1 197.936L13.1 202.16L14.1 202.16ZM16.8 166.554L17.3 166.554L17.3 166.091L16.8383 166.056L16.8 166.554ZM16.8 179.578L16.3 179.578L16.3 180.2L16.9074 180.067L16.8 179.578ZM19.328 177.914L18.9198 177.626L18.9198 177.626L19.328 177.914ZM19.872 172.282L20.3402 172.107L20.3372 172.099L19.872 172.282ZM18.592 170.33L18.253 169.963L17.8772 170.309L18.2321 170.677L18.592 170.33ZM21.472 167.674L21.8009 167.298L21.4629 167.002L21.133 167.307L21.472 167.674ZM23.136 179.93L23.5807 180.159L23.5832 180.154L23.136 179.93ZM19.968 183.386L20.2262 183.814L20.2262 183.814L19.968 183.386ZM10.848 183.418L10.5927 183.848L10.5948 183.849L10.848 183.418ZM7.68 180.122L8.12024 179.885L8.11894 179.883L7.68 180.122ZM7.616 170.842L7.17444 170.608L7.17444 170.608L7.616 170.842ZM10.752 167.642L10.9972 168.078L11.0052 168.073L10.752 167.642ZM11.264 178.234L10.8799 178.554L10.8799 178.554L11.264 178.234ZM13.888 179.642L13.812 180.136L14.388 180.225L14.388 179.642L13.888 179.642ZM13.888 171.162L14.388 171.162L14.388 170.578L13.8105 170.668L13.888 171.162ZM11.296 172.57L11.6749 172.897L11.6801 172.89L11.296 172.57ZM15.456 166.958C15.4528 166.958 15.475 166.959 15.5448 166.963C15.6066 166.967 15.6929 166.973 15.8044 166.981C16.027 166.997 16.3459 167.021 16.7616 167.053L16.8383 166.056C16.0249 165.993 15.5453 165.958 15.456 165.958L15.456 166.958ZM16.3 166.554L16.3 179.578L17.3 179.578L17.3 166.554L16.3 166.554ZM16.9074 180.067C18.0931 179.806 19.0441 179.181 19.7362 178.203L18.9198 177.626C18.3746 178.396 17.6402 178.881 16.6926 179.09L16.9074 180.067ZM19.7362 178.203C20.4264 177.227 20.756 176.032 20.756 174.65L19.756 174.65C19.756 175.871 19.4669 176.852 18.9198 177.626L19.7362 178.203ZM20.756 174.65C20.756 173.708 20.6214 172.857 20.3402 172.107L19.4038 172.458C19.6346 173.073 19.756 173.801 19.756 174.65L20.756 174.65ZM20.3372 172.099C20.0336 171.328 19.569 170.623 18.9519 169.983L18.2321 170.677C18.767 171.232 19.1557 171.828 19.4068 172.466L20.3372 172.099ZM18.931 170.698L21.811 168.042L21.133 167.307L18.253 169.963L18.931 170.698ZM21.1431 168.051C22.8629 169.553 23.756 171.767 23.756 174.778L24.756 174.778C24.756 171.56 23.7931 169.038 21.8009 167.298L21.1431 168.051ZM23.756 174.778C23.756 176.655 23.3955 178.293 22.6888 179.707L23.5832 180.154C24.3698 178.581 24.756 176.785 24.756 174.778L23.756 174.778ZM22.6914 179.702C21.9627 181.118 20.9687 182.199 19.7098 182.958L20.2262 183.814C21.6553 182.952 22.7733 181.729 23.5806 180.159L22.6914 179.702ZM19.7098 182.958C18.4504 183.718 17.0159 184.102 15.392 184.102L15.392 185.102C17.1815 185.102 18.7976 184.676 20.2262 183.814L19.7098 182.958ZM15.392 184.102C13.7882 184.102 12.3622 183.728 11.1012 182.987L10.5948 183.849C12.0218 184.687 13.6251 185.102 15.392 185.102L15.392 184.102ZM11.1033 182.988C9.81527 182.224 8.82351 181.191 8.12023 179.885L7.23976 180.359C8.02981 181.827 9.15006 182.992 10.5927 183.848L11.1033 182.988ZM8.11894 179.883C7.39408 178.554 7.028 177.069 7.028 175.418L6.028 175.418C6.028 177.223 6.42992 178.875 7.24105 180.362L8.11894 179.883ZM7.028 175.418C7.028 173.807 7.37398 172.364 8.05756 171.077L7.17444 170.608C6.40735 172.052 6.028 173.659 6.028 175.418L7.028 175.418ZM8.05756 171.077C8.73738 169.797 9.714 168.8 10.9971 168.078L10.5069 167.206C9.05933 168.021 7.94528 169.157 7.17444 170.608L8.05756 171.077ZM11.0052 168.073C12.2616 167.336 13.7395 166.958 15.456 166.958L15.456 165.958C13.5885 165.958 11.9304 166.37 10.4988 167.211L11.0052 168.073ZM9.804 175.386C9.804 176.618 10.1552 177.685 10.8799 178.554L11.6481 177.914C11.0928 177.248 10.804 176.416 10.804 175.386L9.804 175.386ZM10.8799 178.554C11.6076 179.428 12.598 179.95 13.812 180.136L13.964 179.148C12.9593 178.993 12.2004 178.577 11.6481 177.914L10.8799 178.554ZM14.388 179.642L14.388 171.162L13.388 171.162L13.388 179.642L14.388 179.642ZM13.8105 170.668C12.6157 170.856 11.6377 171.379 10.9119 172.25L11.6801 172.89C12.2343 172.225 12.9843 171.81 13.9655 171.656L13.8105 170.668ZM10.9171 172.244C10.17 173.112 9.804 174.169 9.804 175.386L10.804 175.386C10.804 174.384 11.0993 173.565 11.6749 172.897L10.9171 172.244ZM9.056 157.087L9.056 157.587L10.6098 157.587L9.3476 156.681L9.056 157.087ZM7.168 154.687L6.70645 154.879L6.70792 154.883L7.168 154.687ZM6.528 151.167L6.528 150.667L6.028 150.667L6.028 151.167L6.528 151.167ZM11.136 151.167L11.6345 151.205L11.6759 150.667L11.136 150.667L11.136 151.167ZM12.288 155.647L12.6463 155.298L12.6416 155.293L12.288 155.647ZM24 156.863L24.5 156.863L24.5 156.363L24 156.363L24 156.863ZM24 161.855L24 162.355L24.5 162.355L24.5 161.855L24 161.855ZM6.784 161.855L6.284 161.855L6.284 162.355L6.784 162.355L6.784 161.855ZM6.784 157.087L6.784 156.587L6.284 156.587L6.284 157.087L6.784 157.087ZM9.3476 156.681C8.59475 156.14 8.02128 155.415 7.62807 154.491L6.70792 154.883C7.16804 155.964 7.85324 156.839 8.76439 157.493L9.3476 156.681ZM7.62954 154.494C7.23264 153.542 7.028 152.436 7.028 151.167L6.028 151.167C6.028 152.543 6.25002 153.784 6.70646 154.879L7.62954 154.494ZM6.528 151.667L11.136 151.667L11.136 150.667L6.528 150.667L6.528 151.667ZM10.6375 151.128C10.595 151.68 10.572 152.073 10.572 152.287L11.572 152.287C11.572 152.117 11.5916 151.762 11.6345 151.205L10.6375 151.128ZM10.572 152.287C10.572 153.814 11.0081 155.074 11.9344 156L12.6416 155.293C11.9466 154.598 11.572 153.618 11.572 152.287L10.572 152.287ZM11.9298 155.996C12.8465 156.937 14.1938 157.363 15.872 157.363L15.872 156.363C14.3502 156.363 13.3081 155.978 12.6462 155.298L11.9298 155.996ZM15.872 157.363L24 157.363L24 156.363L15.872 156.363L15.872 157.363ZM23.5 156.863L23.5 161.855L24.5 161.855L24.5 156.863L23.5 156.863ZM24 161.355L6.784 161.355L6.784 162.355L24 162.355L24 161.355ZM7.284 161.855L7.284 157.087L6.284 157.087L6.284 161.855L7.284 161.855ZM6.784 157.587L9.056 157.587L9.056 156.587L6.784 156.587L6.784 157.587ZM7.168 141.321L7.168 141.821L7.668 141.821L7.668 141.321L7.168 141.321ZM7.168 136.905L7.168 136.405L6.668 136.405L6.668 136.905L7.168 136.905ZM11.008 136.905L11.508 136.905L11.508 136.405L11.008 136.405L11.008 136.905ZM11.008 141.193L10.508 141.193L10.508 141.693L11.008 141.693L11.008 141.193ZM24 141.193L24.5 141.193L24.5 140.693L24 140.693L24 141.193ZM24 146.185L24 146.685L24.5 146.685L24.5 146.185L24 146.185ZM11.008 146.185L11.008 145.685L10.508 145.685L10.508 146.185L11.008 146.185ZM11.008 148.841L11.008 149.341L11.508 149.341L11.508 148.841L11.008 148.841ZM7.168 148.841L6.668 148.841L6.668 149.341L7.168 149.341L7.168 148.841ZM7.168 146.185L7.668 146.185L7.668 145.685L7.168 145.685L7.168 146.185ZM1.728 144.457L1.3712 144.808L1.37444 144.811L1.728 144.457ZM0.255995 137.417L0.740134 137.542L0.742458 137.533L0.744445 137.524L0.255995 137.417ZM0.927996 135.721L1.09853 135.251L0.729646 135.118L0.511971 135.444L0.927996 135.721ZM4.544 137.033L4.9529 137.321L5.3292 136.787L4.71453 136.563L4.544 137.033ZM7.668 141.321L7.668 136.905L6.668 136.905L6.668 141.321L7.668 141.321ZM7.168 137.405L11.008 137.405L11.008 136.405L7.168 136.405L7.168 137.405ZM10.508 136.905L10.508 141.193L11.508 141.193L11.508 136.905L10.508 136.905ZM11.008 141.693L24 141.693L24 140.693L11.008 140.693L11.008 141.693ZM23.5 141.193L23.5 146.185L24.5 146.185L24.5 141.193L23.5 141.193ZM24 145.685L11.008 145.685L11.008 146.685L24 146.685L24 145.685ZM10.508 146.185L10.508 148.841L11.508 148.841L11.508 146.185L10.508 146.185ZM11.008 148.341L7.168 148.341L7.168 149.341L11.008 149.341L11.008 148.341ZM7.668 148.841L7.668 146.185L6.668 146.185L6.668 148.841L7.668 148.841ZM7.168 145.685L6.4 145.685L6.4 146.685L7.168 146.685L7.168 145.685ZM6.4 145.685C4.54092 145.685 3.12108 145.143 2.08155 144.104L1.37444 144.811C2.63891 146.076 4.33374 146.685 6.4 146.685L6.4 145.685ZM2.08478 144.107C1.04862 143.052 0.499995 141.549 0.499995 139.529L-0.500005 139.529C-0.500005 141.734 0.103367 143.516 1.37121 144.808L2.08478 144.107ZM0.499995 139.529C0.499995 138.821 0.580927 138.159 0.740134 137.542L-0.228143 137.293C-0.41027 137.998 -0.500005 138.745 -0.500005 139.529L0.499995 139.529ZM0.744445 137.524C0.88424 136.885 1.0885 136.382 1.34402 135.999L0.511971 135.444C0.170156 135.957 -0.0735809 136.584 -0.232454 137.311L0.744445 137.524ZM0.757459 136.192L4.37346 137.504L4.71453 136.563L1.09853 135.251L0.757459 136.192ZM4.13509 136.746C3.66509 137.414 3.436 138.188 3.436 139.049L4.436 139.049C4.436 138.375 4.61224 137.805 4.9529 137.321L4.13509 136.746ZM3.436 139.049C3.436 139.897 3.67083 140.62 4.22342 141.123C4.7671 141.618 5.53395 141.821 6.432 141.821L6.432 140.821C5.66604 140.821 5.18489 140.646 4.89657 140.384C4.61716 140.129 4.436 139.717 4.436 139.049L3.436 139.049ZM6.432 141.821L7.168 141.821L7.168 140.821L6.432 140.821L6.432 141.821ZM16.8 116.589L17.3 116.589L17.3 116.126L16.8383 116.091L16.8 116.589ZM16.8 129.613L16.3 129.613L16.3 130.235L16.9074 130.102L16.8 129.613ZM19.328 127.949L18.9198 127.661L18.9198 127.661L19.328 127.949ZM19.872 122.317L20.3402 122.142L20.3372 122.134L19.872 122.317ZM18.592 120.365L18.253 119.998L17.8772 120.344L18.2321 120.712L18.592 120.365ZM21.472 117.709L21.8009 117.333L21.4629 117.037L21.133 117.342L21.472 117.709ZM23.136 129.965L23.5807 130.194L23.5832 130.189L23.136 129.965ZM19.968 133.421L20.2262 133.849L20.2262 133.849L19.968 133.421ZM10.848 133.453L10.5927 133.883L10.5948 133.884L10.848 133.453ZM7.67999 130.157L8.12024 129.92L8.11894 129.918L7.67999 130.157ZM7.616 120.877L7.17444 120.643L7.17444 120.643L7.616 120.877ZM10.752 117.677L10.9972 118.113L11.0052 118.108L10.752 117.677ZM11.264 128.269L10.8799 128.589L10.8799 128.589L11.264 128.269ZM13.888 129.677L13.812 130.171L14.388 130.26L14.388 129.677L13.888 129.677ZM13.888 121.197L14.388 121.197L14.388 120.613L13.8105 120.703L13.888 121.197ZM11.296 122.605L11.6749 122.932L11.6801 122.925L11.296 122.605ZM15.456 116.993C15.4528 116.993 15.475 116.994 15.5448 116.998C15.6066 117.002 15.6929 117.008 15.8044 117.016C16.027 117.032 16.3459 117.056 16.7616 117.088L16.8383 116.091C16.0249 116.028 15.5453 115.993 15.456 115.993L15.456 116.993ZM16.3 116.589L16.3 129.613L17.3 129.613L17.3 116.589L16.3 116.589ZM16.9074 130.102C18.0931 129.841 19.0441 129.216 19.7362 128.238L18.9198 127.661C18.3746 128.431 17.6402 128.916 16.6926 129.125L16.9074 130.102ZM19.7362 128.238C20.4264 127.262 20.756 126.067 20.756 124.685L19.756 124.685C19.756 125.906 19.4669 126.887 18.9198 127.661L19.7362 128.238ZM20.756 124.685C20.756 123.743 20.6214 122.892 20.3402 122.142L19.4038 122.493C19.6346 123.108 19.756 123.836 19.756 124.685L20.756 124.685ZM20.3372 122.134C20.0336 121.363 19.569 120.658 18.9519 120.018L18.2321 120.712C18.767 121.267 19.1557 121.863 19.4068 122.501L20.3372 122.134ZM18.931 120.733L21.811 118.077L21.133 117.342L18.253 119.998L18.931 120.733ZM21.1431 118.086C22.8629 119.588 23.756 121.802 23.756 124.813L24.756 124.813C24.756 121.595 23.7931 119.073 21.8009 117.333L21.1431 118.086ZM23.756 124.813C23.756 126.69 23.3955 128.328 22.6888 129.742L23.5832 130.189C24.3698 128.616 24.756 126.82 24.756 124.813L23.756 124.813ZM22.6914 129.737C21.9627 131.153 20.9687 132.234 19.7097 132.993L20.2262 133.849C21.6553 132.987 22.7733 131.764 23.5806 130.194L22.6914 129.737ZM19.7098 132.993C18.4504 133.753 17.0159 134.137 15.392 134.137L15.392 135.137C17.1815 135.137 18.7976 134.711 20.2262 133.849L19.7098 132.993ZM15.392 134.137C13.7882 134.137 12.3622 133.763 11.1012 133.022L10.5948 133.884C12.0218 134.722 13.6251 135.137 15.392 135.137L15.392 134.137ZM11.1033 133.023C9.81527 132.259 8.82351 131.226 8.12023 129.92L7.23976 130.394C8.02981 131.862 9.15006 133.027 10.5927 133.883L11.1033 133.023ZM8.11894 129.918C7.39408 128.589 7.028 127.104 7.028 125.453L6.028 125.453C6.028 127.258 6.42992 128.91 7.24105 130.397L8.11894 129.918ZM7.028 125.453C7.028 123.842 7.37398 122.399 8.05755 121.112L7.17444 120.643C6.40734 122.087 6.028 123.694 6.028 125.453L7.028 125.453ZM8.05755 121.112C8.73738 119.832 9.714 118.835 10.9971 118.113L10.5069 117.241C9.05933 118.056 7.94528 119.192 7.17444 120.643L8.05755 121.112ZM11.0052 118.108C12.2616 117.371 13.7395 116.993 15.456 116.993L15.456 115.993C13.5885 115.993 11.9304 116.405 10.4988 117.246L11.0052 118.108ZM9.804 125.421C9.804 126.653 10.1552 127.72 10.8799 128.589L11.6481 127.949C11.0928 127.283 10.804 126.451 10.804 125.421L9.804 125.421ZM10.8799 128.589C11.6076 129.463 12.598 129.985 13.812 130.171L13.964 129.183C12.9593 129.028 12.2004 128.612 11.6481 127.949L10.8799 128.589ZM14.388 129.677L14.388 121.197L13.388 121.197L13.388 129.677L14.388 129.677ZM13.8105 120.703C12.6157 120.891 11.6377 121.414 10.9119 122.285L11.6801 122.925C12.2343 122.26 12.9843 121.845 13.9655 121.691L13.8105 120.703ZM10.9171 122.279C10.17 123.147 9.804 124.204 9.804 125.421L10.804 125.421C10.804 124.419 11.0993 123.6 11.6749 122.932L10.9171 122.279ZM23.136 108.53L23.578 108.764L23.5819 108.756L23.136 108.53ZM19.968 111.954L20.2263 112.382L20.2312 112.379L19.968 111.954ZM10.816 111.954L10.5528 112.379L10.5577 112.382L10.816 111.954ZM7.67999 108.53L8.12457 108.301L8.12329 108.298L7.67999 108.53ZM7.67999 98.8337L8.11419 99.0819L8.11868 99.0737L7.67999 98.8337ZM10.912 95.8577L11.3525 95.6211L11.1338 95.2141L10.7109 95.4L10.912 95.8577ZM12.992 99.7297L13.2388 100.165L13.6636 99.9235L13.4325 99.4931L12.992 99.7297ZM11.904 106.834L11.5504 107.187L11.5504 107.187L11.904 106.834ZM17.792 99.7297L17.353 99.4903L17.1152 99.9264L17.5497 100.167L17.792 99.7297ZM19.904 95.8577L20.1104 95.4023L19.6874 95.2107L19.465 95.6183L19.904 95.8577ZM23.104 98.8337L22.6682 99.0789L22.6699 99.0818L23.104 98.8337ZM23.756 103.57C23.756 105.335 23.3974 106.909 22.6901 108.304L23.5819 108.756C24.3679 107.206 24.756 105.474 24.756 103.57L23.756 103.57ZM22.6941 108.296C21.966 109.671 20.9704 110.745 19.7048 111.529L20.2312 112.379C21.6536 111.498 22.77 110.29 23.5779 108.764L22.6941 108.296ZM19.7097 111.526C18.4504 112.285 17.0159 112.67 15.392 112.67L15.392 113.67C17.1815 113.67 18.7975 113.244 20.2262 112.382L19.7097 111.526ZM15.392 112.67C13.7681 112.67 12.3335 112.285 11.0742 111.526L10.5577 112.382C11.9864 113.244 13.6025 113.67 15.392 113.67L15.392 112.67ZM11.0792 111.529C9.81489 110.746 8.8311 109.674 8.12456 108.301L7.23543 108.759C8.02222 110.287 9.1291 111.498 10.5528 112.379L11.0792 111.529ZM8.12329 108.298C7.39633 106.905 7.028 105.332 7.028 103.57L6.028 103.57C6.028 105.476 6.42766 107.21 7.2367 108.761L8.12329 108.298ZM7.028 103.57C7.028 101.828 7.39618 100.338 8.11412 99.0818L7.24587 98.5857C6.42781 100.017 6.028 101.684 6.028 103.57L7.028 103.57ZM8.11868 99.0737C8.81306 97.8039 9.80748 96.8892 11.1131 96.3155L10.7109 95.4C9.20051 96.0636 8.04026 97.1329 7.24131 98.5938L8.11868 99.0737ZM10.4715 96.0944L12.5515 99.9664L13.4325 99.4931L11.3525 95.6211L10.4715 96.0944ZM12.7452 99.2949C11.0248 100.271 10.124 101.72 10.124 103.602L11.124 103.602C11.124 102.113 11.8019 100.98 13.2388 100.165L12.7452 99.2949ZM10.124 103.602C10.124 105.024 10.5955 106.232 11.5504 107.187L12.2575 106.48C11.5058 105.728 11.124 104.782 11.124 103.602L10.124 103.602ZM11.5504 107.187C12.5174 108.154 13.8184 108.614 15.392 108.614L15.392 107.614C14.0216 107.614 12.9972 107.22 12.2575 106.48L11.5504 107.187ZM15.392 108.614C16.9656 108.614 18.2666 108.154 19.2335 107.187L18.5264 106.48C17.7867 107.22 16.7624 107.614 15.392 107.614L15.392 108.614ZM19.2335 107.187C20.1885 106.232 20.66 105.024 20.66 103.602L19.66 103.602C19.66 104.782 19.2782 105.728 18.5264 106.48L19.2335 107.187ZM20.66 103.602C20.66 102.668 20.4432 101.826 19.9945 101.093C19.5468 100.361 18.8847 99.7635 18.0343 99.2924L17.5497 100.167C18.278 100.571 18.7999 101.056 19.1414 101.615C19.4821 102.172 19.66 102.828 19.66 103.602L20.66 103.602ZM18.2309 99.9692L20.3429 96.0972L19.465 95.6183L17.353 99.4903L18.2309 99.9692ZM19.6976 96.3132C20.9615 96.8859 21.9499 97.8018 22.6682 99.0789L23.5398 98.5886C22.7221 97.135 21.5772 96.067 20.1104 95.4023L19.6976 96.3132ZM22.6699 99.0818C23.3878 100.338 23.756 101.828 23.756 103.57L24.756 103.57C24.756 101.684 24.3562 100.017 23.5381 98.5857L22.6699 99.0818ZM23.168 80.3495L23.5701 80.0523L23.3444 79.7469L22.9896 79.8824L23.168 80.3495ZM24 82.1735L24.486 82.0557L24.4833 82.0456L24 82.1735ZM22.688 89.1815L23.0519 89.5244L23.0551 89.5209L22.688 89.1815ZM11.008 90.8455L11.008 90.3455L10.508 90.3455L10.508 90.8455L11.008 90.8455ZM11.008 93.5015L11.008 94.0015L11.508 94.0015L11.508 93.5015L11.008 93.5015ZM7.16799 93.5015L6.66799 93.5015L6.66799 94.0015L7.16799 94.0015L7.16799 93.5015ZM7.16799 90.8455L7.66799 90.8455L7.66799 90.3455L7.16799 90.3455L7.16799 90.8455ZM2.97599 90.8455L2.47599 90.8455L2.47599 91.3455L2.97599 91.3455L2.97599 90.8455ZM2.97599 85.8535L2.97599 85.3535L2.47599 85.3535L2.47599 85.8535L2.97599 85.8535ZM7.16799 85.8535L7.16799 86.3535L7.66799 86.3535L7.66799 85.8535L7.16799 85.8535ZM7.16799 81.5655L7.16799 81.0655L6.66799 81.0655L6.66799 81.5655L7.16799 81.5655ZM11.008 81.5655L11.508 81.5655L11.508 81.0655L11.008 81.0655L11.008 81.5655ZM11.008 85.8535L10.508 85.8535L10.508 86.3535L11.008 86.3535L11.008 85.8535ZM19.712 85.3095L20.0454 85.6821L20.0557 85.6729L20.0655 85.6631L19.712 85.3095ZM19.648 81.6935L19.4696 81.2264L18.8422 81.466L19.2517 81.9984L19.648 81.6935ZM22.7659 80.6467C23.0835 81.0764 23.3372 81.6236 23.5166 82.3014L24.4833 82.0456C24.2788 81.2728 23.9778 80.6039 23.5701 80.0523L22.7659 80.6467ZM23.5141 82.2913C23.6746 82.9535 23.756 83.6603 23.756 84.4135L24.756 84.4135C24.756 83.588 24.6667 82.8015 24.4859 82.0557L23.5141 82.2913ZM23.756 84.4135C23.756 86.3781 23.2558 87.8308 22.3209 88.8421L23.0551 89.5209C24.2109 88.2708 24.756 86.5449 24.756 84.4135L23.756 84.4135ZM22.3241 88.8386C21.4015 89.8177 20.0163 90.3455 18.08 90.3455L18.08 91.3455C20.197 91.3455 21.8839 90.7639 23.0519 89.5244L22.3241 88.8386ZM18.08 90.3455L11.008 90.3455L11.008 91.3455L18.08 91.3455L18.08 90.3455ZM10.508 90.8455L10.508 93.5015L11.508 93.5015L11.508 90.8455L10.508 90.8455ZM11.008 93.0015L7.16799 93.0015L7.16799 94.0015L11.008 94.0015L11.008 93.0015ZM7.66799 93.5015L7.66799 90.8455L6.66799 90.8455L6.66799 93.5015L7.66799 93.5015ZM7.16799 90.3455L2.97599 90.3455L2.97599 91.3455L7.16799 91.3455L7.16799 90.3455ZM3.47599 90.8455L3.47599 85.8535L2.47599 85.8535L2.47599 90.8455L3.47599 90.8455ZM2.97599 86.3535L7.16799 86.3535L7.16799 85.3535L2.97599 85.3535L2.97599 86.3535ZM7.66799 85.8535L7.66799 81.5655L6.66799 81.5655L6.66799 85.8535L7.66799 85.8535ZM7.16799 82.0655L11.008 82.0655L11.008 81.0655L7.16799 81.0655L7.16799 82.0655ZM10.508 81.5655L10.508 85.8535L11.508 85.8535L11.508 81.5655L10.508 81.5655ZM11.008 86.3535L18.016 86.3535L18.016 85.3535L11.008 85.3535L11.008 86.3535ZM18.016 86.3535C18.8226 86.3535 19.5214 86.1509 20.0454 85.6821L19.3786 84.9369C19.0919 85.1934 18.66 85.3535 18.016 85.3535L18.016 86.3535ZM20.0655 85.6631C20.566 85.1626 20.788 84.4888 20.788 83.7095L19.788 83.7095C19.788 84.2955 19.626 84.6884 19.3584 84.9559L20.0655 85.6631ZM20.788 83.7095C20.788 82.8247 20.5467 82.0418 20.0443 81.3886L19.2517 81.9984C19.6026 82.4545 19.788 83.0156 19.788 83.7095L20.788 83.7095ZM19.8263 82.1606L23.3463 80.8166L22.9896 79.8824L19.4696 81.2264L19.8263 82.1606ZM38.648 193.168L39.0818 193.417L39.0864 193.408L38.648 193.168ZM41.752 190.064L41.9948 190.501L41.9978 190.499L41.752 190.064ZM51.064 190.064L51.3098 189.629L51.3068 189.627L51.064 190.064ZM54.168 193.168L54.6047 192.925L54.6034 192.922L54.168 193.168ZM53.176 202.704L52.8399 202.334L51.8812 203.204L53.176 203.204L53.176 202.704ZM61.208 202.704L61.708 202.704L61.708 202.204L61.208 202.204L61.208 202.704ZM61.208 207.696L61.208 208.196L61.708 208.196L61.708 207.696L61.208 207.696ZM37.784 207.696L37.284 207.696L37.284 208.196L37.784 208.196L37.784 207.696ZM37.784 202.928L37.784 202.428L37.284 202.428L37.284 202.928L37.784 202.928ZM39.768 202.928L39.768 203.428L41.1551 203.428L40.087 202.543L39.768 202.928ZM49.88 195.248L49.5354 195.61L49.5356 195.61L49.88 195.248ZM42.936 195.248L43.276 195.615L43.285 195.606L42.936 195.248ZM42.936 201.552L42.5914 201.914L42.5916 201.914L42.936 201.552ZM49.88 201.552L50.22 201.919L50.229 201.91L49.88 201.552ZM38.028 197.52C38.028 196.001 38.3814 194.637 39.0817 193.417L38.2143 192.919C37.4213 194.301 37.028 195.839 37.028 197.52L38.028 197.52ZM39.0864 193.408C39.7655 192.17 40.7316 191.203 41.9948 190.501L41.5092 189.627C40.0844 190.418 38.9812 191.521 38.2096 192.928L39.0864 193.408ZM41.9978 190.499C43.2339 189.802 44.6931 189.444 46.392 189.444L46.392 188.444C44.5496 188.444 42.9155 188.833 41.5062 189.629L41.9978 190.499ZM46.392 189.444C48.0907 189.444 49.5621 189.802 50.8212 190.501L51.3068 189.627C49.8779 188.833 48.2346 188.444 46.392 188.444L46.392 189.444ZM50.8182 190.499C52.0616 191.201 53.0307 192.17 53.7326 193.414L54.6034 192.922C53.812 191.52 52.7118 190.42 51.3098 189.629L50.8182 190.499ZM53.7313 193.411C54.4121 194.633 54.756 195.999 54.756 197.52L55.756 197.52C55.756 195.841 55.3746 194.306 54.6047 192.925L53.7313 193.411ZM54.756 197.52C54.756 199.603 54.1039 201.186 52.8399 202.334L53.5121 203.074C55.0214 201.704 55.756 199.832 55.756 197.52L54.756 197.52ZM53.176 203.204L61.208 203.204L61.208 202.204L53.176 202.204L53.176 203.204ZM60.708 202.704L60.708 207.696L61.708 207.696L61.708 202.704L60.708 202.704ZM61.208 207.196L37.784 207.196L37.784 208.196L61.208 208.196L61.208 207.196ZM38.284 207.696L38.284 202.928L37.284 202.928L37.284 207.696L38.284 207.696ZM37.784 203.428L39.768 203.428L39.768 202.428L37.784 202.428L37.784 203.428ZM40.087 202.543C38.7335 201.422 38.028 199.775 38.028 197.52L37.028 197.52C37.028 200.001 37.8158 201.96 39.449 203.313L40.087 202.543ZM51.66 198.384C51.66 196.98 51.1863 195.799 50.2244 194.885L49.5356 195.61C50.2803 196.318 50.66 197.228 50.66 198.384L51.66 198.384ZM50.2246 194.886C49.2388 193.948 47.9435 193.5 46.392 193.5L46.392 194.5C47.7419 194.5 48.7718 194.884 49.5354 195.61L50.2246 194.886ZM46.392 193.5C44.841 193.5 43.5532 193.948 42.5869 194.89L43.285 195.606C44.0255 194.884 45.0417 194.5 46.392 194.5L46.392 193.5ZM42.5961 194.881C41.6113 195.794 41.124 196.976 41.124 198.384L42.124 198.384C42.124 197.232 42.5114 196.323 43.2759 195.615L42.5961 194.881ZM41.124 198.384C41.124 199.792 41.611 200.982 42.5914 201.914L43.2806 201.19C42.5117 200.458 42.124 199.536 42.124 198.384L41.124 198.384ZM42.5916 201.914C43.5584 202.833 44.8445 203.268 46.392 203.268L46.392 202.268C45.0381 202.268 44.0203 201.892 43.2804 201.189L42.5916 201.914ZM46.392 203.268C47.94 203.268 49.2337 202.833 50.2199 201.919L49.5401 201.185C48.777 201.893 47.7454 202.268 46.392 202.268L46.392 203.268ZM50.229 201.91C51.1866 200.976 51.66 199.788 51.66 198.384L50.66 198.384C50.66 199.54 50.2801 200.464 49.5309 201.194L50.229 201.91ZM40.056 179.554L40.056 180.054L41.6098 180.054L40.3476 179.148L40.056 179.554ZM38.168 177.154L37.7064 177.347L37.7079 177.35L38.168 177.154ZM37.528 173.634L37.528 173.134L37.028 173.134L37.028 173.634L37.528 173.634ZM42.136 173.634L42.6345 173.673L42.6759 173.134L42.136 173.134L42.136 173.634ZM43.288 178.114L43.6463 177.765L43.6416 177.761L43.288 178.114ZM55 179.33L55.5 179.33L55.5 178.83L55 178.83L55 179.33ZM55 184.322L55 184.822L55.5 184.822L55.5 184.322L55 184.322ZM37.784 184.322L37.284 184.322L37.284 184.822L37.784 184.822L37.784 184.322ZM37.784 179.554L37.784 179.054L37.284 179.054L37.284 179.554L37.784 179.554ZM40.3476 179.148C39.5948 178.608 39.0213 177.883 38.6281 176.958L37.7079 177.35C38.168 178.431 38.8532 179.306 39.7644 179.96L40.3476 179.148ZM38.6295 176.962C38.2326 176.009 38.028 174.903 38.028 173.634L37.028 173.634C37.028 175.01 37.25 176.251 37.7065 177.347L38.6295 176.962ZM37.528 174.134L42.136 174.134L42.136 173.134L37.528 173.134L37.528 174.134ZM41.6375 173.596C41.595 174.148 41.572 174.54 41.572 174.754L42.572 174.754C42.572 174.584 42.5917 174.23 42.6345 173.673L41.6375 173.596ZM41.572 174.754C41.572 176.282 42.0081 177.541 42.9344 178.468L43.6416 177.761C42.9466 177.066 42.572 176.086 42.572 174.754L41.572 174.754ZM42.9298 178.463C43.8465 179.405 45.1938 179.83 46.872 179.83L46.872 178.83C45.3502 178.83 44.3081 178.445 43.6462 177.765L42.9298 178.463ZM46.872 179.83L55 179.83L55 178.83L46.872 178.83L46.872 179.83ZM54.5 179.33L54.5 184.322L55.5 184.322L55.5 179.33L54.5 179.33ZM55 183.822L37.784 183.822L37.784 184.822L55 184.822L55 183.822ZM38.284 184.322L38.284 179.554L37.284 179.554L37.284 184.322L38.284 184.322ZM37.784 180.054L40.056 180.054L40.056 179.054L37.784 179.054L37.784 180.054ZM54.136 166.246L54.5765 166.483L54.5806 166.475L54.136 166.246ZM50.968 169.606L51.2262 170.034L51.2262 170.034L50.968 169.606ZM41.816 169.606L41.5578 170.034L41.5578 170.034L41.816 169.606ZM38.68 166.246L39.1232 166.015L39.1219 166.012L38.68 166.246ZM38.68 156.486L39.1205 156.723L39.1232 156.718L38.68 156.486ZM41.816 153.126L41.5578 152.698L41.5577 152.698L41.816 153.126ZM50.968 153.126L51.2262 152.698L51.2262 152.698L50.968 153.126ZM54.136 156.486L54.5792 156.255L54.5764 156.25L54.136 156.486ZM49.88 158.214L49.5354 158.577L49.5356 158.577L49.88 158.214ZM42.936 158.214L43.276 158.581L43.285 158.572L42.936 158.214ZM42.936 164.518L43.2851 164.16L43.2806 164.156L42.936 164.518ZM49.88 164.518L50.2246 164.881L50.229 164.876L49.88 164.518ZM54.756 161.35C54.756 163.093 54.3978 164.645 53.6914 166.017L54.5806 166.475C55.3676 164.946 55.756 163.234 55.756 161.35L54.756 161.35ZM53.6956 166.01C52.9685 167.363 51.9743 168.415 50.7098 169.178L51.2262 170.034C52.6497 169.176 53.7675 167.988 54.5764 166.483L53.6956 166.01ZM50.7098 169.178C49.4504 169.938 48.0159 170.322 46.392 170.322L46.392 171.322C48.1815 171.322 49.7976 170.896 51.2262 170.034L50.7098 169.178ZM46.392 170.322C44.7681 170.322 43.3336 169.938 42.0742 169.178L41.5578 170.034C42.9864 170.896 44.6025 171.322 46.392 171.322L46.392 170.322ZM42.0742 169.178C40.811 168.416 39.8286 167.365 39.1232 166.015L38.2368 166.478C39.0247 167.986 40.133 169.175 41.5578 170.034L42.0742 169.178ZM39.1219 166.012C38.3959 164.641 38.028 163.091 38.028 161.35L37.028 161.35C37.028 163.236 37.4281 164.95 38.2381 166.48L39.1219 166.012ZM38.028 161.35C38.028 159.61 38.396 158.071 39.1204 156.723L38.2395 156.25C37.428 157.76 37.028 159.464 37.028 161.35L38.028 161.35ZM39.1232 156.718C39.8286 155.367 40.811 154.316 42.0742 153.554L41.5577 152.698C40.133 153.557 39.0247 154.746 38.2368 156.255L39.1232 156.718ZM42.0742 153.554C43.3336 152.795 44.7681 152.41 46.392 152.41L46.392 151.41C44.6025 151.41 42.9864 151.836 41.5578 152.698L42.0742 153.554ZM46.392 152.41C48.0159 152.41 49.4504 152.795 50.7098 153.554L51.2262 152.698C49.7976 151.836 48.1815 151.41 46.392 151.41L46.392 152.41ZM50.7098 153.554C51.9743 154.317 52.9685 155.37 53.6956 156.723L54.5764 156.25C53.7675 154.744 52.6497 153.557 51.2262 152.698L50.7098 153.554ZM53.6928 156.718C54.3977 158.067 54.756 159.607 54.756 161.35L55.756 161.35C55.756 159.466 55.3676 157.764 54.5792 156.255L53.6928 156.718ZM51.66 161.35C51.66 159.947 51.1863 158.766 50.2244 157.852L49.5356 158.577C50.2803 159.284 50.66 160.194 50.66 161.35L51.66 161.35ZM50.2246 157.852C49.2388 156.914 47.9435 156.466 46.392 156.466L46.392 157.466C47.7419 157.466 48.7718 157.85 49.5354 158.577L50.2246 157.852ZM46.392 156.466C44.841 156.466 43.5532 156.914 42.5869 157.856L43.285 158.572C44.0255 157.85 45.0417 157.466 46.392 157.466L46.392 156.466ZM42.5961 157.848C41.6113 158.76 41.124 159.942 41.124 161.35L42.124 161.35C42.124 160.198 42.5114 159.29 43.2759 158.581L42.5961 157.848ZM41.124 161.35C41.124 162.758 41.611 163.948 42.5914 164.881L43.2806 164.156C42.5117 163.425 42.124 162.503 42.124 161.35L41.124 161.35ZM42.5869 164.876C43.5532 165.818 44.841 166.266 46.392 166.266L46.392 165.266C45.0417 165.266 44.0255 164.882 43.285 164.16L42.5869 164.876ZM46.392 166.266C47.9435 166.266 49.2388 165.818 50.2246 164.881L49.5354 164.156C48.7718 164.882 47.7419 165.266 46.392 165.266L46.392 166.266ZM50.229 164.876C51.1866 163.943 51.66 162.754 51.66 161.35L50.66 161.35C50.66 162.507 50.2801 163.43 49.5309 164.16L50.229 164.876ZM38.648 132.765L39.0818 133.014L39.0864 133.006L38.648 132.765ZM41.752 129.661L41.9948 130.099L41.9978 130.097L41.752 129.661ZM51.064 129.661L51.3098 129.226L51.3068 129.224L51.064 129.661ZM54.168 132.765L54.6047 132.522L54.6034 132.52L54.168 132.765ZM53.176 142.301L52.8399 141.931L51.8812 142.801L53.176 142.801L53.176 142.301ZM61.208 142.301L61.708 142.301L61.708 141.801L61.208 141.801L61.208 142.301ZM61.208 147.293L61.208 147.793L61.708 147.793L61.708 147.293L61.208 147.293ZM37.784 147.293L37.284 147.293L37.284 147.793L37.784 147.793L37.784 147.293ZM37.784 142.525L37.784 142.025L37.284 142.025L37.284 142.525L37.784 142.525ZM39.768 142.525L39.768 143.025L41.1551 143.025L40.087 142.14L39.768 142.525ZM49.88 134.845L49.5354 135.208L49.5356 135.208L49.88 134.845ZM42.936 134.845L43.276 135.212L43.285 135.203L42.936 134.845ZM42.936 141.149L42.5914 141.512L42.5916 141.512L42.936 141.149ZM49.88 141.149L50.22 141.516L50.229 141.507L49.88 141.149ZM38.028 137.117C38.028 135.599 38.3814 134.235 39.0817 133.014L38.2143 132.517C37.4213 133.899 37.028 135.436 37.028 137.117L38.028 137.117ZM39.0864 133.006C39.7655 131.768 40.7316 130.8 41.9948 130.099L41.5092 129.224C40.0844 130.016 38.9812 131.118 38.2096 132.525L39.0864 133.006ZM41.9978 130.097C43.2338 129.399 44.6931 129.041 46.392 129.041L46.392 128.041C44.5496 128.041 42.9155 128.431 41.5062 129.226L41.9978 130.097ZM46.392 129.041C48.0907 129.041 49.5621 129.399 50.8212 130.099L51.3068 129.224C49.8779 128.431 48.2346 128.041 46.392 128.041L46.392 129.041ZM50.8182 130.097C52.0616 130.799 53.0307 131.768 53.7326 133.011L54.6034 132.52C53.812 131.118 52.7118 130.018 51.3098 129.226L50.8182 130.097ZM53.7313 133.009C54.4121 134.23 54.756 135.596 54.756 137.117L55.756 137.117C55.756 135.439 55.3746 133.903 54.6047 132.522L53.7313 133.009ZM54.756 137.117C54.756 139.201 54.1039 140.784 52.8399 141.931L53.512 142.672C55.0214 141.302 55.756 139.429 55.756 137.117L54.756 137.117ZM53.176 142.801L61.208 142.801L61.208 141.801L53.176 141.801L53.176 142.801ZM60.708 142.301L60.708 147.293L61.708 147.293L61.708 142.301L60.708 142.301ZM61.208 146.793L37.784 146.793L37.784 147.793L61.208 147.793L61.208 146.793ZM38.284 147.293L38.284 142.525L37.284 142.525L37.284 147.293L38.284 147.293ZM37.784 143.025L39.768 143.025L39.768 142.025L37.784 142.025L37.784 143.025ZM40.087 142.14C38.7335 141.019 38.028 139.373 38.028 137.117L37.028 137.117C37.028 139.598 37.8158 141.557 39.449 142.911L40.087 142.14ZM51.66 137.981C51.66 136.578 51.1863 135.397 50.2244 134.483L49.5356 135.208C50.2803 135.915 50.66 136.825 50.66 137.981L51.66 137.981ZM50.2246 134.483C49.2388 133.546 47.9435 133.097 46.392 133.097L46.392 134.097C47.7419 134.097 48.7718 134.481 49.5354 135.208L50.2246 134.483ZM46.392 133.097C44.841 133.097 43.5532 133.545 42.5869 134.487L43.285 135.203C44.0255 134.482 45.0417 134.097 46.392 134.097L46.392 133.097ZM42.5961 134.479C41.6113 135.392 41.124 136.574 41.124 137.981L42.124 137.981C42.124 136.829 42.5114 135.921 43.2759 135.212L42.5961 134.479ZM41.124 137.981C41.124 139.389 41.611 140.579 42.5914 141.512L43.2806 140.787C42.5117 140.056 42.124 139.134 42.124 137.981L41.124 137.981ZM42.5916 141.512C43.5584 142.43 44.8445 142.865 46.392 142.865L46.392 141.865C45.0381 141.865 44.0203 141.49 43.2804 140.787L42.5916 141.512ZM46.392 142.865C47.94 142.865 49.2337 142.43 50.2199 141.516L49.5401 140.783C48.777 141.49 47.7454 141.865 46.392 141.865L46.392 142.865ZM50.229 141.507C51.1866 140.574 51.66 139.385 51.66 137.981L50.66 137.981C50.66 139.138 50.2801 140.061 49.5309 140.791L50.229 141.507ZM54.136 120.624L54.5765 120.86L54.5806 120.853L54.136 120.624ZM50.968 123.984L51.2262 124.412L51.2262 124.412L50.968 123.984ZM41.816 123.984L41.5577 124.412L41.5577 124.412L41.816 123.984ZM38.68 120.624L39.1232 120.392L39.1219 120.39L38.68 120.624ZM38.68 110.864L39.1205 111.1L39.1232 111.095L38.68 110.864ZM41.816 107.504L41.5577 107.076L41.5577 107.076L41.816 107.504ZM50.968 107.504L51.2262 107.076L51.2262 107.076L50.968 107.504ZM54.136 110.864L54.5792 110.632L54.5764 110.627L54.136 110.864ZM49.88 112.592L49.5354 112.954L49.5356 112.954L49.88 112.592ZM42.936 112.592L43.276 112.959L43.285 112.95L42.936 112.592ZM42.936 118.896L43.2851 118.538L43.2806 118.533L42.936 118.896ZM49.88 118.896L50.2246 119.258L50.229 119.254L49.88 118.896ZM54.756 115.728C54.756 117.47 54.3978 119.023 53.6914 120.395L54.5806 120.853C55.3676 119.324 55.756 117.612 55.756 115.728L54.756 115.728ZM53.6955 120.387C52.9685 121.74 51.9743 122.793 50.7097 123.556L51.2262 124.412C52.6497 123.553 53.7675 122.366 54.5764 120.86L53.6955 120.387ZM50.7097 123.556C49.4504 124.315 48.0159 124.7 46.392 124.7L46.392 125.7C48.1815 125.7 49.7976 125.274 51.2262 124.412L50.7097 123.556ZM46.392 124.7C44.7681 124.7 43.3335 124.315 42.0742 123.556L41.5577 124.412C42.9864 125.274 44.6025 125.7 46.392 125.7L46.392 124.7ZM42.0742 123.556C40.811 122.794 39.8286 121.743 39.1232 120.392L38.2368 120.855C39.0247 122.364 40.133 123.553 41.5577 124.412L42.0742 123.556ZM39.1219 120.39C38.3959 119.019 38.028 117.468 38.028 115.728L37.028 115.728C37.028 117.614 37.4281 119.328 38.2381 120.858L39.1219 120.39ZM38.028 115.728C38.028 113.987 38.396 112.449 39.1204 111.1L38.2395 110.627C37.428 112.137 37.028 113.842 37.028 115.728L38.028 115.728ZM39.1232 111.095C39.8286 109.745 40.811 108.694 42.0742 107.932L41.5577 107.076C40.133 107.935 39.0247 109.124 38.2368 110.632L39.1232 111.095ZM42.0742 107.932C43.3335 107.172 44.7681 106.788 46.392 106.788L46.392 105.788C44.6025 105.788 42.9864 106.214 41.5577 107.076L42.0742 107.932ZM46.392 106.788C48.0159 106.788 49.4504 107.172 50.7097 107.932L51.2262 107.076C49.7975 106.214 48.1815 105.788 46.392 105.788L46.392 106.788ZM50.7097 107.932C51.9743 108.695 52.9685 109.747 53.6955 111.1L54.5764 110.627C53.7675 109.122 52.6497 107.934 51.2262 107.076L50.7097 107.932ZM53.6928 111.095C54.3977 112.445 54.756 113.985 54.756 115.728L55.756 115.728C55.756 113.844 55.3676 112.142 54.5792 110.632L53.6928 111.095ZM51.66 115.728C51.66 114.324 51.1863 113.143 50.2244 112.229L49.5356 112.954C50.2803 113.662 50.66 114.571 50.66 115.728L51.66 115.728ZM50.2246 112.229C49.2388 111.292 47.9435 110.844 46.392 110.844L46.392 111.844C47.7419 111.844 48.7718 112.228 49.5354 112.954L50.2246 112.229ZM46.392 110.844C44.841 110.844 43.5532 111.292 42.5869 112.234L43.285 112.95C44.0255 112.228 45.0417 111.844 46.392 111.844L46.392 110.844ZM42.5961 112.225C41.6113 113.138 41.124 114.32 41.124 115.728L42.124 115.728C42.124 114.576 42.5114 113.667 43.2759 112.958L42.5961 112.225ZM41.124 115.728C41.124 117.135 41.611 118.325 42.5914 119.258L43.2806 118.533C42.5117 117.802 42.124 116.88 42.124 115.728L41.124 115.728ZM42.5869 119.254C43.5532 120.196 44.841 120.644 46.392 120.644L46.392 119.644C45.0417 119.644 44.0255 119.26 43.285 118.538L42.5869 119.254ZM46.392 120.644C47.9435 120.644 49.2388 120.196 50.2246 119.258L49.5354 118.533C48.7718 119.26 47.7419 119.644 46.392 119.644L46.392 120.644ZM50.229 119.254C51.1866 118.32 51.66 117.131 51.66 115.728L50.66 115.728C50.66 116.884 50.2801 117.807 49.5309 118.538L50.229 119.254ZM40.056 96.903L40.056 97.403L41.6098 97.403L40.3476 96.4968L40.056 96.903ZM38.168 94.503L37.7064 94.6953L37.7079 94.6988L38.168 94.503ZM37.528 90.983L37.528 90.483L37.028 90.483L37.028 90.983L37.528 90.983ZM42.136 90.983L42.6345 91.0213L42.6759 90.483L42.136 90.483L42.136 90.983ZM43.288 95.463L43.6463 95.1142L43.6415 95.1094L43.288 95.463ZM55 96.679L55.5 96.679L55.5 96.179L55 96.179L55 96.679ZM55 101.671L55 102.171L55.5 102.171L55.5 101.671L55 101.671ZM37.784 101.671L37.284 101.671L37.284 102.171L37.784 102.171L37.784 101.671ZM37.784 96.903L37.784 96.403L37.284 96.403L37.284 96.903L37.784 96.903ZM40.3476 96.4968C39.5948 95.9563 39.0213 95.2313 38.6281 94.3072L37.7079 94.6988C38.168 95.7801 38.8532 96.655 39.7644 97.3092L40.3476 96.4968ZM38.6295 94.3107C38.2326 93.3581 38.028 92.2521 38.028 90.983L37.028 90.983C37.028 92.3592 37.25 93.5998 37.7065 94.6953L38.6295 94.3107ZM37.528 91.483L42.136 91.483L42.136 90.483L37.528 90.483L37.528 91.483ZM41.6375 90.9446C41.595 91.4966 41.572 91.8888 41.572 92.103L42.572 92.103C42.572 91.9332 42.5916 91.5787 42.6345 91.0213L41.6375 90.9446ZM41.572 92.103C41.572 93.6303 42.0081 94.8902 42.9344 95.8165L43.6415 95.1094C42.9466 94.4145 42.572 93.4343 42.572 92.103L41.572 92.103ZM42.9298 95.8118C43.8465 96.7534 45.1938 97.179 46.872 97.179L46.872 96.179C45.3502 96.179 44.3081 95.794 43.6462 95.1142L42.9298 95.8118ZM46.872 97.179L55 97.179L55 96.179L46.872 96.179L46.872 97.179ZM54.5 96.679L54.5 101.671L55.5 101.671L55.5 96.679L54.5 96.679ZM55 101.171L37.784 101.171L37.784 102.171L55 102.171L55 101.171ZM38.284 101.671L38.284 96.903L37.284 96.903L37.284 101.671L38.284 101.671ZM37.784 97.403L40.056 97.403L40.056 96.403L37.784 96.403L37.784 97.403ZM54.168 75.037L54.5701 74.7398L54.3444 74.4344L53.9896 74.5699L54.168 75.037ZM55 76.861L55.486 76.7432L55.4833 76.7331L55 76.861ZM53.688 83.869L54.0519 84.2119L54.0551 84.2084L53.688 83.869ZM42.008 85.533L42.008 85.033L41.508 85.033L41.508 85.533L42.008 85.533ZM42.008 88.189L42.008 88.689L42.508 88.689L42.508 88.189L42.008 88.189ZM38.168 88.189L37.668 88.189L37.668 88.689L38.168 88.689L38.168 88.189ZM38.168 85.533L38.668 85.533L38.668 85.033L38.168 85.033L38.168 85.533ZM33.976 85.533L33.476 85.533L33.476 86.033L33.976 86.033L33.976 85.533ZM33.976 80.541L33.976 80.041L33.476 80.041L33.476 80.541L33.976 80.541ZM38.168 80.541L38.168 81.041L38.668 81.041L38.668 80.541L38.168 80.541ZM38.168 76.253L38.168 75.753L37.668 75.753L37.668 76.253L38.168 76.253ZM42.008 76.253L42.508 76.253L42.508 75.753L42.008 75.753L42.008 76.253ZM42.008 80.541L41.508 80.541L41.508 81.041L42.008 81.041L42.008 80.541ZM50.712 79.997L51.0454 80.3696L51.0557 80.3604L51.0655 80.3506L50.712 79.997ZM50.648 76.381L50.4696 75.9139L49.8422 76.1535L50.2517 76.6859L50.648 76.381ZM53.7659 75.3342C54.0835 75.7639 54.3372 76.3111 54.5166 76.9889L55.4833 76.7331C55.2788 75.9603 54.9778 75.2914 54.5701 74.7398L53.7659 75.3342ZM54.5141 76.9788C54.6746 77.641 54.756 78.3478 54.756 79.101L55.756 79.101C55.756 78.2755 55.6667 77.489 55.4859 76.7432L54.5141 76.9788ZM54.756 79.101C54.756 81.0656 54.2558 82.5183 53.3209 83.5296L54.0551 84.2084C55.2109 82.9583 55.756 81.2324 55.756 79.101L54.756 79.101ZM53.3241 83.5261C52.4015 84.5052 51.0163 85.033 49.08 85.033L49.08 86.033C51.197 86.033 52.8839 85.4514 54.0519 84.2119L53.3241 83.5261ZM49.08 85.033L42.008 85.033L42.008 86.033L49.08 86.033L49.08 85.033ZM41.508 85.533L41.508 88.189L42.508 88.189L42.508 85.533L41.508 85.533ZM42.008 87.689L38.168 87.689L38.168 88.689L42.008 88.689L42.008 87.689ZM38.668 88.189L38.668 85.533L37.668 85.533L37.668 88.189L38.668 88.189ZM38.168 85.033L33.976 85.033L33.976 86.033L38.168 86.033L38.168 85.033ZM34.476 85.533L34.476 80.541L33.476 80.541L33.476 85.533L34.476 85.533ZM33.976 81.041L38.168 81.041L38.168 80.041L33.976 80.041L33.976 81.041ZM38.668 80.541L38.668 76.253L37.668 76.253L37.668 80.541L38.668 80.541ZM38.168 76.753L42.008 76.753L42.008 75.753L38.168 75.753L38.168 76.753ZM41.508 76.253L41.508 80.541L42.508 80.541L42.508 76.253L41.508 76.253ZM42.008 81.041L49.016 81.041L49.016 80.041L42.008 80.041L42.008 81.041ZM49.016 81.041C49.8226 81.041 50.5214 80.8384 51.0454 80.3696L50.3786 79.6244C50.0919 79.8809 49.66 80.041 49.016 80.041L49.016 81.041ZM51.0655 80.3506C51.566 79.8501 51.788 79.1763 51.788 78.397L50.788 78.397C50.788 78.983 50.626 79.3759 50.3584 79.6434L51.0655 80.3506ZM51.788 78.397C51.788 77.5122 51.5467 76.7293 51.0443 76.0761L50.2517 76.6859C50.6026 77.142 50.788 77.7031 50.788 78.397L51.788 78.397ZM50.8263 76.8481L54.3463 75.5041L53.9896 74.5699L50.4696 75.9139L50.8263 76.8481ZM37.784 70.9547L37.284 70.9547L37.284 71.4547L37.784 71.4547L37.784 70.9547ZM37.784 65.9627L37.784 65.4627L37.284 65.4627L37.284 65.9627L37.784 65.9627ZM55 65.9627L55.5 65.9627L55.5 65.4627L55 65.4627L55 65.9627ZM55 70.9547L55 71.4547L55.5 71.4547L55.5 70.9547L55 70.9547ZM34.584 70.6987L34.9509 71.0384L34.9509 71.0384L34.584 70.6987ZM30.616 70.6987L30.9829 70.359L30.9829 70.359L30.616 70.6987ZM30.584 66.2187L30.9577 66.5509L30.9577 66.5509L30.584 66.2187ZM34.584 66.2187L34.9509 65.879L34.9442 65.8719L34.584 66.2187ZM38.284 70.9547L38.284 65.9627L37.284 65.9627L37.284 70.9547L38.284 70.9547ZM37.784 66.4627L55 66.4627L55 65.4627L37.784 65.4627L37.784 66.4627ZM54.5 65.9627L54.5 70.9547L55.5 70.9547L55.5 65.9627L54.5 65.9627ZM55 70.4547L37.784 70.4547L37.784 71.4547L55 71.4547L55 70.4547ZM34.884 68.4587C34.884 69.2728 34.6506 69.8908 34.2171 70.359L34.9509 71.0384C35.584 70.3546 35.884 69.4794 35.884 68.4587L34.884 68.4587ZM34.2171 70.359C33.779 70.8322 33.2509 71.0627 32.6 71.0627L32.6 72.0627C33.5277 72.0627 34.3223 71.7173 34.9509 71.0384L34.2171 70.359ZM32.6 71.0627C31.9491 71.0627 31.421 70.8322 30.9829 70.359L30.2491 71.0384C30.8777 71.7173 31.6723 72.0627 32.6 72.0627L32.6 71.0627ZM30.9829 70.359C30.5494 69.8908 30.316 69.2728 30.316 68.4587L29.316 68.4587C29.316 69.4794 29.616 70.3546 30.2491 71.0384L30.9829 70.359ZM30.316 68.4587C30.316 67.6393 30.542 67.0186 30.9577 66.5509L30.2103 65.8866C29.602 66.5709 29.316 67.4435 29.316 68.4587L30.316 68.4587ZM30.9577 66.5509C31.3752 66.0812 31.8794 65.8547 32.504 65.8547L32.504 64.8547C31.5926 64.8547 30.8168 65.2042 30.2103 65.8866L30.9577 66.5509ZM32.504 65.8547C33.2063 65.8547 33.7676 66.0918 34.2238 66.5656L34.9442 65.8719C34.291 65.1937 33.4657 64.8547 32.504 64.8547L32.504 65.8547ZM34.2171 66.5584C34.6506 67.0266 34.884 67.6447 34.884 68.4587L35.884 68.4587C35.884 67.4381 35.584 66.5628 34.9509 65.879L34.2171 66.5584ZM54.136 56.7537L54.5765 56.9904L54.5806 56.9826L54.136 56.7537ZM50.968 60.1137L51.2262 60.5419L51.2262 60.5419L50.968 60.1137ZM41.816 60.1137L41.5577 60.5419L41.5577 60.5419L41.816 60.1137ZM38.68 56.7537L39.1232 56.5222L39.1219 56.5198L38.68 56.7537ZM38.68 46.9937L39.1205 47.2304L39.1232 47.2253L38.68 46.9937ZM41.816 43.6337L41.5577 43.2056L41.5577 43.2056L41.816 43.6337ZM50.968 43.6337L51.2262 43.2056L51.2262 43.2056L50.968 43.6337ZM54.136 46.9937L54.5792 46.7622L54.5764 46.7571L54.136 46.9937ZM49.88 48.7217L49.5354 49.084L49.5356 49.0842L49.88 48.7217ZM42.936 48.7217L43.276 49.0886L43.285 49.0797L42.936 48.7217ZM42.936 55.0257L43.2851 54.6677L43.2806 54.6635L42.936 55.0257ZM49.88 55.0257L50.2246 55.388L50.229 55.3837L49.88 55.0257ZM54.756 51.8577C54.756 53.6005 54.3978 55.1526 53.6914 56.5249L54.5806 56.9826C55.3676 55.4535 55.756 53.7417 55.756 51.8577L54.756 51.8577ZM53.6955 56.5171C52.9685 57.8702 51.9743 58.9229 50.7097 59.6856L51.2262 60.5419C52.6497 59.6833 53.7675 58.496 54.5764 56.9904L53.6955 56.5171ZM50.7097 59.6856C49.4504 60.4452 48.0159 60.8297 46.392 60.8297L46.392 61.8297C48.1815 61.8297 49.7975 61.4036 51.2262 60.5419L50.7097 59.6856ZM46.392 60.8297C44.7681 60.8297 43.3335 60.4452 42.0742 59.6856L41.5577 60.5419C42.9864 61.4036 44.6025 61.8297 46.392 61.8297L46.392 60.8297ZM42.0742 59.6856C40.811 58.9236 39.8286 57.8726 39.1232 56.5222L38.2368 56.9853C39.0247 58.4935 40.133 59.6825 41.5577 60.5419L42.0742 59.6856ZM39.1219 56.5198C38.3959 55.1485 38.028 53.5982 38.028 51.8577L37.028 51.8577C37.028 53.7439 37.4281 55.4576 38.2381 56.9877L39.1219 56.5198ZM38.028 51.8577C38.028 50.1171 38.396 48.5788 39.1204 47.2304L38.2395 46.7571C37.428 48.2674 37.028 49.9717 37.028 51.8577L38.028 51.8577ZM39.1232 47.2253C39.8286 45.8748 40.811 44.8239 42.0742 44.0619L41.5577 43.2056C40.133 44.065 39.0247 45.254 38.2368 46.7622L39.1232 47.2253ZM42.0742 44.0619C43.3335 43.3023 44.7681 42.9177 46.392 42.9177L46.392 41.9177C44.6025 41.9177 42.9864 42.3438 41.5577 43.2056L42.0742 44.0619ZM46.392 42.9177C48.0159 42.9177 49.4504 43.3023 50.7097 44.0619L51.2262 43.2056C49.7975 42.3438 48.1815 41.9177 46.392 41.9177L46.392 42.9177ZM50.7097 44.0619C51.9743 44.8246 52.9685 45.8773 53.6955 47.2304L54.5764 46.7571C53.7675 45.2515 52.6497 44.0642 51.2262 43.2056L50.7097 44.0619ZM53.6928 47.2253C54.3977 48.5746 54.756 50.1149 54.756 51.8577L55.756 51.8577C55.756 49.9739 55.3676 48.2715 54.5792 46.7622L53.6928 47.2253ZM51.66 51.8577C51.66 50.454 51.1863 49.2731 50.2244 48.3592L49.5356 49.0842C50.2803 49.7917 50.66 50.7015 50.66 51.8577L51.66 51.8577ZM50.2246 48.3595C49.2388 47.4218 47.9435 46.9737 46.392 46.9737L46.392 47.9737C47.7418 47.9737 48.7718 48.3577 49.5354 49.084L50.2246 48.3595ZM46.392 46.9737C44.841 46.9737 43.5532 47.4217 42.5869 48.3637L43.285 49.0797C44.0255 48.3578 45.0417 47.9737 46.392 47.9737L46.392 46.9737ZM42.5961 48.355C41.6113 49.2678 41.124 50.45 41.124 51.8577L42.124 51.8577C42.124 50.7055 42.5114 49.797 43.2759 49.0885L42.5961 48.355ZM41.124 51.8577C41.124 53.2654 41.611 54.4555 42.5914 55.388L43.2806 54.6635C42.5117 53.932 42.124 53.01 42.124 51.8577L41.124 51.8577ZM42.5869 55.3837C43.5532 56.3258 44.841 56.7737 46.392 56.7737L46.392 55.7737C45.0417 55.7737 44.0255 55.3897 43.285 54.6677L42.5869 55.3837ZM46.392 56.7737C47.9435 56.7737 49.2388 56.3257 50.2246 55.388L49.5354 54.6635C48.7718 55.3898 47.7418 55.7737 46.392 55.7737L46.392 56.7737ZM50.229 55.3837C51.1865 54.4502 51.66 53.2615 51.66 51.8577L50.66 51.8577C50.66 53.014 50.2801 53.9373 49.5309 54.6677L50.229 55.3837ZM39.448 22.185L39.8045 22.5356L39.8073 22.5327L39.448 22.185ZM55 20.201L55.5 20.201L55.5 19.701L55 19.701L55 20.201ZM55 25.193L55 25.693L55.5 25.693L55.5 25.193L55 25.193ZM42.872 26.089L43.2013 26.4653L43.2071 26.46L42.872 26.089ZM43.032 31.689L43.3806 31.3305L43.3756 31.3258L43.032 31.689ZM55 32.809L55.5 32.809L55.5 32.309L55 32.309L55 32.809ZM55 37.801L55 38.301L55.5 38.301L55.5 37.801L55 37.801ZM37.784 37.801L37.284 37.801L37.284 38.301L37.784 38.301L37.784 37.801ZM37.784 33.033L37.784 32.533L37.284 32.533L37.284 33.033L37.784 33.033ZM39.8 33.033L39.8 33.533L41.0905 33.533L40.1369 32.6635L39.8 33.033ZM38.136 30.569L38.6017 30.3868L38.5981 30.3781L38.136 30.569ZM38.028 27.337C38.028 25.311 38.6319 23.7277 39.8045 22.5356L39.0915 21.8344C37.7041 23.2449 37.028 25.0963 37.028 27.337L38.028 27.337ZM39.8073 22.5327C40.9626 21.3389 42.7109 20.701 45.144 20.701L45.144 19.701C42.5424 19.701 40.4934 20.3858 39.0887 21.8373L39.8073 22.5327ZM45.144 20.701L55 20.701L55 19.701L45.144 19.701L45.144 20.701ZM54.5 20.201L54.5 25.193L55.5 25.193L55.5 20.201L54.5 20.201ZM55 24.693L45.912 24.693L45.912 25.693L55 25.693L55 24.693ZM45.912 24.693C44.4864 24.693 43.3283 25.0031 42.5368 25.7179L43.2071 26.46C43.7383 25.9802 44.6069 25.693 45.912 25.693L45.912 24.693ZM42.5427 25.7127C41.7257 26.4276 41.348 27.4445 41.348 28.681L42.348 28.681C42.348 27.6561 42.653 26.945 43.2012 26.4653L42.5427 25.7127ZM41.348 28.681C41.348 30.0533 41.7832 31.1959 42.6884 32.0522L43.3756 31.3258C42.7021 30.6887 42.348 29.826 42.348 28.681L41.348 28.681ZM42.6835 32.0475C43.5787 32.9179 44.8784 33.309 46.488 33.309L46.488 32.309C45.0256 32.309 44.0213 31.9534 43.3805 31.3305L42.6835 32.0475ZM46.488 33.309L55 33.309L55 32.309L46.488 32.309L46.488 33.309ZM54.5 32.809L54.5 37.801L55.5 37.801L55.5 32.809L54.5 32.809ZM55 37.301L37.784 37.301L37.784 38.301L55 38.301L55 37.301ZM38.284 37.801L38.284 33.033L37.284 33.033L37.284 37.801L38.284 37.801ZM37.784 33.533L39.8 33.533L39.8 32.533L37.784 32.533L37.784 33.533ZM40.1369 32.6635C39.4724 32.0577 38.9597 31.302 38.6016 30.3868L37.6704 30.7512C38.0802 31.7986 38.6769 32.6857 39.4631 33.4025L40.1369 32.6635ZM38.5981 30.3781C38.2203 29.4634 38.028 28.4517 38.028 27.337L37.028 27.337C37.028 28.5689 37.241 29.7119 37.6739 30.7599L38.5981 30.3781ZM54.744 12.796L55.2273 12.9244L55.2291 12.9173L54.744 12.796ZM53.4 16.06L53.1894 16.5135L53.5806 16.6951L53.8177 16.3348L53.4 16.06ZM49.816 14.396L49.3946 14.1268L49.0868 14.6087L49.6054 14.8495L49.816 14.396ZM51.032 11.612L51.5118 11.7531L51.5142 11.7444L51.032 11.612ZM48.856 6.10799L49.3249 6.28165L49.3249 6.28165L48.856 6.10799ZM48.312 8.76399L48.8065 8.83892L48.8081 8.82601L48.312 8.76399ZM47.576 12.252L47.0974 12.1073L47.0974 12.1073L47.576 12.252ZM46.104 14.652L46.4464 15.0165L46.4521 15.0109L46.104 14.652ZM40.216 14.716L39.916 15.116L39.9176 15.1172L40.216 14.716ZM38.232 11.964L37.7655 12.144L37.7666 12.1468L38.232 11.964ZM37.944 4.05999L38.4311 4.17308L38.4333 4.163L37.944 4.05999ZM39.032 1.05199L39.2441 0.599216L38.8338 0.406998L38.6022 0.796456L39.032 1.05199ZM42.584 2.71599L43.0196 2.96142L43.2842 2.49185L42.7961 2.26322L42.584 2.71599ZM41.752 10.076L41.3157 10.3203L41.3157 10.3203L41.752 10.076ZM44.024 10.012L43.5551 9.83834L43.5551 9.83834L44.024 10.012ZM44.632 7.25999L44.1387 7.17779L44.1377 7.1846L44.632 7.25999ZM45.4 3.80399L45.8777 3.95187L45.8808 3.94135L45.4 3.80399ZM46.84 1.46799L47.1823 1.83242L47.1823 1.83242L46.84 1.46799ZM52.632 1.43599L52.9368 1.03968L52.9368 1.03968L52.632 1.43599ZM54.584 4.25199L55.0532 4.07913L55.0515 4.07467L54.584 4.25199ZM54.756 8.60399C54.756 9.99309 54.5902 11.3497 54.2589 12.6747L55.2291 12.9173C55.5805 11.5116 55.756 10.0736 55.756 8.60399L54.756 8.60399ZM54.2607 12.6676C53.9062 14.0025 53.4759 15.0349 52.9823 15.7852L53.8177 16.3348C54.3908 15.4637 54.8565 14.3202 55.2272 12.9244L54.2607 12.6676ZM53.6105 15.6065L50.0265 13.9425L49.6054 14.8495L53.1894 16.5135L53.6105 15.6065ZM50.2373 14.6652C50.7587 13.8491 51.1815 12.8758 51.5117 11.7531L50.5523 11.4709C50.2425 12.5242 49.8546 13.4068 49.3946 14.1268L50.2373 14.6652ZM51.5142 11.7444C51.8237 10.6166 51.98 9.50544 51.98 8.41199L50.98 8.41199C50.98 9.40922 50.8376 10.4314 50.5498 11.4796L51.5142 11.7444ZM51.98 8.41199C51.98 7.33084 51.8488 6.44604 51.5361 5.8142C51.3763 5.49129 51.1611 5.21841 50.8773 5.02728C50.5901 4.83386 50.2619 4.74399 49.912 4.74399L49.912 5.74399C50.0848 5.74399 50.2139 5.78613 50.3187 5.85671C50.4269 5.92957 50.5384 6.0527 50.6399 6.25779C50.8498 6.68195 50.98 7.38115 50.98 8.41199L51.98 8.41199ZM49.912 4.74399C49.561 4.74399 49.236 4.84997 48.9634 5.07302C48.6985 5.2897 48.5142 5.59113 48.3871 5.93434L49.3249 6.28165C49.4111 6.04886 49.5095 5.91828 49.5966 5.84697C49.676 5.78202 49.7723 5.74399 49.912 5.74399L49.912 4.74399ZM48.3871 5.93434C48.1531 6.56615 47.9663 7.49819 47.8159 8.70198L48.8081 8.82601C48.9563 7.64046 49.1322 6.80184 49.3249 6.28165L48.3871 5.93434ZM47.8176 8.68909C47.6063 10.0837 47.3654 11.2209 47.0974 12.1073L48.0546 12.3967C48.3413 11.4484 48.591 10.2603 48.8063 8.8389L47.8176 8.68909ZM47.0974 12.1073C46.8452 12.9413 46.4004 13.6681 45.7559 14.293L46.4521 15.0109C47.2156 14.2706 47.7521 13.3973 48.0546 12.3967L47.0974 12.1073ZM45.7617 14.2876C45.1787 14.8352 44.3152 15.144 43.096 15.144L43.096 16.144C44.4795 16.144 45.6213 15.7914 46.4463 15.0164L45.7617 14.2876ZM43.096 15.144C42.1098 15.144 41.2557 14.866 40.5143 14.3148L39.9176 15.1172C40.8403 15.8033 41.9062 16.144 43.096 16.144L43.096 15.144ZM40.516 14.316C39.7507 13.742 39.1397 12.9072 38.6974 11.7812L37.7666 12.1468C38.2629 13.4102 38.9746 14.41 39.916 15.116L40.516 14.316ZM38.6985 11.784C38.2562 10.6382 38.028 9.27248 38.028 7.67599L37.028 7.67599C37.028 9.36485 37.2691 10.8578 37.7655 12.144L38.6985 11.784ZM38.028 7.67599C38.028 6.49838 38.1622 5.33097 38.431 4.17306L37.4569 3.94693C37.1711 5.17835 37.028 6.42161 37.028 7.67599L38.028 7.67599ZM38.4333 4.163C38.6817 2.98307 39.0285 2.03626 39.4618 1.30753L38.6022 0.796456C38.0969 1.6464 37.7183 2.70492 37.4547 3.95699L38.4333 4.163ZM38.8199 1.50477L42.3719 3.16877L42.7961 2.26322L39.2441 0.599216L38.8199 1.50477ZM42.1484 2.47057C41.2515 4.06252 40.804 5.80077 40.804 7.67599L41.804 7.67599C41.804 5.96722 42.2098 4.3988 43.0196 2.96142L42.1484 2.47057ZM40.804 7.67599C40.804 8.77294 40.9547 9.67561 41.3157 10.3203L42.1882 9.83169C41.9519 9.40971 41.804 8.71238 41.804 7.67599L40.804 7.67599ZM41.3157 10.3203C41.6719 10.9564 42.1983 11.376 42.904 11.376L42.904 10.376C42.6711 10.376 42.4294 10.2623 42.1882 9.83169L41.3157 10.3203ZM42.904 11.376C43.2659 11.376 43.6039 11.2761 43.8894 11.0559C44.1697 10.8397 44.3633 10.5355 44.4929 10.1857L43.5551 9.83834C43.4713 10.0645 43.3717 10.1923 43.2786 10.2641C43.1908 10.3319 43.0754 10.376 42.904 10.376L42.904 11.376ZM44.4929 10.1857C44.7248 9.55938 44.9334 8.59989 45.1263 7.33539L44.1377 7.1846C43.9466 8.43743 43.7498 9.31261 43.5551 9.83834L44.4929 10.1857ZM45.1252 7.34219C45.3578 5.94622 45.6094 4.81832 45.8776 3.95184L44.9223 3.65615C44.6359 4.58166 44.3755 5.75776 44.1388 7.17779L45.1252 7.34219ZM45.8808 3.94135C46.111 3.13541 46.5416 2.43431 47.1823 1.83242L46.4977 1.10357C45.7304 1.82434 45.201 2.68058 44.9192 3.66663L45.8808 3.94135ZM47.1823 1.83242C47.7682 1.28205 48.6128 0.975994 49.784 0.975994L49.784 -0.0240065C48.4379 -0.0240064 47.3198 0.331271 46.4977 1.10357L47.1823 1.83242ZM49.784 0.975994C50.7423 0.975993 51.5841 1.26071 52.3271 1.83231L52.9368 1.03968C52.0159 0.33128 50.959 -0.0240065 49.784 -0.0240065L49.784 0.975994ZM52.3271 1.83231C53.0688 2.40278 53.6715 3.25625 54.1165 4.42932L55.0515 4.07467C54.5578 2.77307 53.8592 1.7492 52.9368 1.03968L52.3271 1.83231ZM54.1148 4.42485C54.5373 5.57166 54.756 6.96084 54.756 8.60399L55.756 8.60399C55.756 6.87648 55.5267 5.36432 55.0532 4.07914L54.1148 4.42485Z" fill="white"/>
</svg>
