<svg width="11" height="115" viewBox="0 0 11 115" fill="none" xmlns="http://www.w3.org/2000/svg">
<path d="M6.8 40.648L6.8 43.248L8 43.744L8 45.072L2.4 42.576L2.4 41.296L8 38.792L8 40.152L6.8 40.648ZM5.816 41.056L3.672 41.944L5.816 42.832L5.816 41.056ZM5.088 32.499C5.18933 32.179 5.36 31.9283 5.6 31.747C5.83467 31.5657 6.12533 31.475 6.472 31.475C6.96267 31.475 7.34133 31.667 7.608 32.051C7.86933 32.4297 8 32.9843 8 33.715L8 36.611L2.4 36.611L2.4 33.875C2.4 33.1923 2.53067 32.6697 2.792 32.307C3.05333 31.939 3.408 31.755 3.856 31.755C4.128 31.755 4.37067 31.8217 4.584 31.955C4.79733 32.083 4.96533 32.2643 5.088 32.499ZM3.376 35.323L4.696 35.323L4.696 34.035C4.696 33.715 4.64 33.4723 4.528 33.307C4.416 33.1417 4.25067 33.059 4.032 33.059C3.81333 33.059 3.65067 33.1417 3.544 33.307C3.432 33.4723 3.376 33.715 3.376 34.035L3.376 35.323ZM7.024 33.811C7.024 33.4697 6.968 33.2137 6.856 33.043C6.744 32.867 6.57067 32.779 6.336 32.779C5.872 32.779 5.64 33.123 5.64 33.811L5.64 35.323L7.024 35.323L7.024 33.811ZM8.096 26.1818C8.096 26.7631 7.97067 27.2885 7.72 27.7578C7.46933 28.2218 7.12533 28.5871 6.688 28.8538C6.24533 29.1151 5.74933 29.2458 5.2 29.2458C4.65067 29.2458 4.15733 29.1151 3.72 28.8538C3.27733 28.5871 2.93067 28.2218 2.68 27.7578C2.42933 27.2885 2.304 26.7631 2.304 26.1818C2.304 25.6005 2.42933 25.0778 2.68 24.6138C2.93067 24.1498 3.27733 23.7845 3.72 23.5178C4.15733 23.2511 4.65067 23.1178 5.2 23.1178C5.74933 23.1178 6.24533 23.2511 6.688 23.5178C7.12533 23.7845 7.46933 24.1498 7.72 24.6138C7.97067 25.0778 8.096 25.6005 8.096 26.1818ZM6.992 26.1818C6.992 25.8511 6.91733 25.5525 6.768 25.2858C6.61333 25.0191 6.4 24.8111 6.128 24.6618C5.856 24.5071 5.54667 24.4298 5.2 24.4298C4.85333 24.4298 4.544 24.5071 4.272 24.6618C4 24.8111 3.78933 25.0191 3.64 25.2858C3.48533 25.5525 3.408 25.8511 3.408 26.1818C3.408 26.5125 3.48533 26.8111 3.64 27.0778C3.78933 27.3445 4 27.5551 4.272 27.7098C4.544 27.8591 4.85333 27.9338 5.2 27.9338C5.54667 27.9338 5.856 27.8591 6.128 27.7098C6.4 27.5551 6.61333 27.3445 6.768 27.0778C6.91733 26.8111 6.992 26.5125 6.992 26.1818ZM8.096 18.0558C8.096 18.8558 7.87467 19.4798 7.432 19.9278C6.98933 20.3705 6.35733 20.5918 5.536 20.5918L2.4 20.5918L2.4 19.2958L5.488 19.2958C6.49067 19.2958 6.992 18.8798 6.992 18.0478C6.992 17.6425 6.872 17.3331 6.632 17.1198C6.38667 16.9065 6.00533 16.7998 5.488 16.7998L2.4 16.7998L2.4 15.5198L5.536 15.5198C6.35733 15.5198 6.98933 15.7438 7.432 16.1918C7.87467 16.6345 8.096 17.2558 8.096 18.0558ZM3.456 11.5729L3.456 13.3649L2.4 13.3649L2.4 8.48488L3.456 8.48488L3.456 10.2769L8 10.2769L8 11.5729L3.456 11.5729Z" fill="#828282" fill-opacity="0.35"/>
<rect x="5" y="115" width="57" height="1" transform="rotate(-90 5 115)" fill="#C4C4C4" fill-opacity="0.2"/>
</svg>
