<svg width="11" height="132" viewBox="0 0 11 132" fill="none" xmlns="http://www.w3.org/2000/svg">
<path d="M8 61.336L2.4 61.336L2.4 58.912C2.4 58.4107 2.48267 57.9787 2.648 57.616C2.808 57.2533 3.04 56.9733 3.344 56.776C3.648 56.5787 4.01067 56.48 4.432 56.48C4.848 56.48 5.208 56.5787 5.512 56.776C5.816 56.9733 6.05067 57.2533 6.216 57.616C6.376 57.9787 6.456 58.4107 6.456 58.912L6.456 60.616L5.872 60.04L8 60.04L8 61.336ZM6.016 60.04L5.4 60.616L5.4 58.984C5.4 58.584 5.31467 58.2853 5.144 58.088C4.97333 57.8907 4.736 57.792 4.432 57.792C4.12267 57.792 3.88267 57.8907 3.712 58.088C3.54133 58.2853 3.456 58.584 3.456 58.984L3.456 60.616L2.84 60.04L6.016 60.04ZM8 53.9547L2.4 53.9547L2.4 51.5307C2.4 51.0294 2.48267 50.5974 2.648 50.2347C2.808 49.8721 3.04 49.5921 3.344 49.3947C3.648 49.1974 4.01067 49.0987 4.432 49.0987C4.848 49.0987 5.208 49.1974 5.512 49.3947C5.81067 49.5921 6.04 49.8721 6.2 50.2347C6.36 50.5974 6.44 51.0294 6.44 51.5307L6.44 53.2347L5.872 52.6587L8 52.6587L8 53.9547ZM8 50.3947L5.968 51.7947L5.968 50.4107L8 48.9947L8 50.3947ZM6.016 52.6587L5.408 53.2347L5.408 51.6027C5.408 51.2027 5.32267 50.9041 5.152 50.7067C4.976 50.5094 4.736 50.4107 4.432 50.4107C4.12267 50.4107 3.88267 50.5094 3.712 50.7067C3.54133 50.9041 3.456 51.2027 3.456 51.6027L3.456 53.2347L2.84 52.6587L6.016 52.6587ZM8.096 43.7519C8.096 44.1946 8.024 44.6053 7.88 44.9839C7.736 45.3573 7.53333 45.6826 7.272 45.9599C7.01067 46.2319 6.704 46.4453 6.352 46.5999C6 46.7493 5.616 46.8239 5.2 46.8239C4.784 46.8239 4.4 46.7493 4.048 46.5999C3.696 46.4453 3.38933 46.2293 3.128 45.9519C2.86667 45.6746 2.664 45.3493 2.52 44.9759C2.376 44.6026 2.304 44.1973 2.304 43.7599C2.304 43.3173 2.376 42.9119 2.52 42.5439C2.664 42.1706 2.86667 41.8479 3.128 41.5759C3.38933 41.2986 3.696 41.0826 4.048 40.9279C4.39467 40.7733 4.77867 40.6959 5.2 40.6959C5.616 40.6959 6.00267 40.7733 6.36 40.9279C6.712 41.0826 7.01867 41.2986 7.28 41.5759C7.536 41.8479 7.736 42.1706 7.88 42.5439C8.024 42.9119 8.096 43.3146 8.096 43.7519ZM6.992 43.7599C6.992 43.5093 6.94933 43.2799 6.864 43.0719C6.77867 42.8586 6.656 42.6719 6.496 42.5119C6.336 42.3519 6.14667 42.2293 5.928 42.1439C5.70933 42.0533 5.46667 42.0079 5.2 42.0079C4.93333 42.0079 4.69067 42.0533 4.472 42.1439C4.25333 42.2293 4.064 42.3519 3.904 42.5119C3.744 42.6666 3.62133 42.8506 3.536 43.0639C3.45067 43.2773 3.408 43.5093 3.408 43.7599C3.408 44.0106 3.45067 44.2426 3.536 44.4559C3.62133 44.6639 3.744 44.8479 3.904 45.0079C4.064 45.1679 4.25333 45.2933 4.472 45.3839C4.69067 45.4693 4.93333 45.5119 5.2 45.5119C5.46133 45.5119 5.704 45.4693 5.928 45.3839C6.14667 45.2933 6.336 45.1706 6.496 45.0159C6.656 44.8559 6.77867 44.6693 6.864 44.4559C6.94933 44.2426 6.992 44.0106 6.992 43.7599ZM8.096 37.2071C8.096 37.5858 8.02667 37.9351 7.888 38.2551C7.744 38.5698 7.54133 38.8285 7.28 39.0311L6.416 38.3111C6.61867 38.1565 6.77333 37.9938 6.88 37.8231C6.98133 37.6525 7.032 37.4685 7.032 37.2711C7.032 36.7431 6.72267 36.4791 6.104 36.4791L3.44 36.4791L3.44 38.4471L2.4 38.4471L2.4 35.1911L6.032 35.1911C6.72533 35.1911 7.24267 35.3618 7.584 35.7031C7.92533 36.0445 8.096 36.5458 8.096 37.2071ZM4.656 31.119L4.656 28.423L5.664 28.423L5.664 31.119L4.656 31.119ZM6.96 31.023L6.96 27.975L8 27.975L8 32.311L2.4 32.311L2.4 28.079L3.44 28.079L3.44 31.023L6.96 31.023ZM8.096 22.6638C8.096 23.0958 8.02666 23.4985 7.888 23.8718C7.744 24.2398 7.54133 24.5598 7.28 24.8318C7.01866 25.1038 6.712 25.3171 6.36 25.4718C6.008 25.6211 5.62133 25.6958 5.2 25.6958C4.77866 25.6958 4.392 25.6211 4.04 25.4718C3.688 25.3171 3.38133 25.1038 3.12 24.8318C2.85866 24.5545 2.65866 24.2318 2.52 23.8638C2.376 23.4958 2.304 23.0931 2.304 22.6558C2.304 22.1705 2.38933 21.7331 2.56 21.3438C2.72533 20.9491 2.97066 20.6185 3.296 20.3518L4.064 21.1838C3.84533 21.3758 3.68266 21.5891 3.576 21.8238C3.464 22.0585 3.408 22.3145 3.408 22.5918C3.408 22.8531 3.45066 23.0931 3.536 23.3118C3.62133 23.5305 3.744 23.7198 3.904 23.8798C4.064 24.0398 4.25333 24.1651 4.472 24.2558C4.69066 24.3411 4.93333 24.3838 5.2 24.3838C5.46666 24.3838 5.70933 24.3411 5.928 24.2558C6.14666 24.1651 6.336 24.0398 6.496 23.8798C6.656 23.7198 6.77866 23.5305 6.864 23.3118C6.94933 23.0931 6.992 22.8531 6.992 22.5918C6.992 22.3145 6.93866 22.0585 6.832 21.8238C6.72 21.5891 6.552 21.3758 6.328 21.1838L7.096 20.3518C7.42133 20.6185 7.66933 20.9491 7.84 21.3438C8.01066 21.7331 8.096 22.1731 8.096 22.6638ZM8 16.7713L3.456 16.7713L3.456 18.5633L2.4 18.5633L2.4 13.6833L3.456 13.6833L3.456 15.4753L8 15.4753L8 16.7713ZM8.096 9.58506C8.096 10.0331 8.03733 10.4624 7.92 10.8731C7.79733 11.2837 7.64 11.6144 7.448 11.8651L6.472 11.4251C6.64266 11.1851 6.784 10.9024 6.896 10.5771C7.00266 10.2464 7.056 9.91306 7.056 9.57706C7.056 9.32106 7.032 9.11573 6.984 8.96106C6.93066 8.80106 6.85866 8.68373 6.768 8.60906C6.67733 8.53439 6.57333 8.49706 6.456 8.49706C6.30666 8.49706 6.18933 8.55573 6.104 8.67306C6.01333 8.79039 5.94133 8.94506 5.888 9.13706C5.82933 9.32906 5.776 9.54239 5.728 9.77706C5.67466 10.0064 5.61066 10.2384 5.536 10.4731C5.46133 10.7024 5.36533 10.9131 5.248 11.1051C5.13066 11.2971 4.976 11.4544 4.784 11.5771C4.592 11.6944 4.34666 11.7531 4.048 11.7531C3.728 11.7531 3.43733 11.6677 3.176 11.4971C2.90933 11.3211 2.69866 11.0597 2.544 10.7131C2.384 10.3611 2.304 9.92106 2.304 9.39306C2.304 9.04106 2.34666 8.69439 2.432 8.35306C2.512 8.01173 2.63466 7.71039 2.8 7.44906L3.784 7.84906C3.63466 8.11039 3.52533 8.37173 3.456 8.63306C3.38133 8.89439 3.344 9.15039 3.344 9.40106C3.344 9.65173 3.37333 9.85706 3.432 10.0171C3.49066 10.1771 3.568 10.2917 3.664 10.3611C3.75466 10.4304 3.86133 10.4651 3.984 10.4651C4.128 10.4651 4.24533 10.4064 4.336 10.2891C4.42133 10.1717 4.49066 10.0171 4.544 9.82506C4.59733 9.63306 4.65066 9.42239 4.704 9.19306C4.75733 8.95839 4.81866 8.72639 4.888 8.49706C4.95733 8.26239 5.05066 8.04906 5.168 7.85706C5.28533 7.66506 5.44 7.51039 5.632 7.39306C5.824 7.27039 6.06666 7.20906 6.36 7.20906C6.67466 7.20906 6.96266 7.29706 7.224 7.47306C7.48533 7.64906 7.696 7.91306 7.856 8.26506C8.016 8.61173 8.096 9.05173 8.096 9.58506Z" fill="white" fill-opacity="0.13"/>
<rect x="5" y="132" width="57" height="1" transform="rotate(-90 5 132)" fill="white" fill-opacity="0.04"/>
</svg>
