<svg width="11" height="155" viewBox="0 0 11 155" fill="none" xmlns="http://www.w3.org/2000/svg">
<path opacity="0.32" d="M8.096 81.656C8.096 82.2267 7.97333 82.744 7.728 83.208C7.47733 83.6667 7.13333 84.0293 6.696 84.296C6.25333 84.5573 5.75467 84.688 5.2 84.688C4.64533 84.688 4.14933 84.5573 3.712 84.296C3.26933 84.0293 2.92533 83.6667 2.68 83.208C2.42933 82.744 2.304 82.224 2.304 81.648C2.304 81.1627 2.38933 80.7253 2.56 80.336C2.73067 79.9413 2.976 79.6107 3.296 79.344L4.064 80.176C3.62667 80.5547 3.408 81.024 3.408 81.584C3.408 81.9307 3.48533 82.24 3.64 82.512C3.78933 82.784 4 82.9973 4.272 83.152C4.544 83.3013 4.85333 83.376 5.2 83.376C5.54667 83.376 5.856 83.3013 6.128 83.152C6.4 82.9973 6.61333 82.784 6.768 82.512C6.91733 82.24 6.992 81.9307 6.992 81.584C6.992 81.024 6.77067 80.5547 6.328 80.176L7.096 79.344C7.42133 79.6107 7.66933 79.9413 7.84 80.336C8.01067 80.7307 8.096 81.1707 8.096 81.656ZM6.96 72.5328L8 72.5328L8 76.8688L2.4 76.8688L2.4 72.6368L3.44 72.6368L3.44 75.5808L4.656 75.5808L4.656 72.9808L5.664 72.9808L5.664 75.5808L6.96 75.5808L6.96 72.5328ZM8.096 67.2052C8.096 67.7866 7.97067 68.3119 7.72 68.7812C7.46933 69.2452 7.12533 69.6106 6.688 69.8772C6.24533 70.1386 5.74933 70.2692 5.2 70.2692C4.65067 70.2692 4.15733 70.1386 3.72 69.8772C3.27733 69.6106 2.93067 69.2452 2.68 68.7813C2.42933 68.3119 2.304 67.7866 2.304 67.2052C2.304 66.6239 2.42933 66.1012 2.68 65.6372C2.93067 65.1732 3.27733 64.8079 3.72 64.5412C4.15733 64.2746 4.65067 64.1412 5.2 64.1412C5.74933 64.1412 6.24533 64.2746 6.688 64.5412C7.12533 64.8079 7.46933 65.1732 7.72 65.6372C7.97067 66.1012 8.096 66.6239 8.096 67.2052ZM6.992 67.2052C6.992 66.8746 6.91733 66.5759 6.768 66.3092C6.61333 66.0426 6.4 65.8346 6.128 65.6852C5.856 65.5306 5.54667 65.4532 5.2 65.4532C4.85333 65.4532 4.544 65.5306 4.272 65.6852C4 65.8346 3.78933 66.0426 3.64 66.3092C3.48533 66.5759 3.408 66.8746 3.408 67.2052C3.408 67.5359 3.48533 67.8346 3.64 68.1013C3.78933 68.3679 4 68.5786 4.272 68.7332C4.544 68.8826 4.85333 68.9572 5.2 68.9572C5.54667 68.9572 5.856 68.8826 6.128 68.7332C6.4 68.5786 6.61333 68.3679 6.768 68.1012C6.91733 67.8346 6.992 67.5359 6.992 67.2052ZM8.096 55.0216C8.096 55.5923 7.97333 56.1096 7.728 56.5736C7.47733 57.0323 7.13333 57.395 6.696 57.6616C6.25333 57.923 5.75467 58.0536 5.2 58.0536C4.64533 58.0536 4.14933 57.923 3.712 57.6616C3.26933 57.395 2.92533 57.0323 2.68 56.5736C2.42933 56.1096 2.304 55.5896 2.304 55.0136C2.304 54.5283 2.38933 54.091 2.56 53.7016C2.73067 53.307 2.976 52.9763 3.296 52.7096L4.064 53.5416C3.62667 53.9203 3.408 54.3896 3.408 54.9496C3.408 55.2963 3.48533 55.6056 3.64 55.8776C3.78933 56.1496 4 56.363 4.272 56.5176C4.544 56.667 4.85333 56.7416 5.2 56.7416C5.54667 56.7416 5.856 56.667 6.128 56.5176C6.4 56.363 6.61333 56.1496 6.768 55.8776C6.91733 55.6056 6.992 55.2963 6.992 54.9496C6.992 54.3896 6.77067 53.9203 6.328 53.5416L7.096 52.7096C7.42133 52.9763 7.66933 53.307 7.84 53.7016C8.01067 54.0963 8.096 54.5363 8.096 55.0216ZM8.096 47.6396C8.096 48.221 7.97067 48.7463 7.72 49.2156C7.46933 49.6796 7.12533 50.045 6.688 50.3116C6.24533 50.573 5.74933 50.7036 5.2 50.7036C4.65067 50.7036 4.15733 50.573 3.72 50.3116C3.27733 50.045 2.93066 49.6796 2.68 49.2156C2.42933 48.7463 2.304 48.221 2.304 47.6396C2.304 47.0583 2.42933 46.5356 2.68 46.0716C2.93066 45.6076 3.27733 45.2423 3.72 44.9756C4.15733 44.709 4.65066 44.5756 5.2 44.5756C5.74933 44.5756 6.24533 44.709 6.688 44.9756C7.12533 45.2423 7.46933 45.6076 7.72 46.0716C7.97066 46.5356 8.096 47.0583 8.096 47.6396ZM6.992 47.6396C6.992 47.309 6.91733 47.0103 6.768 46.7436C6.61333 46.477 6.4 46.269 6.128 46.1196C5.856 45.965 5.54666 45.8876 5.2 45.8876C4.85333 45.8876 4.544 45.965 4.272 46.1196C4 46.269 3.78933 46.477 3.64 46.7436C3.48533 47.0103 3.408 47.309 3.408 47.6396C3.408 47.9703 3.48533 48.269 3.64 48.5356C3.78933 48.8023 4 49.013 4.272 49.1676C4.544 49.317 4.85333 49.3916 5.2 49.3916C5.54666 49.3916 5.856 49.317 6.128 49.1676C6.4 49.013 6.61333 48.8023 6.768 48.5356C6.91733 48.269 6.992 47.9703 6.992 47.6396ZM8 36.9056L4.64 36.9136L7.408 38.5616L7.408 39.1456L4.712 40.7856L8 40.7856L8 42.0016L2.4 42.0016L2.4 40.9296L5.88 38.8336L2.4 36.7696L2.4 35.7056L8 35.6896L8 36.9056ZM2.4 30.337C2.4 29.841 2.48266 29.4117 2.648 29.049C2.81333 28.681 3.048 28.3983 3.352 28.201C3.656 28.0037 4.016 27.905 4.432 27.905C4.84266 27.905 5.20266 28.0037 5.512 28.201C5.816 28.3983 6.05066 28.681 6.216 29.049C6.376 29.4117 6.456 29.841 6.456 30.337L6.456 31.465L8 31.465L8 32.761L2.4 32.761L2.4 30.337ZM5.4 30.409C5.4 30.0197 5.31733 29.7237 5.152 29.521C4.98133 29.3183 4.74133 29.217 4.432 29.217C4.11733 29.217 3.87733 29.3183 3.712 29.521C3.54133 29.7237 3.456 30.0197 3.456 30.409L3.456 31.465L5.4 31.465L5.4 30.409ZM6.8 21.973L6.8 24.573L8 25.069L8 26.397L2.4 23.901L2.4 22.621L8 20.117L8 21.477L6.8 21.973ZM5.816 22.381L3.672 23.269L5.816 24.157L5.816 22.381ZM2.4 12.8L8 12.8L8 13.864L4.6 16.656L8 16.656L8 17.936L2.4 17.936L2.4 16.864L5.8 14.08L2.4 14.08L2.4 12.8ZM6.016 7.18706L8 7.18706L8 8.48306L6 8.48306L2.4 10.6511L2.4 9.27506L4.888 7.77906L2.4 6.28306L2.4 5.01106L6.016 7.18706Z" fill="#828282"/>
<rect opacity="0.16" x="5" y="155" width="57" height="1" transform="rotate(-90 5 155)" fill="#828282"/>
</svg>
